%TF.GenerationSoftware,KiCad,Pcbnew,8.0.8+dfsg-1*%
%TF.CreationDate,2026-10-06T14:05:39+02:00*%
%TF.ProjectId,butns,6275746e-732e-46b6-9963-61645f706362,rev?*%
%TF.SameCoordinates,Original*%
%TF.FileFunction,Legend,Bot*%
%TF.FilePolarity,Positive*%
%FSLAX46Y46*%
G04 Gerber Fmt 4.6, Leading zero omitted, Abs format (unit mm)*
G04 Created by KiCad (PCBNEW 8.0.8+dfsg-1) date 2026-10-06 14:05:39*
%MOMM*%
%LPD*%
G01*
G04 APERTURE LIST*
%ADD10C,0.300000*%
%ADD11C,0.150000*%
%ADD12C,0.120000*%
%ADD13C,2.700000*%
%ADD14R,1.700000X3.500000*%
%ADD15R,3.500000X1.700000*%
G04 APERTURE END LIST*
D10*
X314913489Y-44266828D02*
X313770632Y-44695400D01*
X313770632Y-44695400D02*
X314913489Y-45123971D01*
X312627774Y-43766828D02*
X312627774Y-44838257D01*
X312627774Y-44838257D02*
X312699203Y-45052542D01*
X312699203Y-45052542D02*
X312842060Y-45195400D01*
X312842060Y-45195400D02*
X313056346Y-45266828D01*
X313056346Y-45266828D02*
X313199203Y-45266828D01*
X311199203Y-45266828D02*
X311913489Y-45266828D01*
X311913489Y-45266828D02*
X311913489Y-43766828D01*
X309842060Y-45123971D02*
X309913488Y-45195400D01*
X309913488Y-45195400D02*
X310127774Y-45266828D01*
X310127774Y-45266828D02*
X310270631Y-45266828D01*
X310270631Y-45266828D02*
X310484917Y-45195400D01*
X310484917Y-45195400D02*
X310627774Y-45052542D01*
X310627774Y-45052542D02*
X310699203Y-44909685D01*
X310699203Y-44909685D02*
X310770631Y-44623971D01*
X310770631Y-44623971D02*
X310770631Y-44409685D01*
X310770631Y-44409685D02*
X310699203Y-44123971D01*
X310699203Y-44123971D02*
X310627774Y-43981114D01*
X310627774Y-43981114D02*
X310484917Y-43838257D01*
X310484917Y-43838257D02*
X310270631Y-43766828D01*
X310270631Y-43766828D02*
X310127774Y-43766828D01*
X310127774Y-43766828D02*
X309913488Y-43838257D01*
X309913488Y-43838257D02*
X309842060Y-43909685D01*
X308770631Y-43766828D02*
X308770631Y-44838257D01*
X308770631Y-44838257D02*
X308842060Y-45052542D01*
X308842060Y-45052542D02*
X308984917Y-45195400D01*
X308984917Y-45195400D02*
X309199203Y-45266828D01*
X309199203Y-45266828D02*
X309342060Y-45266828D01*
X307342060Y-45266828D02*
X308056346Y-45266828D01*
X308056346Y-45266828D02*
X308056346Y-43766828D01*
X305984917Y-45123971D02*
X306056345Y-45195400D01*
X306056345Y-45195400D02*
X306270631Y-45266828D01*
X306270631Y-45266828D02*
X306413488Y-45266828D01*
X306413488Y-45266828D02*
X306627774Y-45195400D01*
X306627774Y-45195400D02*
X306770631Y-45052542D01*
X306770631Y-45052542D02*
X306842060Y-44909685D01*
X306842060Y-44909685D02*
X306913488Y-44623971D01*
X306913488Y-44623971D02*
X306913488Y-44409685D01*
X306913488Y-44409685D02*
X306842060Y-44123971D01*
X306842060Y-44123971D02*
X306770631Y-43981114D01*
X306770631Y-43981114D02*
X306627774Y-43838257D01*
X306627774Y-43838257D02*
X306413488Y-43766828D01*
X306413488Y-43766828D02*
X306270631Y-43766828D01*
X306270631Y-43766828D02*
X306056345Y-43838257D01*
X306056345Y-43838257D02*
X305984917Y-43909685D01*
X304913488Y-43766828D02*
X304913488Y-44838257D01*
X304913488Y-44838257D02*
X304984917Y-45052542D01*
X304984917Y-45052542D02*
X305127774Y-45195400D01*
X305127774Y-45195400D02*
X305342060Y-45266828D01*
X305342060Y-45266828D02*
X305484917Y-45266828D01*
X303484917Y-45266828D02*
X304199203Y-45266828D01*
X304199203Y-45266828D02*
X304199203Y-43766828D01*
X302127774Y-45123971D02*
X302199202Y-45195400D01*
X302199202Y-45195400D02*
X302413488Y-45266828D01*
X302413488Y-45266828D02*
X302556345Y-45266828D01*
X302556345Y-45266828D02*
X302770631Y-45195400D01*
X302770631Y-45195400D02*
X302913488Y-45052542D01*
X302913488Y-45052542D02*
X302984917Y-44909685D01*
X302984917Y-44909685D02*
X303056345Y-44623971D01*
X303056345Y-44623971D02*
X303056345Y-44409685D01*
X303056345Y-44409685D02*
X302984917Y-44123971D01*
X302984917Y-44123971D02*
X302913488Y-43981114D01*
X302913488Y-43981114D02*
X302770631Y-43838257D01*
X302770631Y-43838257D02*
X302556345Y-43766828D01*
X302556345Y-43766828D02*
X302413488Y-43766828D01*
X302413488Y-43766828D02*
X302199202Y-43838257D01*
X302199202Y-43838257D02*
X302127774Y-43909685D01*
X301056345Y-43766828D02*
X301056345Y-44838257D01*
X301056345Y-44838257D02*
X301127774Y-45052542D01*
X301127774Y-45052542D02*
X301270631Y-45195400D01*
X301270631Y-45195400D02*
X301484917Y-45266828D01*
X301484917Y-45266828D02*
X301627774Y-45266828D01*
X299627774Y-45266828D02*
X300342060Y-45266828D01*
X300342060Y-45266828D02*
X300342060Y-43766828D01*
X298270631Y-45123971D02*
X298342059Y-45195400D01*
X298342059Y-45195400D02*
X298556345Y-45266828D01*
X298556345Y-45266828D02*
X298699202Y-45266828D01*
X298699202Y-45266828D02*
X298913488Y-45195400D01*
X298913488Y-45195400D02*
X299056345Y-45052542D01*
X299056345Y-45052542D02*
X299127774Y-44909685D01*
X299127774Y-44909685D02*
X299199202Y-44623971D01*
X299199202Y-44623971D02*
X299199202Y-44409685D01*
X299199202Y-44409685D02*
X299127774Y-44123971D01*
X299127774Y-44123971D02*
X299056345Y-43981114D01*
X299056345Y-43981114D02*
X298913488Y-43838257D01*
X298913488Y-43838257D02*
X298699202Y-43766828D01*
X298699202Y-43766828D02*
X298556345Y-43766828D01*
X298556345Y-43766828D02*
X298342059Y-43838257D01*
X298342059Y-43838257D02*
X298270631Y-43909685D01*
D11*
G36*
X320579175Y-82754628D02*
G01*
X321146991Y-82950609D01*
X321146991Y-83018997D01*
X320579175Y-83214977D01*
X320579175Y-83133107D01*
X321035030Y-82985389D01*
X320579175Y-82837475D01*
X320579175Y-82754628D01*
G37*
G36*
X321080947Y-83296652D02*
G01*
X321146991Y-83296652D01*
X321146991Y-83688613D01*
X321074304Y-83688613D01*
X321074304Y-83397475D01*
X320751708Y-83621397D01*
X320717691Y-83644286D01*
X320681956Y-83663686D01*
X320663194Y-83671809D01*
X320625111Y-83683269D01*
X320585232Y-83688347D01*
X320573508Y-83688613D01*
X320554555Y-83688613D01*
X320512550Y-83684646D01*
X320473798Y-83672747D01*
X320457053Y-83664579D01*
X320424654Y-83641582D01*
X320398367Y-83611699D01*
X320388275Y-83595605D01*
X320371955Y-83557016D01*
X320364275Y-83517480D01*
X320363069Y-83492632D01*
X320366400Y-83450091D01*
X320376380Y-83412130D01*
X320395533Y-83374852D01*
X320416216Y-83349799D01*
X320448877Y-83324051D01*
X320486903Y-83306782D01*
X320525270Y-83298509D01*
X320556900Y-83296652D01*
X320581519Y-83296652D01*
X320581519Y-83377154D01*
X320561198Y-83377154D01*
X320519230Y-83381430D01*
X320480812Y-83397172D01*
X320467800Y-83407440D01*
X320444825Y-83440725D01*
X320436039Y-83480642D01*
X320435755Y-83490287D01*
X320441160Y-83529586D01*
X320460757Y-83566137D01*
X320468386Y-83574307D01*
X320501196Y-83595785D01*
X320539901Y-83604993D01*
X320556900Y-83605766D01*
X320573508Y-83605766D01*
X320613814Y-83600957D01*
X320651686Y-83588407D01*
X320686640Y-83570711D01*
X320709112Y-83556526D01*
X321080947Y-83296652D01*
G37*
G36*
X321080947Y-84063379D02*
G01*
X321146991Y-84063379D01*
X321146991Y-84455340D01*
X321074304Y-84455340D01*
X321074304Y-84164202D01*
X320751708Y-84388124D01*
X320717691Y-84411013D01*
X320681956Y-84430414D01*
X320663194Y-84438536D01*
X320625111Y-84449996D01*
X320585232Y-84455075D01*
X320573508Y-84455340D01*
X320554555Y-84455340D01*
X320512550Y-84451373D01*
X320473798Y-84439474D01*
X320457053Y-84431306D01*
X320424654Y-84408309D01*
X320398367Y-84378426D01*
X320388275Y-84362332D01*
X320371955Y-84323743D01*
X320364275Y-84284208D01*
X320363069Y-84259359D01*
X320366400Y-84216818D01*
X320376380Y-84178857D01*
X320395533Y-84141579D01*
X320416216Y-84116526D01*
X320448877Y-84090778D01*
X320486903Y-84073510D01*
X320525270Y-84065236D01*
X320556900Y-84063379D01*
X320581519Y-84063379D01*
X320581519Y-84143881D01*
X320561198Y-84143881D01*
X320519230Y-84148158D01*
X320480812Y-84163899D01*
X320467800Y-84174167D01*
X320444825Y-84207452D01*
X320436039Y-84247369D01*
X320435755Y-84257015D01*
X320441160Y-84296313D01*
X320460757Y-84332864D01*
X320468386Y-84341034D01*
X320501196Y-84362512D01*
X320539901Y-84371721D01*
X320556900Y-84372493D01*
X320573508Y-84372493D01*
X320613814Y-84367684D01*
X320651686Y-84355134D01*
X320686640Y-84337438D01*
X320709112Y-84323253D01*
X321080947Y-84063379D01*
G37*
G36*
X320955016Y-84596624D02*
G01*
X320994916Y-84601940D01*
X321041339Y-84614543D01*
X321080019Y-84633448D01*
X321110959Y-84658654D01*
X321134160Y-84690161D01*
X321149626Y-84727970D01*
X321157357Y-84772080D01*
X321158323Y-84796498D01*
X321154458Y-84843970D01*
X321142860Y-84885119D01*
X321123527Y-84919944D01*
X321096457Y-84948442D01*
X321061647Y-84970611D01*
X321019096Y-84986449D01*
X320968800Y-84995953D01*
X320925996Y-84998924D01*
X320910759Y-84999122D01*
X320606139Y-84999122D01*
X320562670Y-84997340D01*
X320523485Y-84991993D01*
X320477900Y-84979322D01*
X320439924Y-84960318D01*
X320409552Y-84934984D01*
X320382274Y-84894418D01*
X320368995Y-84854850D01*
X320363306Y-84808959D01*
X320363069Y-84796498D01*
X320436928Y-84796498D01*
X320442115Y-84836719D01*
X320461575Y-84873050D01*
X320480696Y-84889311D01*
X320517585Y-84905330D01*
X320558001Y-84913491D01*
X320601681Y-84917008D01*
X320626265Y-84917447D01*
X320895127Y-84917447D01*
X320936869Y-84916101D01*
X320977811Y-84911265D01*
X321018789Y-84900274D01*
X321040696Y-84889311D01*
X321068936Y-84860522D01*
X321082191Y-84823093D01*
X321084269Y-84796498D01*
X321079135Y-84756206D01*
X321059787Y-84720084D01*
X321040696Y-84704077D01*
X321003762Y-84688391D01*
X320963305Y-84680400D01*
X320919655Y-84676957D01*
X320895127Y-84676526D01*
X320626265Y-84676526D01*
X320584445Y-84677844D01*
X320543504Y-84682580D01*
X320502581Y-84693342D01*
X320480696Y-84704077D01*
X320452386Y-84732499D01*
X320439029Y-84769829D01*
X320436928Y-84796498D01*
X320363069Y-84796498D01*
X320366861Y-84749237D01*
X320378242Y-84708278D01*
X320397216Y-84673620D01*
X320431618Y-84639159D01*
X320467693Y-84618679D01*
X320511375Y-84604500D01*
X320562670Y-84596624D01*
X320606139Y-84594851D01*
X320910759Y-84594851D01*
X320955016Y-84596624D01*
G37*
G36*
X321080947Y-85138829D02*
G01*
X321146991Y-85138829D01*
X321146991Y-85530790D01*
X321074304Y-85530790D01*
X321074304Y-85239652D01*
X320751708Y-85463574D01*
X320717691Y-85486463D01*
X320681956Y-85505864D01*
X320663194Y-85513986D01*
X320625111Y-85525446D01*
X320585232Y-85530525D01*
X320573508Y-85530790D01*
X320554555Y-85530790D01*
X320512550Y-85526823D01*
X320473798Y-85514924D01*
X320457053Y-85506756D01*
X320424654Y-85483760D01*
X320398367Y-85453876D01*
X320388275Y-85437782D01*
X320371955Y-85399193D01*
X320364275Y-85359658D01*
X320363069Y-85334809D01*
X320366400Y-85292268D01*
X320376380Y-85254307D01*
X320395533Y-85217029D01*
X320416216Y-85191976D01*
X320448877Y-85166228D01*
X320486903Y-85148960D01*
X320525270Y-85140686D01*
X320556900Y-85138829D01*
X320581519Y-85138829D01*
X320581519Y-85219331D01*
X320561198Y-85219331D01*
X320519230Y-85223608D01*
X320480812Y-85239349D01*
X320467800Y-85249618D01*
X320444825Y-85282902D01*
X320436039Y-85322819D01*
X320435755Y-85332465D01*
X320441160Y-85371763D01*
X320460757Y-85408314D01*
X320468386Y-85416484D01*
X320501196Y-85437962D01*
X320539901Y-85447171D01*
X320556900Y-85447943D01*
X320573508Y-85447943D01*
X320613814Y-85443134D01*
X320651686Y-85430584D01*
X320686640Y-85412889D01*
X320709112Y-85398703D01*
X321080947Y-85138829D01*
G37*
G36*
X321110061Y-85722276D02*
G01*
X321133419Y-85754771D01*
X321149107Y-85793545D01*
X321156632Y-85833262D01*
X321158323Y-85866282D01*
X321154809Y-85910240D01*
X321144279Y-85949178D01*
X321124070Y-85986939D01*
X321102245Y-86011851D01*
X321067228Y-86037353D01*
X321030164Y-86053015D01*
X320987491Y-86062083D01*
X320945539Y-86064607D01*
X320861519Y-86064607D01*
X320818197Y-86062339D01*
X320779518Y-86055552D01*
X320740984Y-86042292D01*
X320704842Y-86020403D01*
X320701296Y-86017517D01*
X320674216Y-85987391D01*
X320655973Y-85950045D01*
X320647195Y-85910726D01*
X320645218Y-85877419D01*
X320649669Y-85837694D01*
X320659286Y-85809227D01*
X320680078Y-85774376D01*
X320695630Y-85757643D01*
X320449238Y-85757643D01*
X320449238Y-86052297D01*
X320374206Y-86052297D01*
X320374206Y-85682611D01*
X320797626Y-85682611D01*
X320797626Y-85754321D01*
X320761157Y-85773513D01*
X320739984Y-85795745D01*
X320723216Y-85832398D01*
X320719272Y-85866282D01*
X320724383Y-85906536D01*
X320743265Y-85942456D01*
X320755616Y-85954209D01*
X320791349Y-85972652D01*
X320831316Y-85980945D01*
X320866014Y-85982737D01*
X320938700Y-85982737D01*
X320980658Y-85979873D01*
X321021607Y-85968868D01*
X321056427Y-85945573D01*
X321077311Y-85910995D01*
X321084127Y-85872358D01*
X321084269Y-85865110D01*
X321079502Y-85823882D01*
X321062016Y-85786891D01*
X321055155Y-85778941D01*
X321022523Y-85757228D01*
X320982198Y-85748922D01*
X320972308Y-85748655D01*
X320964492Y-85748655D01*
X320964492Y-85670301D01*
X320979147Y-85670301D01*
X321018342Y-85673559D01*
X321057310Y-85684996D01*
X321094183Y-85707325D01*
X321110061Y-85722276D01*
G37*
G36*
X320374206Y-89488502D02*
G01*
X320475030Y-89488502D01*
X320475030Y-89569200D01*
X320374206Y-89569200D01*
X320374206Y-89488502D01*
G37*
G36*
X321247814Y-89374392D02*
G01*
X321317374Y-89374392D01*
X321317374Y-89428125D01*
X321313653Y-89467652D01*
X321299365Y-89506722D01*
X321279272Y-89532270D01*
X321245822Y-89554060D01*
X321206562Y-89565199D01*
X321168288Y-89568027D01*
X320579175Y-89568027D01*
X320579175Y-89491824D01*
X321163794Y-89491824D01*
X321203645Y-89487133D01*
X321227688Y-89475020D01*
X321246233Y-89439945D01*
X321247814Y-89420309D01*
X321247814Y-89374392D01*
G37*
G36*
X320374206Y-89744273D02*
G01*
X321146991Y-89744273D01*
X321146991Y-89820477D01*
X320785316Y-89820477D01*
X320745038Y-89824032D01*
X320704916Y-89837718D01*
X320678240Y-89857016D01*
X320653950Y-89890511D01*
X320642519Y-89928471D01*
X320640724Y-89953736D01*
X320645141Y-89993005D01*
X320661662Y-90031084D01*
X320677849Y-90050065D01*
X320713382Y-90072612D01*
X320752120Y-90082681D01*
X320785316Y-90084845D01*
X321146991Y-90084845D01*
X321146991Y-90161049D01*
X320774178Y-90161049D01*
X320734093Y-90158665D01*
X320693418Y-90150101D01*
X320654185Y-90133022D01*
X320625092Y-90111224D01*
X320599713Y-90080136D01*
X320582613Y-90042929D01*
X320574385Y-90004717D01*
X320572531Y-89972884D01*
X320576178Y-89931130D01*
X320589275Y-89889182D01*
X320611898Y-89853388D01*
X320644047Y-89823749D01*
X320648735Y-89820477D01*
X320374206Y-89820477D01*
X320374206Y-89744273D01*
G37*
G36*
X321146991Y-90405096D02*
G01*
X321071959Y-90405096D01*
X321103834Y-90428574D01*
X321130698Y-90462344D01*
X321147342Y-90503514D01*
X321153509Y-90545609D01*
X321153829Y-90558676D01*
X321150279Y-90598720D01*
X321137811Y-90639302D01*
X321116398Y-90675155D01*
X321097165Y-90696429D01*
X321064928Y-90719910D01*
X321024796Y-90736705D01*
X320983218Y-90745901D01*
X320942789Y-90749689D01*
X320920919Y-90750163D01*
X320804269Y-90750163D01*
X320761560Y-90748227D01*
X320717390Y-90741082D01*
X320679289Y-90728687D01*
X320643146Y-90708107D01*
X320628023Y-90695257D01*
X320600660Y-90661835D01*
X320582226Y-90623246D01*
X320573357Y-90584628D01*
X320571359Y-90553010D01*
X320572424Y-90542849D01*
X320640724Y-90542849D01*
X320646637Y-90587382D01*
X320664372Y-90622716D01*
X320693920Y-90648843D01*
X320735273Y-90665756D01*
X320778748Y-90672805D01*
X320808763Y-90673959D01*
X320916425Y-90673959D01*
X320956057Y-90671981D01*
X320998156Y-90663944D01*
X321037766Y-90646138D01*
X321068949Y-90614113D01*
X321082803Y-90577019D01*
X321085441Y-90547344D01*
X321080805Y-90507186D01*
X321064993Y-90470508D01*
X321037960Y-90441635D01*
X321001922Y-90420803D01*
X320963589Y-90409399D01*
X320924524Y-90405239D01*
X320915253Y-90405096D01*
X320815602Y-90405096D01*
X320773309Y-90407837D01*
X320732299Y-90417330D01*
X320694461Y-90435654D01*
X320688400Y-90439877D01*
X320659405Y-90470586D01*
X320644517Y-90507083D01*
X320640724Y-90542849D01*
X320572424Y-90542849D01*
X320575639Y-90512170D01*
X320589799Y-90473392D01*
X320593829Y-90466255D01*
X320619200Y-90434087D01*
X320650907Y-90409621D01*
X320658700Y-90405096D01*
X320374206Y-90405096D01*
X320374206Y-90328893D01*
X321146991Y-90328893D01*
X321146991Y-90405096D01*
G37*
G36*
X320579175Y-90899444D02*
G01*
X321146991Y-90899444D01*
X321146991Y-90975648D01*
X320787465Y-90975648D01*
X320745789Y-90979950D01*
X320706914Y-90994495D01*
X320682343Y-91012187D01*
X320656155Y-91045308D01*
X320643318Y-91085667D01*
X320641896Y-91106757D01*
X320645738Y-91145954D01*
X320650884Y-91164985D01*
X320574681Y-91164985D01*
X320571362Y-91124897D01*
X320571359Y-91123561D01*
X320575302Y-91083235D01*
X320588354Y-91044098D01*
X320592071Y-91036806D01*
X320616345Y-91003885D01*
X320647601Y-90979201D01*
X320655378Y-90974671D01*
X320579175Y-90974671D01*
X320579175Y-90899444D01*
G37*
G36*
X321098337Y-91329116D02*
G01*
X321125134Y-91362458D01*
X321141613Y-91398833D01*
X321151167Y-91441587D01*
X321153829Y-91484259D01*
X321151167Y-91527764D01*
X321143187Y-91566196D01*
X321127572Y-91603874D01*
X321101746Y-91638257D01*
X321098337Y-91641551D01*
X321063325Y-91666771D01*
X321025720Y-91682259D01*
X320981995Y-91691225D01*
X320938700Y-91693722D01*
X320579175Y-91693722D01*
X320579175Y-91617518D01*
X320928735Y-91617518D01*
X320970692Y-91615111D01*
X321009403Y-91606813D01*
X321044917Y-91589089D01*
X321047339Y-91587232D01*
X321072009Y-91555848D01*
X321083618Y-91514753D01*
X321085441Y-91485431D01*
X321081612Y-91444616D01*
X321066942Y-91406368D01*
X321046362Y-91383436D01*
X321011394Y-91365009D01*
X320969689Y-91355556D01*
X320928735Y-91353150D01*
X320579175Y-91353150D01*
X320579175Y-91276946D01*
X320938700Y-91276946D01*
X320981995Y-91279442D01*
X321020590Y-91286931D01*
X321058959Y-91301604D01*
X321094828Y-91325906D01*
X321098337Y-91329116D01*
G37*
G36*
X320374206Y-91861565D02*
G01*
X321146991Y-91861565D01*
X321146991Y-91937769D01*
X320785316Y-91937769D01*
X320745038Y-91941324D01*
X320704916Y-91955011D01*
X320678240Y-91974308D01*
X320653950Y-92007803D01*
X320642519Y-92045763D01*
X320640724Y-92071028D01*
X320645141Y-92110297D01*
X320661662Y-92148377D01*
X320677849Y-92167357D01*
X320713382Y-92189904D01*
X320752120Y-92199973D01*
X320785316Y-92202138D01*
X321146991Y-92202138D01*
X321146991Y-92278341D01*
X320774178Y-92278341D01*
X320734093Y-92275957D01*
X320693418Y-92267393D01*
X320654185Y-92250315D01*
X320625092Y-92228516D01*
X320599713Y-92197429D01*
X320582613Y-92160221D01*
X320574385Y-92122009D01*
X320572531Y-92090177D01*
X320576178Y-92048423D01*
X320589275Y-92006474D01*
X320611898Y-91970680D01*
X320644047Y-91941041D01*
X320648735Y-91937769D01*
X320374206Y-91937769D01*
X320374206Y-91861565D01*
G37*
G36*
X320579175Y-92446185D02*
G01*
X321146991Y-92446185D01*
X321146991Y-92522389D01*
X320785316Y-92522389D01*
X320745038Y-92525944D01*
X320704916Y-92539630D01*
X320678240Y-92558928D01*
X320653950Y-92592423D01*
X320642519Y-92630383D01*
X320640724Y-92655648D01*
X320645141Y-92694917D01*
X320661662Y-92732996D01*
X320677849Y-92751977D01*
X320713382Y-92774524D01*
X320752120Y-92784593D01*
X320785316Y-92786757D01*
X321146991Y-92786757D01*
X321146991Y-92862961D01*
X320774178Y-92862961D01*
X320734522Y-92860633D01*
X320694130Y-92852271D01*
X320654954Y-92835594D01*
X320625679Y-92814308D01*
X320600016Y-92783484D01*
X320582725Y-92746075D01*
X320574405Y-92707295D01*
X320572531Y-92674796D01*
X320576138Y-92633507D01*
X320587024Y-92595808D01*
X320591485Y-92585697D01*
X320613575Y-92551765D01*
X320644046Y-92524547D01*
X320648735Y-92521412D01*
X320579175Y-92521412D01*
X320579175Y-92446185D01*
G37*
X157804819Y-67538095D02*
X158614342Y-67538095D01*
X158614342Y-67538095D02*
X158709580Y-67585714D01*
X158709580Y-67585714D02*
X158757200Y-67633333D01*
X158757200Y-67633333D02*
X158804819Y-67728571D01*
X158804819Y-67728571D02*
X158804819Y-67919047D01*
X158804819Y-67919047D02*
X158757200Y-68014285D01*
X158757200Y-68014285D02*
X158709580Y-68061904D01*
X158709580Y-68061904D02*
X158614342Y-68109523D01*
X158614342Y-68109523D02*
X157804819Y-68109523D01*
X158804819Y-69109523D02*
X158804819Y-68538095D01*
X158804819Y-68823809D02*
X157804819Y-68823809D01*
X157804819Y-68823809D02*
X157947676Y-68728571D01*
X157947676Y-68728571D02*
X158042914Y-68633333D01*
X158042914Y-68633333D02*
X158090533Y-68538095D01*
X162550868Y-80397998D02*
X162577805Y-80317185D01*
X162577805Y-80317185D02*
X162658618Y-80236373D01*
X162658618Y-80236373D02*
X162766367Y-80182498D01*
X162766367Y-80182498D02*
X162874117Y-80182498D01*
X162874117Y-80182498D02*
X162954929Y-80209436D01*
X162954929Y-80209436D02*
X163089616Y-80290248D01*
X163089616Y-80290248D02*
X163170428Y-80371060D01*
X163170428Y-80371060D02*
X163251241Y-80505747D01*
X163251241Y-80505747D02*
X163278178Y-80586560D01*
X163278178Y-80586560D02*
X163278178Y-80694309D01*
X163278178Y-80694309D02*
X163224303Y-80802059D01*
X163224303Y-80802059D02*
X163170428Y-80855934D01*
X163170428Y-80855934D02*
X163062679Y-80909808D01*
X163062679Y-80909808D02*
X163008804Y-80909808D01*
X163008804Y-80909808D02*
X162820242Y-80721247D01*
X162820242Y-80721247D02*
X162927992Y-80613497D01*
X162820242Y-81206120D02*
X162254557Y-80640434D01*
X162254557Y-80640434D02*
X162039057Y-80855934D01*
X162039057Y-80855934D02*
X162012120Y-80936746D01*
X162012120Y-80936746D02*
X162012120Y-80990621D01*
X162012120Y-80990621D02*
X162039057Y-81071433D01*
X162039057Y-81071433D02*
X162119870Y-81152245D01*
X162119870Y-81152245D02*
X162200682Y-81179182D01*
X162200682Y-81179182D02*
X162254557Y-81179182D01*
X162254557Y-81179182D02*
X162335369Y-81152245D01*
X162335369Y-81152245D02*
X162550868Y-80936746D01*
X161769683Y-81233057D02*
X161715809Y-81233057D01*
X161715809Y-81233057D02*
X161634996Y-81259995D01*
X161634996Y-81259995D02*
X161500309Y-81394682D01*
X161500309Y-81394682D02*
X161473372Y-81475494D01*
X161473372Y-81475494D02*
X161473372Y-81529369D01*
X161473372Y-81529369D02*
X161500309Y-81610181D01*
X161500309Y-81610181D02*
X161554184Y-81664056D01*
X161554184Y-81664056D02*
X161661934Y-81717930D01*
X161661934Y-81717930D02*
X162308431Y-81717930D01*
X162308431Y-81717930D02*
X161958245Y-82068117D01*
X161230935Y-81771805D02*
X161177060Y-81771805D01*
X161177060Y-81771805D02*
X161096248Y-81798743D01*
X161096248Y-81798743D02*
X160961561Y-81933430D01*
X160961561Y-81933430D02*
X160934624Y-82014242D01*
X160934624Y-82014242D02*
X160934624Y-82068117D01*
X160934624Y-82068117D02*
X160961561Y-82148929D01*
X160961561Y-82148929D02*
X161015436Y-82202804D01*
X161015436Y-82202804D02*
X161123186Y-82256679D01*
X161123186Y-82256679D02*
X161769683Y-82256679D01*
X161769683Y-82256679D02*
X161419497Y-82606865D01*
X180330868Y-54243998D02*
X180357805Y-54163185D01*
X180357805Y-54163185D02*
X180438618Y-54082373D01*
X180438618Y-54082373D02*
X180546367Y-54028498D01*
X180546367Y-54028498D02*
X180654117Y-54028498D01*
X180654117Y-54028498D02*
X180734929Y-54055436D01*
X180734929Y-54055436D02*
X180869616Y-54136248D01*
X180869616Y-54136248D02*
X180950428Y-54217060D01*
X180950428Y-54217060D02*
X181031241Y-54351747D01*
X181031241Y-54351747D02*
X181058178Y-54432560D01*
X181058178Y-54432560D02*
X181058178Y-54540309D01*
X181058178Y-54540309D02*
X181004303Y-54648059D01*
X181004303Y-54648059D02*
X180950428Y-54701934D01*
X180950428Y-54701934D02*
X180842679Y-54755808D01*
X180842679Y-54755808D02*
X180788804Y-54755808D01*
X180788804Y-54755808D02*
X180600242Y-54567247D01*
X180600242Y-54567247D02*
X180707992Y-54459497D01*
X180600242Y-55052120D02*
X180034557Y-54486434D01*
X180034557Y-54486434D02*
X179819057Y-54701934D01*
X179819057Y-54701934D02*
X179792120Y-54782746D01*
X179792120Y-54782746D02*
X179792120Y-54836621D01*
X179792120Y-54836621D02*
X179819057Y-54917433D01*
X179819057Y-54917433D02*
X179899870Y-54998245D01*
X179899870Y-54998245D02*
X179980682Y-55025182D01*
X179980682Y-55025182D02*
X180034557Y-55025182D01*
X180034557Y-55025182D02*
X180115369Y-54998245D01*
X180115369Y-54998245D02*
X180330868Y-54782746D01*
X179738245Y-55914117D02*
X180061494Y-55590868D01*
X179899870Y-55752492D02*
X179334184Y-55186807D01*
X179334184Y-55186807D02*
X179468871Y-55213744D01*
X179468871Y-55213744D02*
X179576621Y-55213744D01*
X179576621Y-55213744D02*
X179657433Y-55186807D01*
X178876248Y-56021866D02*
X179253372Y-56398990D01*
X178795436Y-55671680D02*
X179334184Y-55941054D01*
X179334184Y-55941054D02*
X178983998Y-56291240D01*
X153091240Y-80451873D02*
X152821866Y-80721247D01*
X153306739Y-80559623D02*
X152552492Y-80182499D01*
X152552492Y-80182499D02*
X152929615Y-80936746D01*
X151905994Y-80882871D02*
X151932932Y-80802059D01*
X151932932Y-80802059D02*
X152013744Y-80721247D01*
X152013744Y-80721247D02*
X152121494Y-80667372D01*
X152121494Y-80667372D02*
X152229243Y-80667372D01*
X152229243Y-80667372D02*
X152310055Y-80694310D01*
X152310055Y-80694310D02*
X152444742Y-80775122D01*
X152444742Y-80775122D02*
X152525555Y-80855934D01*
X152525555Y-80855934D02*
X152606367Y-80990621D01*
X152606367Y-80990621D02*
X152633304Y-81071433D01*
X152633304Y-81071433D02*
X152633304Y-81179183D01*
X152633304Y-81179183D02*
X152579429Y-81286932D01*
X152579429Y-81286932D02*
X152525555Y-81340807D01*
X152525555Y-81340807D02*
X152417805Y-81394682D01*
X152417805Y-81394682D02*
X152363930Y-81394682D01*
X152363930Y-81394682D02*
X152175368Y-81206120D01*
X152175368Y-81206120D02*
X152283118Y-81098371D01*
X152175368Y-81690993D02*
X151609683Y-81125308D01*
X151609683Y-81125308D02*
X151852120Y-82014242D01*
X151852120Y-82014242D02*
X151286434Y-81448557D01*
X151582746Y-82283616D02*
X151017060Y-81717931D01*
X151017060Y-81717931D02*
X150882373Y-81852618D01*
X150882373Y-81852618D02*
X150828498Y-81960367D01*
X150828498Y-81960367D02*
X150828498Y-82068117D01*
X150828498Y-82068117D02*
X150855436Y-82148929D01*
X150855436Y-82148929D02*
X150936248Y-82283616D01*
X150936248Y-82283616D02*
X151017060Y-82364428D01*
X151017060Y-82364428D02*
X151151747Y-82445241D01*
X151151747Y-82445241D02*
X151232560Y-82472178D01*
X151232560Y-82472178D02*
X151340309Y-82472178D01*
X151340309Y-82472178D02*
X151448059Y-82418303D01*
X151448059Y-82418303D02*
X151582746Y-82283616D01*
X167630868Y-54289998D02*
X167657805Y-54209185D01*
X167657805Y-54209185D02*
X167738618Y-54128373D01*
X167738618Y-54128373D02*
X167846367Y-54074498D01*
X167846367Y-54074498D02*
X167954117Y-54074498D01*
X167954117Y-54074498D02*
X168034929Y-54101436D01*
X168034929Y-54101436D02*
X168169616Y-54182248D01*
X168169616Y-54182248D02*
X168250428Y-54263060D01*
X168250428Y-54263060D02*
X168331241Y-54397747D01*
X168331241Y-54397747D02*
X168358178Y-54478560D01*
X168358178Y-54478560D02*
X168358178Y-54586309D01*
X168358178Y-54586309D02*
X168304303Y-54694059D01*
X168304303Y-54694059D02*
X168250428Y-54747934D01*
X168250428Y-54747934D02*
X168142679Y-54801808D01*
X168142679Y-54801808D02*
X168088804Y-54801808D01*
X168088804Y-54801808D02*
X167900242Y-54613247D01*
X167900242Y-54613247D02*
X168007992Y-54505497D01*
X167900242Y-55098120D02*
X167334557Y-54532434D01*
X167334557Y-54532434D02*
X167119057Y-54747934D01*
X167119057Y-54747934D02*
X167092120Y-54828746D01*
X167092120Y-54828746D02*
X167092120Y-54882621D01*
X167092120Y-54882621D02*
X167119057Y-54963433D01*
X167119057Y-54963433D02*
X167199870Y-55044245D01*
X167199870Y-55044245D02*
X167280682Y-55071182D01*
X167280682Y-55071182D02*
X167334557Y-55071182D01*
X167334557Y-55071182D02*
X167415369Y-55044245D01*
X167415369Y-55044245D02*
X167630868Y-54828746D01*
X167038245Y-55960117D02*
X167361494Y-55636868D01*
X167199870Y-55798492D02*
X166634184Y-55232807D01*
X166634184Y-55232807D02*
X166768871Y-55259744D01*
X166768871Y-55259744D02*
X166876621Y-55259744D01*
X166876621Y-55259744D02*
X166957433Y-55232807D01*
X166122373Y-55744618D02*
X166068499Y-55798492D01*
X166068499Y-55798492D02*
X166041561Y-55879305D01*
X166041561Y-55879305D02*
X166041561Y-55933179D01*
X166041561Y-55933179D02*
X166068499Y-56013992D01*
X166068499Y-56013992D02*
X166149311Y-56148679D01*
X166149311Y-56148679D02*
X166283998Y-56283366D01*
X166283998Y-56283366D02*
X166418685Y-56364178D01*
X166418685Y-56364178D02*
X166499497Y-56391115D01*
X166499497Y-56391115D02*
X166553372Y-56391115D01*
X166553372Y-56391115D02*
X166634184Y-56364178D01*
X166634184Y-56364178D02*
X166688059Y-56310303D01*
X166688059Y-56310303D02*
X166714996Y-56229491D01*
X166714996Y-56229491D02*
X166714996Y-56175616D01*
X166714996Y-56175616D02*
X166688059Y-56094804D01*
X166688059Y-56094804D02*
X166607247Y-55960117D01*
X166607247Y-55960117D02*
X166472560Y-55825430D01*
X166472560Y-55825430D02*
X166337873Y-55744618D01*
X166337873Y-55744618D02*
X166257060Y-55717680D01*
X166257060Y-55717680D02*
X166203186Y-55717680D01*
X166203186Y-55717680D02*
X166122373Y-55744618D01*
X139448431Y-80386435D02*
X139475368Y-80305623D01*
X139475368Y-80305623D02*
X139556180Y-80224811D01*
X139556180Y-80224811D02*
X139663930Y-80170936D01*
X139663930Y-80170936D02*
X139771680Y-80170936D01*
X139771680Y-80170936D02*
X139852492Y-80197873D01*
X139852492Y-80197873D02*
X139987179Y-80278685D01*
X139987179Y-80278685D02*
X140067991Y-80359498D01*
X140067991Y-80359498D02*
X140148803Y-80494185D01*
X140148803Y-80494185D02*
X140175741Y-80574997D01*
X140175741Y-80574997D02*
X140175741Y-80682746D01*
X140175741Y-80682746D02*
X140121866Y-80790496D01*
X140121866Y-80790496D02*
X140067991Y-80844371D01*
X140067991Y-80844371D02*
X139960241Y-80898246D01*
X139960241Y-80898246D02*
X139906367Y-80898246D01*
X139906367Y-80898246D02*
X139717805Y-80709684D01*
X139717805Y-80709684D02*
X139825554Y-80601934D01*
X139717805Y-81194557D02*
X139152119Y-80628872D01*
X139152119Y-80628872D02*
X139394556Y-81517806D01*
X139394556Y-81517806D02*
X138828871Y-80952120D01*
X139125182Y-81787180D02*
X138559497Y-81221494D01*
X138559497Y-81221494D02*
X138424810Y-81356181D01*
X138424810Y-81356181D02*
X138370935Y-81463931D01*
X138370935Y-81463931D02*
X138370935Y-81571680D01*
X138370935Y-81571680D02*
X138397872Y-81652493D01*
X138397872Y-81652493D02*
X138478685Y-81787180D01*
X138478685Y-81787180D02*
X138559497Y-81867992D01*
X138559497Y-81867992D02*
X138694184Y-81948804D01*
X138694184Y-81948804D02*
X138774996Y-81975741D01*
X138774996Y-81975741D02*
X138882746Y-81975741D01*
X138882746Y-81975741D02*
X138990495Y-81921867D01*
X138990495Y-81921867D02*
X139125182Y-81787180D01*
X144501494Y-54813372D02*
X144528431Y-54732560D01*
X144528431Y-54732560D02*
X144609243Y-54651748D01*
X144609243Y-54651748D02*
X144716993Y-54597873D01*
X144716993Y-54597873D02*
X144824742Y-54597873D01*
X144824742Y-54597873D02*
X144905555Y-54624810D01*
X144905555Y-54624810D02*
X145040242Y-54705623D01*
X145040242Y-54705623D02*
X145121054Y-54786435D01*
X145121054Y-54786435D02*
X145201866Y-54921122D01*
X145201866Y-54921122D02*
X145228803Y-55001934D01*
X145228803Y-55001934D02*
X145228803Y-55109684D01*
X145228803Y-55109684D02*
X145174929Y-55217433D01*
X145174929Y-55217433D02*
X145121054Y-55271308D01*
X145121054Y-55271308D02*
X145013304Y-55325183D01*
X145013304Y-55325183D02*
X144959429Y-55325183D01*
X144959429Y-55325183D02*
X144770868Y-55136621D01*
X144770868Y-55136621D02*
X144878617Y-55028871D01*
X144770868Y-55621494D02*
X144205182Y-55055809D01*
X144205182Y-55055809D02*
X143989683Y-55271308D01*
X143989683Y-55271308D02*
X143962746Y-55352120D01*
X143962746Y-55352120D02*
X143962746Y-55405995D01*
X143962746Y-55405995D02*
X143989683Y-55486807D01*
X143989683Y-55486807D02*
X144070495Y-55567619D01*
X144070495Y-55567619D02*
X144151307Y-55594557D01*
X144151307Y-55594557D02*
X144205182Y-55594557D01*
X144205182Y-55594557D02*
X144285994Y-55567619D01*
X144285994Y-55567619D02*
X144501494Y-55352120D01*
X143693372Y-55567619D02*
X143343185Y-55917806D01*
X143343185Y-55917806D02*
X143747246Y-55944743D01*
X143747246Y-55944743D02*
X143666434Y-56025555D01*
X143666434Y-56025555D02*
X143639497Y-56106367D01*
X143639497Y-56106367D02*
X143639497Y-56160242D01*
X143639497Y-56160242D02*
X143666434Y-56241054D01*
X143666434Y-56241054D02*
X143801121Y-56375741D01*
X143801121Y-56375741D02*
X143881933Y-56402679D01*
X143881933Y-56402679D02*
X143935808Y-56402679D01*
X143935808Y-56402679D02*
X144016620Y-56375741D01*
X144016620Y-56375741D02*
X144178245Y-56214117D01*
X144178245Y-56214117D02*
X144205182Y-56133305D01*
X144205182Y-56133305D02*
X144205182Y-56079430D01*
X172710868Y-80397998D02*
X172737805Y-80317185D01*
X172737805Y-80317185D02*
X172818618Y-80236373D01*
X172818618Y-80236373D02*
X172926367Y-80182498D01*
X172926367Y-80182498D02*
X173034117Y-80182498D01*
X173034117Y-80182498D02*
X173114929Y-80209436D01*
X173114929Y-80209436D02*
X173249616Y-80290248D01*
X173249616Y-80290248D02*
X173330428Y-80371060D01*
X173330428Y-80371060D02*
X173411241Y-80505747D01*
X173411241Y-80505747D02*
X173438178Y-80586560D01*
X173438178Y-80586560D02*
X173438178Y-80694309D01*
X173438178Y-80694309D02*
X173384303Y-80802059D01*
X173384303Y-80802059D02*
X173330428Y-80855934D01*
X173330428Y-80855934D02*
X173222679Y-80909808D01*
X173222679Y-80909808D02*
X173168804Y-80909808D01*
X173168804Y-80909808D02*
X172980242Y-80721247D01*
X172980242Y-80721247D02*
X173087992Y-80613497D01*
X172980242Y-81206120D02*
X172414557Y-80640434D01*
X172414557Y-80640434D02*
X172199057Y-80855934D01*
X172199057Y-80855934D02*
X172172120Y-80936746D01*
X172172120Y-80936746D02*
X172172120Y-80990621D01*
X172172120Y-80990621D02*
X172199057Y-81071433D01*
X172199057Y-81071433D02*
X172279870Y-81152245D01*
X172279870Y-81152245D02*
X172360682Y-81179182D01*
X172360682Y-81179182D02*
X172414557Y-81179182D01*
X172414557Y-81179182D02*
X172495369Y-81152245D01*
X172495369Y-81152245D02*
X172710868Y-80936746D01*
X172118245Y-82068117D02*
X172441494Y-81744868D01*
X172279870Y-81906492D02*
X171714184Y-81340807D01*
X171714184Y-81340807D02*
X171848871Y-81367744D01*
X171848871Y-81367744D02*
X171956621Y-81367744D01*
X171956621Y-81367744D02*
X172037433Y-81340807D01*
X171848871Y-82337491D02*
X171741121Y-82445240D01*
X171741121Y-82445240D02*
X171660309Y-82472178D01*
X171660309Y-82472178D02*
X171606434Y-82472178D01*
X171606434Y-82472178D02*
X171471747Y-82445240D01*
X171471747Y-82445240D02*
X171337060Y-82364428D01*
X171337060Y-82364428D02*
X171121561Y-82148929D01*
X171121561Y-82148929D02*
X171094624Y-82068117D01*
X171094624Y-82068117D02*
X171094624Y-82014242D01*
X171094624Y-82014242D02*
X171121561Y-81933430D01*
X171121561Y-81933430D02*
X171229311Y-81825680D01*
X171229311Y-81825680D02*
X171310123Y-81798743D01*
X171310123Y-81798743D02*
X171363998Y-81798743D01*
X171363998Y-81798743D02*
X171444810Y-81825680D01*
X171444810Y-81825680D02*
X171579497Y-81960367D01*
X171579497Y-81960367D02*
X171606434Y-82041179D01*
X171606434Y-82041179D02*
X171606434Y-82095054D01*
X171606434Y-82095054D02*
X171579497Y-82175866D01*
X171579497Y-82175866D02*
X171471747Y-82283616D01*
X171471747Y-82283616D02*
X171390935Y-82310553D01*
X171390935Y-82310553D02*
X171337060Y-82310553D01*
X171337060Y-82310553D02*
X171256248Y-82283616D01*
X149596868Y-80397998D02*
X149623805Y-80317185D01*
X149623805Y-80317185D02*
X149704618Y-80236373D01*
X149704618Y-80236373D02*
X149812367Y-80182498D01*
X149812367Y-80182498D02*
X149920117Y-80182498D01*
X149920117Y-80182498D02*
X150000929Y-80209436D01*
X150000929Y-80209436D02*
X150135616Y-80290248D01*
X150135616Y-80290248D02*
X150216428Y-80371060D01*
X150216428Y-80371060D02*
X150297241Y-80505747D01*
X150297241Y-80505747D02*
X150324178Y-80586560D01*
X150324178Y-80586560D02*
X150324178Y-80694309D01*
X150324178Y-80694309D02*
X150270303Y-80802059D01*
X150270303Y-80802059D02*
X150216428Y-80855934D01*
X150216428Y-80855934D02*
X150108679Y-80909808D01*
X150108679Y-80909808D02*
X150054804Y-80909808D01*
X150054804Y-80909808D02*
X149866242Y-80721247D01*
X149866242Y-80721247D02*
X149973992Y-80613497D01*
X149866242Y-81206120D02*
X149300557Y-80640434D01*
X149300557Y-80640434D02*
X149085057Y-80855934D01*
X149085057Y-80855934D02*
X149058120Y-80936746D01*
X149058120Y-80936746D02*
X149058120Y-80990621D01*
X149058120Y-80990621D02*
X149085057Y-81071433D01*
X149085057Y-81071433D02*
X149165870Y-81152245D01*
X149165870Y-81152245D02*
X149246682Y-81179182D01*
X149246682Y-81179182D02*
X149300557Y-81179182D01*
X149300557Y-81179182D02*
X149381369Y-81152245D01*
X149381369Y-81152245D02*
X149596868Y-80936746D01*
X148815683Y-81233057D02*
X148761809Y-81233057D01*
X148761809Y-81233057D02*
X148680996Y-81259995D01*
X148680996Y-81259995D02*
X148546309Y-81394682D01*
X148546309Y-81394682D02*
X148519372Y-81475494D01*
X148519372Y-81475494D02*
X148519372Y-81529369D01*
X148519372Y-81529369D02*
X148546309Y-81610181D01*
X148546309Y-81610181D02*
X148600184Y-81664056D01*
X148600184Y-81664056D02*
X148707934Y-81717930D01*
X148707934Y-81717930D02*
X149354431Y-81717930D01*
X149354431Y-81717930D02*
X149004245Y-82068117D01*
X148357747Y-82068117D02*
X148384685Y-81987305D01*
X148384685Y-81987305D02*
X148384685Y-81933430D01*
X148384685Y-81933430D02*
X148357747Y-81852618D01*
X148357747Y-81852618D02*
X148330810Y-81825680D01*
X148330810Y-81825680D02*
X148249998Y-81798743D01*
X148249998Y-81798743D02*
X148196123Y-81798743D01*
X148196123Y-81798743D02*
X148115311Y-81825680D01*
X148115311Y-81825680D02*
X148007561Y-81933430D01*
X148007561Y-81933430D02*
X147980624Y-82014242D01*
X147980624Y-82014242D02*
X147980624Y-82068117D01*
X147980624Y-82068117D02*
X148007561Y-82148929D01*
X148007561Y-82148929D02*
X148034499Y-82175866D01*
X148034499Y-82175866D02*
X148115311Y-82202804D01*
X148115311Y-82202804D02*
X148169186Y-82202804D01*
X148169186Y-82202804D02*
X148249998Y-82175866D01*
X148249998Y-82175866D02*
X148357747Y-82068117D01*
X148357747Y-82068117D02*
X148438560Y-82041179D01*
X148438560Y-82041179D02*
X148492434Y-82041179D01*
X148492434Y-82041179D02*
X148573247Y-82068117D01*
X148573247Y-82068117D02*
X148680996Y-82175866D01*
X148680996Y-82175866D02*
X148707934Y-82256679D01*
X148707934Y-82256679D02*
X148707934Y-82310553D01*
X148707934Y-82310553D02*
X148680996Y-82391366D01*
X148680996Y-82391366D02*
X148573247Y-82499115D01*
X148573247Y-82499115D02*
X148492434Y-82526053D01*
X148492434Y-82526053D02*
X148438560Y-82526053D01*
X148438560Y-82526053D02*
X148357747Y-82499115D01*
X148357747Y-82499115D02*
X148249998Y-82391366D01*
X148249998Y-82391366D02*
X148223060Y-82310553D01*
X148223060Y-82310553D02*
X148223060Y-82256679D01*
X148223060Y-82256679D02*
X148249998Y-82175866D01*
X154661494Y-54813372D02*
X154688431Y-54732560D01*
X154688431Y-54732560D02*
X154769243Y-54651748D01*
X154769243Y-54651748D02*
X154876993Y-54597873D01*
X154876993Y-54597873D02*
X154984742Y-54597873D01*
X154984742Y-54597873D02*
X155065555Y-54624810D01*
X155065555Y-54624810D02*
X155200242Y-54705623D01*
X155200242Y-54705623D02*
X155281054Y-54786435D01*
X155281054Y-54786435D02*
X155361866Y-54921122D01*
X155361866Y-54921122D02*
X155388803Y-55001934D01*
X155388803Y-55001934D02*
X155388803Y-55109684D01*
X155388803Y-55109684D02*
X155334929Y-55217433D01*
X155334929Y-55217433D02*
X155281054Y-55271308D01*
X155281054Y-55271308D02*
X155173304Y-55325183D01*
X155173304Y-55325183D02*
X155119429Y-55325183D01*
X155119429Y-55325183D02*
X154930868Y-55136621D01*
X154930868Y-55136621D02*
X155038617Y-55028871D01*
X154930868Y-55621494D02*
X154365182Y-55055809D01*
X154365182Y-55055809D02*
X154149683Y-55271308D01*
X154149683Y-55271308D02*
X154122746Y-55352120D01*
X154122746Y-55352120D02*
X154122746Y-55405995D01*
X154122746Y-55405995D02*
X154149683Y-55486807D01*
X154149683Y-55486807D02*
X154230495Y-55567619D01*
X154230495Y-55567619D02*
X154311307Y-55594557D01*
X154311307Y-55594557D02*
X154365182Y-55594557D01*
X154365182Y-55594557D02*
X154445994Y-55567619D01*
X154445994Y-55567619D02*
X154661494Y-55352120D01*
X153557060Y-55863931D02*
X153664810Y-55756181D01*
X153664810Y-55756181D02*
X153745622Y-55729244D01*
X153745622Y-55729244D02*
X153799497Y-55729244D01*
X153799497Y-55729244D02*
X153934184Y-55756181D01*
X153934184Y-55756181D02*
X154068871Y-55836993D01*
X154068871Y-55836993D02*
X154284370Y-56052493D01*
X154284370Y-56052493D02*
X154311307Y-56133305D01*
X154311307Y-56133305D02*
X154311307Y-56187180D01*
X154311307Y-56187180D02*
X154284370Y-56267992D01*
X154284370Y-56267992D02*
X154176620Y-56375741D01*
X154176620Y-56375741D02*
X154095808Y-56402679D01*
X154095808Y-56402679D02*
X154041933Y-56402679D01*
X154041933Y-56402679D02*
X153961121Y-56375741D01*
X153961121Y-56375741D02*
X153826434Y-56241054D01*
X153826434Y-56241054D02*
X153799497Y-56160242D01*
X153799497Y-56160242D02*
X153799497Y-56106367D01*
X153799497Y-56106367D02*
X153826434Y-56025555D01*
X153826434Y-56025555D02*
X153934184Y-55917806D01*
X153934184Y-55917806D02*
X154014996Y-55890868D01*
X154014996Y-55890868D02*
X154068871Y-55890868D01*
X154068871Y-55890868D02*
X154149683Y-55917806D01*
X177548431Y-80386435D02*
X177575368Y-80305623D01*
X177575368Y-80305623D02*
X177656180Y-80224811D01*
X177656180Y-80224811D02*
X177763930Y-80170936D01*
X177763930Y-80170936D02*
X177871680Y-80170936D01*
X177871680Y-80170936D02*
X177952492Y-80197873D01*
X177952492Y-80197873D02*
X178087179Y-80278685D01*
X178087179Y-80278685D02*
X178167991Y-80359498D01*
X178167991Y-80359498D02*
X178248803Y-80494185D01*
X178248803Y-80494185D02*
X178275741Y-80574997D01*
X178275741Y-80574997D02*
X178275741Y-80682746D01*
X178275741Y-80682746D02*
X178221866Y-80790496D01*
X178221866Y-80790496D02*
X178167991Y-80844371D01*
X178167991Y-80844371D02*
X178060241Y-80898246D01*
X178060241Y-80898246D02*
X178006367Y-80898246D01*
X178006367Y-80898246D02*
X177817805Y-80709684D01*
X177817805Y-80709684D02*
X177925554Y-80601934D01*
X177817805Y-81194557D02*
X177252119Y-80628872D01*
X177252119Y-80628872D02*
X177494556Y-81517806D01*
X177494556Y-81517806D02*
X176928871Y-80952120D01*
X177225182Y-81787180D02*
X176659497Y-81221494D01*
X176659497Y-81221494D02*
X176524810Y-81356181D01*
X176524810Y-81356181D02*
X176470935Y-81463931D01*
X176470935Y-81463931D02*
X176470935Y-81571680D01*
X176470935Y-81571680D02*
X176497872Y-81652493D01*
X176497872Y-81652493D02*
X176578685Y-81787180D01*
X176578685Y-81787180D02*
X176659497Y-81867992D01*
X176659497Y-81867992D02*
X176794184Y-81948804D01*
X176794184Y-81948804D02*
X176874996Y-81975741D01*
X176874996Y-81975741D02*
X176982746Y-81975741D01*
X176982746Y-81975741D02*
X177090495Y-81921867D01*
X177090495Y-81921867D02*
X177225182Y-81787180D01*
X134341494Y-54813372D02*
X134368431Y-54732560D01*
X134368431Y-54732560D02*
X134449243Y-54651748D01*
X134449243Y-54651748D02*
X134556993Y-54597873D01*
X134556993Y-54597873D02*
X134664742Y-54597873D01*
X134664742Y-54597873D02*
X134745555Y-54624810D01*
X134745555Y-54624810D02*
X134880242Y-54705623D01*
X134880242Y-54705623D02*
X134961054Y-54786435D01*
X134961054Y-54786435D02*
X135041866Y-54921122D01*
X135041866Y-54921122D02*
X135068803Y-55001934D01*
X135068803Y-55001934D02*
X135068803Y-55109684D01*
X135068803Y-55109684D02*
X135014929Y-55217433D01*
X135014929Y-55217433D02*
X134961054Y-55271308D01*
X134961054Y-55271308D02*
X134853304Y-55325183D01*
X134853304Y-55325183D02*
X134799429Y-55325183D01*
X134799429Y-55325183D02*
X134610868Y-55136621D01*
X134610868Y-55136621D02*
X134718617Y-55028871D01*
X134610868Y-55621494D02*
X134045182Y-55055809D01*
X134045182Y-55055809D02*
X133829683Y-55271308D01*
X133829683Y-55271308D02*
X133802746Y-55352120D01*
X133802746Y-55352120D02*
X133802746Y-55405995D01*
X133802746Y-55405995D02*
X133829683Y-55486807D01*
X133829683Y-55486807D02*
X133910495Y-55567619D01*
X133910495Y-55567619D02*
X133991307Y-55594557D01*
X133991307Y-55594557D02*
X134045182Y-55594557D01*
X134045182Y-55594557D02*
X134125994Y-55567619D01*
X134125994Y-55567619D02*
X134341494Y-55352120D01*
X133371747Y-55729244D02*
X133317872Y-55783119D01*
X133317872Y-55783119D02*
X133290935Y-55863931D01*
X133290935Y-55863931D02*
X133290935Y-55917806D01*
X133290935Y-55917806D02*
X133317872Y-55998618D01*
X133317872Y-55998618D02*
X133398685Y-56133305D01*
X133398685Y-56133305D02*
X133533372Y-56267992D01*
X133533372Y-56267992D02*
X133668059Y-56348804D01*
X133668059Y-56348804D02*
X133748871Y-56375741D01*
X133748871Y-56375741D02*
X133802746Y-56375741D01*
X133802746Y-56375741D02*
X133883558Y-56348804D01*
X133883558Y-56348804D02*
X133937433Y-56294929D01*
X133937433Y-56294929D02*
X133964370Y-56214117D01*
X133964370Y-56214117D02*
X133964370Y-56160242D01*
X133964370Y-56160242D02*
X133937433Y-56079430D01*
X133937433Y-56079430D02*
X133856620Y-55944743D01*
X133856620Y-55944743D02*
X133721933Y-55810056D01*
X133721933Y-55810056D02*
X133587246Y-55729244D01*
X133587246Y-55729244D02*
X133506434Y-55702306D01*
X133506434Y-55702306D02*
X133452559Y-55702306D01*
X133452559Y-55702306D02*
X133371747Y-55729244D01*
X159741494Y-54813372D02*
X159768431Y-54732560D01*
X159768431Y-54732560D02*
X159849243Y-54651748D01*
X159849243Y-54651748D02*
X159956993Y-54597873D01*
X159956993Y-54597873D02*
X160064742Y-54597873D01*
X160064742Y-54597873D02*
X160145555Y-54624810D01*
X160145555Y-54624810D02*
X160280242Y-54705623D01*
X160280242Y-54705623D02*
X160361054Y-54786435D01*
X160361054Y-54786435D02*
X160441866Y-54921122D01*
X160441866Y-54921122D02*
X160468803Y-55001934D01*
X160468803Y-55001934D02*
X160468803Y-55109684D01*
X160468803Y-55109684D02*
X160414929Y-55217433D01*
X160414929Y-55217433D02*
X160361054Y-55271308D01*
X160361054Y-55271308D02*
X160253304Y-55325183D01*
X160253304Y-55325183D02*
X160199429Y-55325183D01*
X160199429Y-55325183D02*
X160010868Y-55136621D01*
X160010868Y-55136621D02*
X160118617Y-55028871D01*
X160010868Y-55621494D02*
X159445182Y-55055809D01*
X159445182Y-55055809D02*
X159229683Y-55271308D01*
X159229683Y-55271308D02*
X159202746Y-55352120D01*
X159202746Y-55352120D02*
X159202746Y-55405995D01*
X159202746Y-55405995D02*
X159229683Y-55486807D01*
X159229683Y-55486807D02*
X159310495Y-55567619D01*
X159310495Y-55567619D02*
X159391307Y-55594557D01*
X159391307Y-55594557D02*
X159445182Y-55594557D01*
X159445182Y-55594557D02*
X159525994Y-55567619D01*
X159525994Y-55567619D02*
X159741494Y-55352120D01*
X159041121Y-55944743D02*
X159068059Y-55863931D01*
X159068059Y-55863931D02*
X159068059Y-55810056D01*
X159068059Y-55810056D02*
X159041121Y-55729244D01*
X159041121Y-55729244D02*
X159014184Y-55702306D01*
X159014184Y-55702306D02*
X158933372Y-55675369D01*
X158933372Y-55675369D02*
X158879497Y-55675369D01*
X158879497Y-55675369D02*
X158798685Y-55702306D01*
X158798685Y-55702306D02*
X158690935Y-55810056D01*
X158690935Y-55810056D02*
X158663998Y-55890868D01*
X158663998Y-55890868D02*
X158663998Y-55944743D01*
X158663998Y-55944743D02*
X158690935Y-56025555D01*
X158690935Y-56025555D02*
X158717872Y-56052493D01*
X158717872Y-56052493D02*
X158798685Y-56079430D01*
X158798685Y-56079430D02*
X158852559Y-56079430D01*
X158852559Y-56079430D02*
X158933372Y-56052493D01*
X158933372Y-56052493D02*
X159041121Y-55944743D01*
X159041121Y-55944743D02*
X159121933Y-55917806D01*
X159121933Y-55917806D02*
X159175808Y-55917806D01*
X159175808Y-55917806D02*
X159256620Y-55944743D01*
X159256620Y-55944743D02*
X159364370Y-56052493D01*
X159364370Y-56052493D02*
X159391307Y-56133305D01*
X159391307Y-56133305D02*
X159391307Y-56187180D01*
X159391307Y-56187180D02*
X159364370Y-56267992D01*
X159364370Y-56267992D02*
X159256620Y-56375741D01*
X159256620Y-56375741D02*
X159175808Y-56402679D01*
X159175808Y-56402679D02*
X159121933Y-56402679D01*
X159121933Y-56402679D02*
X159041121Y-56375741D01*
X159041121Y-56375741D02*
X158933372Y-56267992D01*
X158933372Y-56267992D02*
X158906434Y-56187180D01*
X158906434Y-56187180D02*
X158906434Y-56133305D01*
X158906434Y-56133305D02*
X158933372Y-56052493D01*
X157470868Y-80397998D02*
X157497805Y-80317185D01*
X157497805Y-80317185D02*
X157578618Y-80236373D01*
X157578618Y-80236373D02*
X157686367Y-80182498D01*
X157686367Y-80182498D02*
X157794117Y-80182498D01*
X157794117Y-80182498D02*
X157874929Y-80209436D01*
X157874929Y-80209436D02*
X158009616Y-80290248D01*
X158009616Y-80290248D02*
X158090428Y-80371060D01*
X158090428Y-80371060D02*
X158171241Y-80505747D01*
X158171241Y-80505747D02*
X158198178Y-80586560D01*
X158198178Y-80586560D02*
X158198178Y-80694309D01*
X158198178Y-80694309D02*
X158144303Y-80802059D01*
X158144303Y-80802059D02*
X158090428Y-80855934D01*
X158090428Y-80855934D02*
X157982679Y-80909808D01*
X157982679Y-80909808D02*
X157928804Y-80909808D01*
X157928804Y-80909808D02*
X157740242Y-80721247D01*
X157740242Y-80721247D02*
X157847992Y-80613497D01*
X157740242Y-81206120D02*
X157174557Y-80640434D01*
X157174557Y-80640434D02*
X156959057Y-80855934D01*
X156959057Y-80855934D02*
X156932120Y-80936746D01*
X156932120Y-80936746D02*
X156932120Y-80990621D01*
X156932120Y-80990621D02*
X156959057Y-81071433D01*
X156959057Y-81071433D02*
X157039870Y-81152245D01*
X157039870Y-81152245D02*
X157120682Y-81179182D01*
X157120682Y-81179182D02*
X157174557Y-81179182D01*
X157174557Y-81179182D02*
X157255369Y-81152245D01*
X157255369Y-81152245D02*
X157470868Y-80936746D01*
X156689683Y-81233057D02*
X156635809Y-81233057D01*
X156635809Y-81233057D02*
X156554996Y-81259995D01*
X156554996Y-81259995D02*
X156420309Y-81394682D01*
X156420309Y-81394682D02*
X156393372Y-81475494D01*
X156393372Y-81475494D02*
X156393372Y-81529369D01*
X156393372Y-81529369D02*
X156420309Y-81610181D01*
X156420309Y-81610181D02*
X156474184Y-81664056D01*
X156474184Y-81664056D02*
X156581934Y-81717930D01*
X156581934Y-81717930D02*
X157228431Y-81717930D01*
X157228431Y-81717930D02*
X156878245Y-82068117D01*
X155827686Y-81987305D02*
X155935436Y-81879555D01*
X155935436Y-81879555D02*
X156016248Y-81852618D01*
X156016248Y-81852618D02*
X156070123Y-81852618D01*
X156070123Y-81852618D02*
X156204810Y-81879555D01*
X156204810Y-81879555D02*
X156339497Y-81960367D01*
X156339497Y-81960367D02*
X156554996Y-82175866D01*
X156554996Y-82175866D02*
X156581934Y-82256679D01*
X156581934Y-82256679D02*
X156581934Y-82310553D01*
X156581934Y-82310553D02*
X156554996Y-82391366D01*
X156554996Y-82391366D02*
X156447247Y-82499115D01*
X156447247Y-82499115D02*
X156366434Y-82526053D01*
X156366434Y-82526053D02*
X156312560Y-82526053D01*
X156312560Y-82526053D02*
X156231747Y-82499115D01*
X156231747Y-82499115D02*
X156097060Y-82364428D01*
X156097060Y-82364428D02*
X156070123Y-82283616D01*
X156070123Y-82283616D02*
X156070123Y-82229741D01*
X156070123Y-82229741D02*
X156097060Y-82148929D01*
X156097060Y-82148929D02*
X156204810Y-82041179D01*
X156204810Y-82041179D02*
X156285622Y-82014242D01*
X156285622Y-82014242D02*
X156339497Y-82014242D01*
X156339497Y-82014242D02*
X156420309Y-82041179D01*
X172710868Y-54143998D02*
X172737805Y-54063185D01*
X172737805Y-54063185D02*
X172818618Y-53982373D01*
X172818618Y-53982373D02*
X172926367Y-53928498D01*
X172926367Y-53928498D02*
X173034117Y-53928498D01*
X173034117Y-53928498D02*
X173114929Y-53955436D01*
X173114929Y-53955436D02*
X173249616Y-54036248D01*
X173249616Y-54036248D02*
X173330428Y-54117060D01*
X173330428Y-54117060D02*
X173411241Y-54251747D01*
X173411241Y-54251747D02*
X173438178Y-54332560D01*
X173438178Y-54332560D02*
X173438178Y-54440309D01*
X173438178Y-54440309D02*
X173384303Y-54548059D01*
X173384303Y-54548059D02*
X173330428Y-54601934D01*
X173330428Y-54601934D02*
X173222679Y-54655808D01*
X173222679Y-54655808D02*
X173168804Y-54655808D01*
X173168804Y-54655808D02*
X172980242Y-54467247D01*
X172980242Y-54467247D02*
X173087992Y-54359497D01*
X172980242Y-54952120D02*
X172414557Y-54386434D01*
X172414557Y-54386434D02*
X172199057Y-54601934D01*
X172199057Y-54601934D02*
X172172120Y-54682746D01*
X172172120Y-54682746D02*
X172172120Y-54736621D01*
X172172120Y-54736621D02*
X172199057Y-54817433D01*
X172199057Y-54817433D02*
X172279870Y-54898245D01*
X172279870Y-54898245D02*
X172360682Y-54925182D01*
X172360682Y-54925182D02*
X172414557Y-54925182D01*
X172414557Y-54925182D02*
X172495369Y-54898245D01*
X172495369Y-54898245D02*
X172710868Y-54682746D01*
X172118245Y-55814117D02*
X172441494Y-55490868D01*
X172279870Y-55652492D02*
X171714184Y-55086807D01*
X171714184Y-55086807D02*
X171848871Y-55113744D01*
X171848871Y-55113744D02*
X171956621Y-55113744D01*
X171956621Y-55113744D02*
X172037433Y-55086807D01*
X171390935Y-55517805D02*
X171337060Y-55517805D01*
X171337060Y-55517805D02*
X171256248Y-55544743D01*
X171256248Y-55544743D02*
X171121561Y-55679430D01*
X171121561Y-55679430D02*
X171094624Y-55760242D01*
X171094624Y-55760242D02*
X171094624Y-55814117D01*
X171094624Y-55814117D02*
X171121561Y-55894929D01*
X171121561Y-55894929D02*
X171175436Y-55948804D01*
X171175436Y-55948804D02*
X171283186Y-56002679D01*
X171283186Y-56002679D02*
X171929683Y-56002679D01*
X171929683Y-56002679D02*
X171579497Y-56352865D01*
X182870868Y-80397998D02*
X182897805Y-80317185D01*
X182897805Y-80317185D02*
X182978618Y-80236373D01*
X182978618Y-80236373D02*
X183086367Y-80182498D01*
X183086367Y-80182498D02*
X183194117Y-80182498D01*
X183194117Y-80182498D02*
X183274929Y-80209436D01*
X183274929Y-80209436D02*
X183409616Y-80290248D01*
X183409616Y-80290248D02*
X183490428Y-80371060D01*
X183490428Y-80371060D02*
X183571241Y-80505747D01*
X183571241Y-80505747D02*
X183598178Y-80586560D01*
X183598178Y-80586560D02*
X183598178Y-80694309D01*
X183598178Y-80694309D02*
X183544303Y-80802059D01*
X183544303Y-80802059D02*
X183490428Y-80855934D01*
X183490428Y-80855934D02*
X183382679Y-80909808D01*
X183382679Y-80909808D02*
X183328804Y-80909808D01*
X183328804Y-80909808D02*
X183140242Y-80721247D01*
X183140242Y-80721247D02*
X183247992Y-80613497D01*
X183140242Y-81206120D02*
X182574557Y-80640434D01*
X182574557Y-80640434D02*
X182359057Y-80855934D01*
X182359057Y-80855934D02*
X182332120Y-80936746D01*
X182332120Y-80936746D02*
X182332120Y-80990621D01*
X182332120Y-80990621D02*
X182359057Y-81071433D01*
X182359057Y-81071433D02*
X182439870Y-81152245D01*
X182439870Y-81152245D02*
X182520682Y-81179182D01*
X182520682Y-81179182D02*
X182574557Y-81179182D01*
X182574557Y-81179182D02*
X182655369Y-81152245D01*
X182655369Y-81152245D02*
X182870868Y-80936746D01*
X182278245Y-82068117D02*
X182601494Y-81744868D01*
X182439870Y-81906492D02*
X181874184Y-81340807D01*
X181874184Y-81340807D02*
X182008871Y-81367744D01*
X182008871Y-81367744D02*
X182116621Y-81367744D01*
X182116621Y-81367744D02*
X182197433Y-81340807D01*
X181227686Y-81987305D02*
X181335436Y-81879555D01*
X181335436Y-81879555D02*
X181416248Y-81852618D01*
X181416248Y-81852618D02*
X181470123Y-81852618D01*
X181470123Y-81852618D02*
X181604810Y-81879555D01*
X181604810Y-81879555D02*
X181739497Y-81960367D01*
X181739497Y-81960367D02*
X181954996Y-82175866D01*
X181954996Y-82175866D02*
X181981934Y-82256679D01*
X181981934Y-82256679D02*
X181981934Y-82310553D01*
X181981934Y-82310553D02*
X181954996Y-82391366D01*
X181954996Y-82391366D02*
X181847247Y-82499115D01*
X181847247Y-82499115D02*
X181766434Y-82526053D01*
X181766434Y-82526053D02*
X181712560Y-82526053D01*
X181712560Y-82526053D02*
X181631747Y-82499115D01*
X181631747Y-82499115D02*
X181497060Y-82364428D01*
X181497060Y-82364428D02*
X181470123Y-82283616D01*
X181470123Y-82283616D02*
X181470123Y-82229741D01*
X181470123Y-82229741D02*
X181497060Y-82148929D01*
X181497060Y-82148929D02*
X181604810Y-82041179D01*
X181604810Y-82041179D02*
X181685622Y-82014242D01*
X181685622Y-82014242D02*
X181739497Y-82014242D01*
X181739497Y-82014242D02*
X181820309Y-82041179D01*
X147884049Y-80455064D02*
X147614675Y-80724438D01*
X148099549Y-80562813D02*
X147345301Y-80185690D01*
X147345301Y-80185690D02*
X147722425Y-80939937D01*
X147533863Y-81128499D02*
X146968178Y-80562813D01*
X146968178Y-80562813D02*
X146833491Y-80697500D01*
X146833491Y-80697500D02*
X146779616Y-80805250D01*
X146779616Y-80805250D02*
X146779616Y-80912999D01*
X146779616Y-80912999D02*
X146806553Y-80993812D01*
X146806553Y-80993812D02*
X146887366Y-81128499D01*
X146887366Y-81128499D02*
X146968178Y-81209311D01*
X146968178Y-81209311D02*
X147102865Y-81290123D01*
X147102865Y-81290123D02*
X147183677Y-81317060D01*
X147183677Y-81317060D02*
X147291427Y-81317060D01*
X147291427Y-81317060D02*
X147399176Y-81263186D01*
X147399176Y-81263186D02*
X147533863Y-81128499D01*
X146591054Y-81963558D02*
X146644929Y-81963558D01*
X146644929Y-81963558D02*
X146752679Y-81909683D01*
X146752679Y-81909683D02*
X146806553Y-81855808D01*
X146806553Y-81855808D02*
X146860428Y-81748059D01*
X146860428Y-81748059D02*
X146860428Y-81640309D01*
X146860428Y-81640309D02*
X146833491Y-81559497D01*
X146833491Y-81559497D02*
X146752679Y-81424810D01*
X146752679Y-81424810D02*
X146671866Y-81343998D01*
X146671866Y-81343998D02*
X146537179Y-81263186D01*
X146537179Y-81263186D02*
X146456367Y-81236248D01*
X146456367Y-81236248D02*
X146348618Y-81236248D01*
X146348618Y-81236248D02*
X146240868Y-81290123D01*
X146240868Y-81290123D02*
X146186993Y-81343998D01*
X146186993Y-81343998D02*
X146133118Y-81451747D01*
X146133118Y-81451747D02*
X146133118Y-81505622D01*
X146591054Y-82179057D02*
X146160056Y-82610056D01*
X145486621Y-82044370D02*
X145863744Y-82798618D01*
X145863744Y-82798618D02*
X145109497Y-82421494D01*
X145163372Y-83498990D02*
X145082560Y-83041054D01*
X145486621Y-83175741D02*
X144920935Y-82610056D01*
X144920935Y-82610056D02*
X144705436Y-82825555D01*
X144705436Y-82825555D02*
X144678499Y-82906367D01*
X144678499Y-82906367D02*
X144678499Y-82960242D01*
X144678499Y-82960242D02*
X144705436Y-83041054D01*
X144705436Y-83041054D02*
X144786248Y-83121866D01*
X144786248Y-83121866D02*
X144867061Y-83148804D01*
X144867061Y-83148804D02*
X144920935Y-83148804D01*
X144920935Y-83148804D02*
X145001748Y-83121866D01*
X145001748Y-83121866D02*
X145217247Y-82906367D01*
X144624624Y-83445115D02*
X144436062Y-83633677D01*
X144651561Y-84010800D02*
X144920935Y-83741426D01*
X144920935Y-83741426D02*
X144355250Y-83175741D01*
X144355250Y-83175741D02*
X144085876Y-83445115D01*
X143924251Y-84145488D02*
X144112813Y-83956926D01*
X144409125Y-84253237D02*
X143843439Y-83687552D01*
X143843439Y-83687552D02*
X143574065Y-83956926D01*
X180330868Y-80397998D02*
X180357805Y-80317185D01*
X180357805Y-80317185D02*
X180438618Y-80236373D01*
X180438618Y-80236373D02*
X180546367Y-80182498D01*
X180546367Y-80182498D02*
X180654117Y-80182498D01*
X180654117Y-80182498D02*
X180734929Y-80209436D01*
X180734929Y-80209436D02*
X180869616Y-80290248D01*
X180869616Y-80290248D02*
X180950428Y-80371060D01*
X180950428Y-80371060D02*
X181031241Y-80505747D01*
X181031241Y-80505747D02*
X181058178Y-80586560D01*
X181058178Y-80586560D02*
X181058178Y-80694309D01*
X181058178Y-80694309D02*
X181004303Y-80802059D01*
X181004303Y-80802059D02*
X180950428Y-80855934D01*
X180950428Y-80855934D02*
X180842679Y-80909808D01*
X180842679Y-80909808D02*
X180788804Y-80909808D01*
X180788804Y-80909808D02*
X180600242Y-80721247D01*
X180600242Y-80721247D02*
X180707992Y-80613497D01*
X180600242Y-81206120D02*
X180034557Y-80640434D01*
X180034557Y-80640434D02*
X179819057Y-80855934D01*
X179819057Y-80855934D02*
X179792120Y-80936746D01*
X179792120Y-80936746D02*
X179792120Y-80990621D01*
X179792120Y-80990621D02*
X179819057Y-81071433D01*
X179819057Y-81071433D02*
X179899870Y-81152245D01*
X179899870Y-81152245D02*
X179980682Y-81179182D01*
X179980682Y-81179182D02*
X180034557Y-81179182D01*
X180034557Y-81179182D02*
X180115369Y-81152245D01*
X180115369Y-81152245D02*
X180330868Y-80936746D01*
X179738245Y-82068117D02*
X180061494Y-81744868D01*
X179899870Y-81906492D02*
X179334184Y-81340807D01*
X179334184Y-81340807D02*
X179468871Y-81367744D01*
X179468871Y-81367744D02*
X179576621Y-81367744D01*
X179576621Y-81367744D02*
X179657433Y-81340807D01*
X178983998Y-81690993D02*
X178606874Y-82068117D01*
X178606874Y-82068117D02*
X179414996Y-82391366D01*
X182870868Y-54289998D02*
X182897805Y-54209185D01*
X182897805Y-54209185D02*
X182978618Y-54128373D01*
X182978618Y-54128373D02*
X183086367Y-54074498D01*
X183086367Y-54074498D02*
X183194117Y-54074498D01*
X183194117Y-54074498D02*
X183274929Y-54101436D01*
X183274929Y-54101436D02*
X183409616Y-54182248D01*
X183409616Y-54182248D02*
X183490428Y-54263060D01*
X183490428Y-54263060D02*
X183571241Y-54397747D01*
X183571241Y-54397747D02*
X183598178Y-54478560D01*
X183598178Y-54478560D02*
X183598178Y-54586309D01*
X183598178Y-54586309D02*
X183544303Y-54694059D01*
X183544303Y-54694059D02*
X183490428Y-54747934D01*
X183490428Y-54747934D02*
X183382679Y-54801808D01*
X183382679Y-54801808D02*
X183328804Y-54801808D01*
X183328804Y-54801808D02*
X183140242Y-54613247D01*
X183140242Y-54613247D02*
X183247992Y-54505497D01*
X183140242Y-55098120D02*
X182574557Y-54532434D01*
X182574557Y-54532434D02*
X182359057Y-54747934D01*
X182359057Y-54747934D02*
X182332120Y-54828746D01*
X182332120Y-54828746D02*
X182332120Y-54882621D01*
X182332120Y-54882621D02*
X182359057Y-54963433D01*
X182359057Y-54963433D02*
X182439870Y-55044245D01*
X182439870Y-55044245D02*
X182520682Y-55071182D01*
X182520682Y-55071182D02*
X182574557Y-55071182D01*
X182574557Y-55071182D02*
X182655369Y-55044245D01*
X182655369Y-55044245D02*
X182870868Y-54828746D01*
X182278245Y-55960117D02*
X182601494Y-55636868D01*
X182439870Y-55798492D02*
X181874184Y-55232807D01*
X181874184Y-55232807D02*
X182008871Y-55259744D01*
X182008871Y-55259744D02*
X182116621Y-55259744D01*
X182116621Y-55259744D02*
X182197433Y-55232807D01*
X181200749Y-55906242D02*
X181470123Y-55636868D01*
X181470123Y-55636868D02*
X181766434Y-55879305D01*
X181766434Y-55879305D02*
X181712560Y-55879305D01*
X181712560Y-55879305D02*
X181631747Y-55906242D01*
X181631747Y-55906242D02*
X181497060Y-56040929D01*
X181497060Y-56040929D02*
X181470123Y-56121741D01*
X181470123Y-56121741D02*
X181470123Y-56175616D01*
X181470123Y-56175616D02*
X181497060Y-56256428D01*
X181497060Y-56256428D02*
X181631747Y-56391115D01*
X181631747Y-56391115D02*
X181712560Y-56418053D01*
X181712560Y-56418053D02*
X181766434Y-56418053D01*
X181766434Y-56418053D02*
X181847247Y-56391115D01*
X181847247Y-56391115D02*
X181981934Y-56256428D01*
X181981934Y-56256428D02*
X182008871Y-56175616D01*
X182008871Y-56175616D02*
X182008871Y-56121741D01*
X177548431Y-54786435D02*
X177575368Y-54705623D01*
X177575368Y-54705623D02*
X177656180Y-54624811D01*
X177656180Y-54624811D02*
X177763930Y-54570936D01*
X177763930Y-54570936D02*
X177871680Y-54570936D01*
X177871680Y-54570936D02*
X177952492Y-54597873D01*
X177952492Y-54597873D02*
X178087179Y-54678685D01*
X178087179Y-54678685D02*
X178167991Y-54759498D01*
X178167991Y-54759498D02*
X178248803Y-54894185D01*
X178248803Y-54894185D02*
X178275741Y-54974997D01*
X178275741Y-54974997D02*
X178275741Y-55082746D01*
X178275741Y-55082746D02*
X178221866Y-55190496D01*
X178221866Y-55190496D02*
X178167991Y-55244371D01*
X178167991Y-55244371D02*
X178060241Y-55298246D01*
X178060241Y-55298246D02*
X178006367Y-55298246D01*
X178006367Y-55298246D02*
X177817805Y-55109684D01*
X177817805Y-55109684D02*
X177925554Y-55001934D01*
X177817805Y-55594557D02*
X177252119Y-55028872D01*
X177252119Y-55028872D02*
X177494556Y-55917806D01*
X177494556Y-55917806D02*
X176928871Y-55352120D01*
X177225182Y-56187180D02*
X176659497Y-55621494D01*
X176659497Y-55621494D02*
X176524810Y-55756181D01*
X176524810Y-55756181D02*
X176470935Y-55863931D01*
X176470935Y-55863931D02*
X176470935Y-55971680D01*
X176470935Y-55971680D02*
X176497872Y-56052493D01*
X176497872Y-56052493D02*
X176578685Y-56187180D01*
X176578685Y-56187180D02*
X176659497Y-56267992D01*
X176659497Y-56267992D02*
X176794184Y-56348804D01*
X176794184Y-56348804D02*
X176874996Y-56375741D01*
X176874996Y-56375741D02*
X176982746Y-56375741D01*
X176982746Y-56375741D02*
X177090495Y-56321867D01*
X177090495Y-56321867D02*
X177225182Y-56187180D01*
X144840868Y-80190123D02*
X144490682Y-80540309D01*
X144490682Y-80540309D02*
X144894743Y-80567247D01*
X144894743Y-80567247D02*
X144813931Y-80648059D01*
X144813931Y-80648059D02*
X144786993Y-80728871D01*
X144786993Y-80728871D02*
X144786993Y-80782746D01*
X144786993Y-80782746D02*
X144813931Y-80863558D01*
X144813931Y-80863558D02*
X144948618Y-80998245D01*
X144948618Y-80998245D02*
X145029430Y-81025182D01*
X145029430Y-81025182D02*
X145083305Y-81025182D01*
X145083305Y-81025182D02*
X145164117Y-80998245D01*
X145164117Y-80998245D02*
X145325741Y-80836621D01*
X145325741Y-80836621D02*
X145352679Y-80755808D01*
X145352679Y-80755808D02*
X145352679Y-80701934D01*
X144329057Y-80701934D02*
X144706181Y-81456181D01*
X144706181Y-81456181D02*
X143951934Y-81079057D01*
X143817247Y-81213744D02*
X143467061Y-81563930D01*
X143467061Y-81563930D02*
X143871122Y-81590868D01*
X143871122Y-81590868D02*
X143790309Y-81671680D01*
X143790309Y-81671680D02*
X143763372Y-81752492D01*
X143763372Y-81752492D02*
X143763372Y-81806367D01*
X143763372Y-81806367D02*
X143790309Y-81887179D01*
X143790309Y-81887179D02*
X143924996Y-82021866D01*
X143924996Y-82021866D02*
X144005809Y-82048804D01*
X144005809Y-82048804D02*
X144059683Y-82048804D01*
X144059683Y-82048804D02*
X144140496Y-82021866D01*
X144140496Y-82021866D02*
X144302120Y-81860242D01*
X144302120Y-81860242D02*
X144329057Y-81779430D01*
X144329057Y-81779430D02*
X144329057Y-81725555D01*
X137420242Y-80220749D02*
X137797366Y-80974996D01*
X137797366Y-80974996D02*
X137043118Y-80597873D01*
X137420242Y-81298245D02*
X137366367Y-81405995D01*
X137366367Y-81405995D02*
X137231680Y-81540682D01*
X137231680Y-81540682D02*
X137150868Y-81567619D01*
X137150868Y-81567619D02*
X137096993Y-81567619D01*
X137096993Y-81567619D02*
X137016181Y-81540682D01*
X137016181Y-81540682D02*
X136962306Y-81486807D01*
X136962306Y-81486807D02*
X136935369Y-81405995D01*
X136935369Y-81405995D02*
X136935369Y-81352120D01*
X136935369Y-81352120D02*
X136962306Y-81271308D01*
X136962306Y-81271308D02*
X137043118Y-81136621D01*
X137043118Y-81136621D02*
X137070056Y-81055808D01*
X137070056Y-81055808D02*
X137070056Y-81001934D01*
X137070056Y-81001934D02*
X137043118Y-80921121D01*
X137043118Y-80921121D02*
X136989244Y-80867247D01*
X136989244Y-80867247D02*
X136908431Y-80840309D01*
X136908431Y-80840309D02*
X136854557Y-80840309D01*
X136854557Y-80840309D02*
X136773744Y-80867247D01*
X136773744Y-80867247D02*
X136639057Y-81001934D01*
X136639057Y-81001934D02*
X136585183Y-81109683D01*
X136504370Y-81729244D02*
X136773744Y-81998618D01*
X136396621Y-81244370D02*
X136504370Y-81729244D01*
X136504370Y-81729244D02*
X136019497Y-81621494D01*
X136396621Y-82321866D02*
X136342746Y-82429616D01*
X136342746Y-82429616D02*
X136208059Y-82564303D01*
X136208059Y-82564303D02*
X136127247Y-82591240D01*
X136127247Y-82591240D02*
X136073372Y-82591240D01*
X136073372Y-82591240D02*
X135992560Y-82564303D01*
X135992560Y-82564303D02*
X135938685Y-82510428D01*
X135938685Y-82510428D02*
X135911748Y-82429616D01*
X135911748Y-82429616D02*
X135911748Y-82375741D01*
X135911748Y-82375741D02*
X135938685Y-82294929D01*
X135938685Y-82294929D02*
X136019497Y-82160242D01*
X136019497Y-82160242D02*
X136046435Y-82079430D01*
X136046435Y-82079430D02*
X136046435Y-82025555D01*
X136046435Y-82025555D02*
X136019497Y-81944743D01*
X136019497Y-81944743D02*
X135965622Y-81890868D01*
X135965622Y-81890868D02*
X135884810Y-81863930D01*
X135884810Y-81863930D02*
X135830935Y-81863930D01*
X135830935Y-81863930D02*
X135750123Y-81890868D01*
X135750123Y-81890868D02*
X135615436Y-82025555D01*
X135615436Y-82025555D02*
X135561561Y-82133304D01*
X149581494Y-54813372D02*
X149608431Y-54732560D01*
X149608431Y-54732560D02*
X149689243Y-54651748D01*
X149689243Y-54651748D02*
X149796993Y-54597873D01*
X149796993Y-54597873D02*
X149904742Y-54597873D01*
X149904742Y-54597873D02*
X149985555Y-54624810D01*
X149985555Y-54624810D02*
X150120242Y-54705623D01*
X150120242Y-54705623D02*
X150201054Y-54786435D01*
X150201054Y-54786435D02*
X150281866Y-54921122D01*
X150281866Y-54921122D02*
X150308803Y-55001934D01*
X150308803Y-55001934D02*
X150308803Y-55109684D01*
X150308803Y-55109684D02*
X150254929Y-55217433D01*
X150254929Y-55217433D02*
X150201054Y-55271308D01*
X150201054Y-55271308D02*
X150093304Y-55325183D01*
X150093304Y-55325183D02*
X150039429Y-55325183D01*
X150039429Y-55325183D02*
X149850868Y-55136621D01*
X149850868Y-55136621D02*
X149958617Y-55028871D01*
X149850868Y-55621494D02*
X149285182Y-55055809D01*
X149285182Y-55055809D02*
X149069683Y-55271308D01*
X149069683Y-55271308D02*
X149042746Y-55352120D01*
X149042746Y-55352120D02*
X149042746Y-55405995D01*
X149042746Y-55405995D02*
X149069683Y-55486807D01*
X149069683Y-55486807D02*
X149150495Y-55567619D01*
X149150495Y-55567619D02*
X149231307Y-55594557D01*
X149231307Y-55594557D02*
X149285182Y-55594557D01*
X149285182Y-55594557D02*
X149365994Y-55567619D01*
X149365994Y-55567619D02*
X149581494Y-55352120D01*
X148450123Y-55890868D02*
X148719497Y-55621494D01*
X148719497Y-55621494D02*
X149015808Y-55863931D01*
X149015808Y-55863931D02*
X148961933Y-55863931D01*
X148961933Y-55863931D02*
X148881121Y-55890868D01*
X148881121Y-55890868D02*
X148746434Y-56025555D01*
X148746434Y-56025555D02*
X148719497Y-56106367D01*
X148719497Y-56106367D02*
X148719497Y-56160242D01*
X148719497Y-56160242D02*
X148746434Y-56241054D01*
X148746434Y-56241054D02*
X148881121Y-56375741D01*
X148881121Y-56375741D02*
X148961933Y-56402679D01*
X148961933Y-56402679D02*
X149015808Y-56402679D01*
X149015808Y-56402679D02*
X149096620Y-56375741D01*
X149096620Y-56375741D02*
X149231307Y-56241054D01*
X149231307Y-56241054D02*
X149258245Y-56160242D01*
X149258245Y-56160242D02*
X149258245Y-56106367D01*
X160293710Y-81138651D02*
X160212898Y-80680716D01*
X160616959Y-80815403D02*
X160051274Y-80249717D01*
X160051274Y-80249717D02*
X159835775Y-80465216D01*
X159835775Y-80465216D02*
X159808837Y-80546029D01*
X159808837Y-80546029D02*
X159808837Y-80599903D01*
X159808837Y-80599903D02*
X159835775Y-80680716D01*
X159835775Y-80680716D02*
X159916587Y-80761528D01*
X159916587Y-80761528D02*
X159997399Y-80788465D01*
X159997399Y-80788465D02*
X160051274Y-80788465D01*
X160051274Y-80788465D02*
X160132086Y-80761528D01*
X160132086Y-80761528D02*
X160347585Y-80546029D01*
X159485588Y-80815403D02*
X159943524Y-81273338D01*
X159943524Y-81273338D02*
X159970462Y-81354151D01*
X159970462Y-81354151D02*
X159970462Y-81408025D01*
X159970462Y-81408025D02*
X159943524Y-81488838D01*
X159943524Y-81488838D02*
X159835775Y-81596587D01*
X159835775Y-81596587D02*
X159754962Y-81623525D01*
X159754962Y-81623525D02*
X159701088Y-81623525D01*
X159701088Y-81623525D02*
X159620275Y-81596587D01*
X159620275Y-81596587D02*
X159162340Y-81138651D01*
X159458651Y-81973711D02*
X158892966Y-81408025D01*
X158892966Y-81408025D02*
X159135402Y-82296959D01*
X159135402Y-82296959D02*
X158569717Y-81731274D01*
X175250868Y-54289998D02*
X175277805Y-54209185D01*
X175277805Y-54209185D02*
X175358618Y-54128373D01*
X175358618Y-54128373D02*
X175466367Y-54074498D01*
X175466367Y-54074498D02*
X175574117Y-54074498D01*
X175574117Y-54074498D02*
X175654929Y-54101436D01*
X175654929Y-54101436D02*
X175789616Y-54182248D01*
X175789616Y-54182248D02*
X175870428Y-54263060D01*
X175870428Y-54263060D02*
X175951241Y-54397747D01*
X175951241Y-54397747D02*
X175978178Y-54478560D01*
X175978178Y-54478560D02*
X175978178Y-54586309D01*
X175978178Y-54586309D02*
X175924303Y-54694059D01*
X175924303Y-54694059D02*
X175870428Y-54747934D01*
X175870428Y-54747934D02*
X175762679Y-54801808D01*
X175762679Y-54801808D02*
X175708804Y-54801808D01*
X175708804Y-54801808D02*
X175520242Y-54613247D01*
X175520242Y-54613247D02*
X175627992Y-54505497D01*
X175520242Y-55098120D02*
X174954557Y-54532434D01*
X174954557Y-54532434D02*
X174739057Y-54747934D01*
X174739057Y-54747934D02*
X174712120Y-54828746D01*
X174712120Y-54828746D02*
X174712120Y-54882621D01*
X174712120Y-54882621D02*
X174739057Y-54963433D01*
X174739057Y-54963433D02*
X174819870Y-55044245D01*
X174819870Y-55044245D02*
X174900682Y-55071182D01*
X174900682Y-55071182D02*
X174954557Y-55071182D01*
X174954557Y-55071182D02*
X175035369Y-55044245D01*
X175035369Y-55044245D02*
X175250868Y-54828746D01*
X174658245Y-55960117D02*
X174981494Y-55636868D01*
X174819870Y-55798492D02*
X174254184Y-55232807D01*
X174254184Y-55232807D02*
X174388871Y-55259744D01*
X174388871Y-55259744D02*
X174496621Y-55259744D01*
X174496621Y-55259744D02*
X174577433Y-55232807D01*
X173903998Y-55582993D02*
X173553812Y-55933179D01*
X173553812Y-55933179D02*
X173957873Y-55960117D01*
X173957873Y-55960117D02*
X173877060Y-56040929D01*
X173877060Y-56040929D02*
X173850123Y-56121741D01*
X173850123Y-56121741D02*
X173850123Y-56175616D01*
X173850123Y-56175616D02*
X173877060Y-56256428D01*
X173877060Y-56256428D02*
X174011747Y-56391115D01*
X174011747Y-56391115D02*
X174092560Y-56418053D01*
X174092560Y-56418053D02*
X174146434Y-56418053D01*
X174146434Y-56418053D02*
X174227247Y-56391115D01*
X174227247Y-56391115D02*
X174388871Y-56229491D01*
X174388871Y-56229491D02*
X174415808Y-56148679D01*
X174415808Y-56148679D02*
X174415808Y-56094804D01*
X164848431Y-54786435D02*
X164875368Y-54705623D01*
X164875368Y-54705623D02*
X164956180Y-54624811D01*
X164956180Y-54624811D02*
X165063930Y-54570936D01*
X165063930Y-54570936D02*
X165171680Y-54570936D01*
X165171680Y-54570936D02*
X165252492Y-54597873D01*
X165252492Y-54597873D02*
X165387179Y-54678685D01*
X165387179Y-54678685D02*
X165467991Y-54759498D01*
X165467991Y-54759498D02*
X165548803Y-54894185D01*
X165548803Y-54894185D02*
X165575741Y-54974997D01*
X165575741Y-54974997D02*
X165575741Y-55082746D01*
X165575741Y-55082746D02*
X165521866Y-55190496D01*
X165521866Y-55190496D02*
X165467991Y-55244371D01*
X165467991Y-55244371D02*
X165360241Y-55298246D01*
X165360241Y-55298246D02*
X165306367Y-55298246D01*
X165306367Y-55298246D02*
X165117805Y-55109684D01*
X165117805Y-55109684D02*
X165225554Y-55001934D01*
X165117805Y-55594557D02*
X164552119Y-55028872D01*
X164552119Y-55028872D02*
X164794556Y-55917806D01*
X164794556Y-55917806D02*
X164228871Y-55352120D01*
X164525182Y-56187180D02*
X163959497Y-55621494D01*
X163959497Y-55621494D02*
X163824810Y-55756181D01*
X163824810Y-55756181D02*
X163770935Y-55863931D01*
X163770935Y-55863931D02*
X163770935Y-55971680D01*
X163770935Y-55971680D02*
X163797872Y-56052493D01*
X163797872Y-56052493D02*
X163878685Y-56187180D01*
X163878685Y-56187180D02*
X163959497Y-56267992D01*
X163959497Y-56267992D02*
X164094184Y-56348804D01*
X164094184Y-56348804D02*
X164174996Y-56375741D01*
X164174996Y-56375741D02*
X164282746Y-56375741D01*
X164282746Y-56375741D02*
X164390495Y-56321867D01*
X164390495Y-56321867D02*
X164525182Y-56187180D01*
X142308584Y-80222407D02*
X141958398Y-80572593D01*
X141958398Y-80572593D02*
X142362459Y-80599531D01*
X142362459Y-80599531D02*
X142281646Y-80680343D01*
X142281646Y-80680343D02*
X142254709Y-80761155D01*
X142254709Y-80761155D02*
X142254709Y-80815030D01*
X142254709Y-80815030D02*
X142281646Y-80895842D01*
X142281646Y-80895842D02*
X142416333Y-81030529D01*
X142416333Y-81030529D02*
X142497146Y-81057467D01*
X142497146Y-81057467D02*
X142551020Y-81057467D01*
X142551020Y-81057467D02*
X142631833Y-81030529D01*
X142631833Y-81030529D02*
X142793457Y-80868905D01*
X142793457Y-80868905D02*
X142820394Y-80788093D01*
X142820394Y-80788093D02*
X142820394Y-80734218D01*
X141796773Y-80734218D02*
X142173897Y-81488465D01*
X142173897Y-81488465D02*
X141419649Y-81111342D01*
X141284963Y-81246028D02*
X140934776Y-81596215D01*
X140934776Y-81596215D02*
X141338837Y-81623152D01*
X141338837Y-81623152D02*
X141258025Y-81703964D01*
X141258025Y-81703964D02*
X141231088Y-81784776D01*
X141231088Y-81784776D02*
X141231088Y-81838651D01*
X141231088Y-81838651D02*
X141258025Y-81919464D01*
X141258025Y-81919464D02*
X141392712Y-82054151D01*
X141392712Y-82054151D02*
X141473524Y-82081088D01*
X141473524Y-82081088D02*
X141527399Y-82081088D01*
X141527399Y-82081088D02*
X141608211Y-82054151D01*
X141608211Y-82054151D02*
X141769836Y-81892526D01*
X141769836Y-81892526D02*
X141796773Y-81811714D01*
X141796773Y-81811714D02*
X141796773Y-81757839D01*
X141446587Y-82323525D02*
X141015588Y-82754523D01*
X140530715Y-82539024D02*
X140342153Y-82727586D01*
X140557652Y-83104709D02*
X140827026Y-82835335D01*
X140827026Y-82835335D02*
X140261341Y-82269650D01*
X140261341Y-82269650D02*
X139991967Y-82539024D01*
X140315215Y-83347146D02*
X139749530Y-82781461D01*
X139749530Y-82781461D02*
X139991967Y-83670395D01*
X139991967Y-83670395D02*
X139426281Y-83104710D01*
X139448431Y-54786435D02*
X139475368Y-54705623D01*
X139475368Y-54705623D02*
X139556180Y-54624811D01*
X139556180Y-54624811D02*
X139663930Y-54570936D01*
X139663930Y-54570936D02*
X139771680Y-54570936D01*
X139771680Y-54570936D02*
X139852492Y-54597873D01*
X139852492Y-54597873D02*
X139987179Y-54678685D01*
X139987179Y-54678685D02*
X140067991Y-54759498D01*
X140067991Y-54759498D02*
X140148803Y-54894185D01*
X140148803Y-54894185D02*
X140175741Y-54974997D01*
X140175741Y-54974997D02*
X140175741Y-55082746D01*
X140175741Y-55082746D02*
X140121866Y-55190496D01*
X140121866Y-55190496D02*
X140067991Y-55244371D01*
X140067991Y-55244371D02*
X139960241Y-55298246D01*
X139960241Y-55298246D02*
X139906367Y-55298246D01*
X139906367Y-55298246D02*
X139717805Y-55109684D01*
X139717805Y-55109684D02*
X139825554Y-55001934D01*
X139717805Y-55594557D02*
X139152119Y-55028872D01*
X139152119Y-55028872D02*
X139394556Y-55917806D01*
X139394556Y-55917806D02*
X138828871Y-55352120D01*
X139125182Y-56187180D02*
X138559497Y-55621494D01*
X138559497Y-55621494D02*
X138424810Y-55756181D01*
X138424810Y-55756181D02*
X138370935Y-55863931D01*
X138370935Y-55863931D02*
X138370935Y-55971680D01*
X138370935Y-55971680D02*
X138397872Y-56052493D01*
X138397872Y-56052493D02*
X138478685Y-56187180D01*
X138478685Y-56187180D02*
X138559497Y-56267992D01*
X138559497Y-56267992D02*
X138694184Y-56348804D01*
X138694184Y-56348804D02*
X138774996Y-56375741D01*
X138774996Y-56375741D02*
X138882746Y-56375741D01*
X138882746Y-56375741D02*
X138990495Y-56321867D01*
X138990495Y-56321867D02*
X139125182Y-56187180D01*
X175250868Y-80397998D02*
X175277805Y-80317185D01*
X175277805Y-80317185D02*
X175358618Y-80236373D01*
X175358618Y-80236373D02*
X175466367Y-80182498D01*
X175466367Y-80182498D02*
X175574117Y-80182498D01*
X175574117Y-80182498D02*
X175654929Y-80209436D01*
X175654929Y-80209436D02*
X175789616Y-80290248D01*
X175789616Y-80290248D02*
X175870428Y-80371060D01*
X175870428Y-80371060D02*
X175951241Y-80505747D01*
X175951241Y-80505747D02*
X175978178Y-80586560D01*
X175978178Y-80586560D02*
X175978178Y-80694309D01*
X175978178Y-80694309D02*
X175924303Y-80802059D01*
X175924303Y-80802059D02*
X175870428Y-80855934D01*
X175870428Y-80855934D02*
X175762679Y-80909808D01*
X175762679Y-80909808D02*
X175708804Y-80909808D01*
X175708804Y-80909808D02*
X175520242Y-80721247D01*
X175520242Y-80721247D02*
X175627992Y-80613497D01*
X175520242Y-81206120D02*
X174954557Y-80640434D01*
X174954557Y-80640434D02*
X174739057Y-80855934D01*
X174739057Y-80855934D02*
X174712120Y-80936746D01*
X174712120Y-80936746D02*
X174712120Y-80990621D01*
X174712120Y-80990621D02*
X174739057Y-81071433D01*
X174739057Y-81071433D02*
X174819870Y-81152245D01*
X174819870Y-81152245D02*
X174900682Y-81179182D01*
X174900682Y-81179182D02*
X174954557Y-81179182D01*
X174954557Y-81179182D02*
X175035369Y-81152245D01*
X175035369Y-81152245D02*
X175250868Y-80936746D01*
X174658245Y-82068117D02*
X174981494Y-81744868D01*
X174819870Y-81906492D02*
X174254184Y-81340807D01*
X174254184Y-81340807D02*
X174388871Y-81367744D01*
X174388871Y-81367744D02*
X174496621Y-81367744D01*
X174496621Y-81367744D02*
X174577433Y-81340807D01*
X174011747Y-82068117D02*
X174038685Y-81987305D01*
X174038685Y-81987305D02*
X174038685Y-81933430D01*
X174038685Y-81933430D02*
X174011747Y-81852618D01*
X174011747Y-81852618D02*
X173984810Y-81825680D01*
X173984810Y-81825680D02*
X173903998Y-81798743D01*
X173903998Y-81798743D02*
X173850123Y-81798743D01*
X173850123Y-81798743D02*
X173769311Y-81825680D01*
X173769311Y-81825680D02*
X173661561Y-81933430D01*
X173661561Y-81933430D02*
X173634624Y-82014242D01*
X173634624Y-82014242D02*
X173634624Y-82068117D01*
X173634624Y-82068117D02*
X173661561Y-82148929D01*
X173661561Y-82148929D02*
X173688499Y-82175866D01*
X173688499Y-82175866D02*
X173769311Y-82202804D01*
X173769311Y-82202804D02*
X173823186Y-82202804D01*
X173823186Y-82202804D02*
X173903998Y-82175866D01*
X173903998Y-82175866D02*
X174011747Y-82068117D01*
X174011747Y-82068117D02*
X174092560Y-82041179D01*
X174092560Y-82041179D02*
X174146434Y-82041179D01*
X174146434Y-82041179D02*
X174227247Y-82068117D01*
X174227247Y-82068117D02*
X174334996Y-82175866D01*
X174334996Y-82175866D02*
X174361934Y-82256679D01*
X174361934Y-82256679D02*
X174361934Y-82310553D01*
X174361934Y-82310553D02*
X174334996Y-82391366D01*
X174334996Y-82391366D02*
X174227247Y-82499115D01*
X174227247Y-82499115D02*
X174146434Y-82526053D01*
X174146434Y-82526053D02*
X174092560Y-82526053D01*
X174092560Y-82526053D02*
X174011747Y-82499115D01*
X174011747Y-82499115D02*
X173903998Y-82391366D01*
X173903998Y-82391366D02*
X173877060Y-82310553D01*
X173877060Y-82310553D02*
X173877060Y-82256679D01*
X173877060Y-82256679D02*
X173903998Y-82175866D01*
X170170868Y-80397998D02*
X170197805Y-80317185D01*
X170197805Y-80317185D02*
X170278618Y-80236373D01*
X170278618Y-80236373D02*
X170386367Y-80182498D01*
X170386367Y-80182498D02*
X170494117Y-80182498D01*
X170494117Y-80182498D02*
X170574929Y-80209436D01*
X170574929Y-80209436D02*
X170709616Y-80290248D01*
X170709616Y-80290248D02*
X170790428Y-80371060D01*
X170790428Y-80371060D02*
X170871241Y-80505747D01*
X170871241Y-80505747D02*
X170898178Y-80586560D01*
X170898178Y-80586560D02*
X170898178Y-80694309D01*
X170898178Y-80694309D02*
X170844303Y-80802059D01*
X170844303Y-80802059D02*
X170790428Y-80855934D01*
X170790428Y-80855934D02*
X170682679Y-80909808D01*
X170682679Y-80909808D02*
X170628804Y-80909808D01*
X170628804Y-80909808D02*
X170440242Y-80721247D01*
X170440242Y-80721247D02*
X170547992Y-80613497D01*
X170440242Y-81206120D02*
X169874557Y-80640434D01*
X169874557Y-80640434D02*
X169659057Y-80855934D01*
X169659057Y-80855934D02*
X169632120Y-80936746D01*
X169632120Y-80936746D02*
X169632120Y-80990621D01*
X169632120Y-80990621D02*
X169659057Y-81071433D01*
X169659057Y-81071433D02*
X169739870Y-81152245D01*
X169739870Y-81152245D02*
X169820682Y-81179182D01*
X169820682Y-81179182D02*
X169874557Y-81179182D01*
X169874557Y-81179182D02*
X169955369Y-81152245D01*
X169955369Y-81152245D02*
X170170868Y-80936746D01*
X169389683Y-81233057D02*
X169335809Y-81233057D01*
X169335809Y-81233057D02*
X169254996Y-81259995D01*
X169254996Y-81259995D02*
X169120309Y-81394682D01*
X169120309Y-81394682D02*
X169093372Y-81475494D01*
X169093372Y-81475494D02*
X169093372Y-81529369D01*
X169093372Y-81529369D02*
X169120309Y-81610181D01*
X169120309Y-81610181D02*
X169174184Y-81664056D01*
X169174184Y-81664056D02*
X169281934Y-81717930D01*
X169281934Y-81717930D02*
X169928431Y-81717930D01*
X169928431Y-81717930D02*
X169578245Y-82068117D01*
X168662373Y-81852618D02*
X168608499Y-81906492D01*
X168608499Y-81906492D02*
X168581561Y-81987305D01*
X168581561Y-81987305D02*
X168581561Y-82041179D01*
X168581561Y-82041179D02*
X168608499Y-82121992D01*
X168608499Y-82121992D02*
X168689311Y-82256679D01*
X168689311Y-82256679D02*
X168823998Y-82391366D01*
X168823998Y-82391366D02*
X168958685Y-82472178D01*
X168958685Y-82472178D02*
X169039497Y-82499115D01*
X169039497Y-82499115D02*
X169093372Y-82499115D01*
X169093372Y-82499115D02*
X169174184Y-82472178D01*
X169174184Y-82472178D02*
X169228059Y-82418303D01*
X169228059Y-82418303D02*
X169254996Y-82337491D01*
X169254996Y-82337491D02*
X169254996Y-82283616D01*
X169254996Y-82283616D02*
X169228059Y-82202804D01*
X169228059Y-82202804D02*
X169147247Y-82068117D01*
X169147247Y-82068117D02*
X169012560Y-81933430D01*
X169012560Y-81933430D02*
X168877873Y-81852618D01*
X168877873Y-81852618D02*
X168797060Y-81825680D01*
X168797060Y-81825680D02*
X168743186Y-81825680D01*
X168743186Y-81825680D02*
X168662373Y-81852618D01*
X152148431Y-54786435D02*
X152175368Y-54705623D01*
X152175368Y-54705623D02*
X152256180Y-54624811D01*
X152256180Y-54624811D02*
X152363930Y-54570936D01*
X152363930Y-54570936D02*
X152471680Y-54570936D01*
X152471680Y-54570936D02*
X152552492Y-54597873D01*
X152552492Y-54597873D02*
X152687179Y-54678685D01*
X152687179Y-54678685D02*
X152767991Y-54759498D01*
X152767991Y-54759498D02*
X152848803Y-54894185D01*
X152848803Y-54894185D02*
X152875741Y-54974997D01*
X152875741Y-54974997D02*
X152875741Y-55082746D01*
X152875741Y-55082746D02*
X152821866Y-55190496D01*
X152821866Y-55190496D02*
X152767991Y-55244371D01*
X152767991Y-55244371D02*
X152660241Y-55298246D01*
X152660241Y-55298246D02*
X152606367Y-55298246D01*
X152606367Y-55298246D02*
X152417805Y-55109684D01*
X152417805Y-55109684D02*
X152525554Y-55001934D01*
X152417805Y-55594557D02*
X151852119Y-55028872D01*
X151852119Y-55028872D02*
X152094556Y-55917806D01*
X152094556Y-55917806D02*
X151528871Y-55352120D01*
X151825182Y-56187180D02*
X151259497Y-55621494D01*
X151259497Y-55621494D02*
X151124810Y-55756181D01*
X151124810Y-55756181D02*
X151070935Y-55863931D01*
X151070935Y-55863931D02*
X151070935Y-55971680D01*
X151070935Y-55971680D02*
X151097872Y-56052493D01*
X151097872Y-56052493D02*
X151178685Y-56187180D01*
X151178685Y-56187180D02*
X151259497Y-56267992D01*
X151259497Y-56267992D02*
X151394184Y-56348804D01*
X151394184Y-56348804D02*
X151474996Y-56375741D01*
X151474996Y-56375741D02*
X151582746Y-56375741D01*
X151582746Y-56375741D02*
X151690495Y-56321867D01*
X151690495Y-56321867D02*
X151825182Y-56187180D01*
X162281494Y-54813372D02*
X162308431Y-54732560D01*
X162308431Y-54732560D02*
X162389243Y-54651748D01*
X162389243Y-54651748D02*
X162496993Y-54597873D01*
X162496993Y-54597873D02*
X162604742Y-54597873D01*
X162604742Y-54597873D02*
X162685555Y-54624810D01*
X162685555Y-54624810D02*
X162820242Y-54705623D01*
X162820242Y-54705623D02*
X162901054Y-54786435D01*
X162901054Y-54786435D02*
X162981866Y-54921122D01*
X162981866Y-54921122D02*
X163008803Y-55001934D01*
X163008803Y-55001934D02*
X163008803Y-55109684D01*
X163008803Y-55109684D02*
X162954929Y-55217433D01*
X162954929Y-55217433D02*
X162901054Y-55271308D01*
X162901054Y-55271308D02*
X162793304Y-55325183D01*
X162793304Y-55325183D02*
X162739429Y-55325183D01*
X162739429Y-55325183D02*
X162550868Y-55136621D01*
X162550868Y-55136621D02*
X162658617Y-55028871D01*
X162550868Y-55621494D02*
X161985182Y-55055809D01*
X161985182Y-55055809D02*
X161769683Y-55271308D01*
X161769683Y-55271308D02*
X161742746Y-55352120D01*
X161742746Y-55352120D02*
X161742746Y-55405995D01*
X161742746Y-55405995D02*
X161769683Y-55486807D01*
X161769683Y-55486807D02*
X161850495Y-55567619D01*
X161850495Y-55567619D02*
X161931307Y-55594557D01*
X161931307Y-55594557D02*
X161985182Y-55594557D01*
X161985182Y-55594557D02*
X162065994Y-55567619D01*
X162065994Y-55567619D02*
X162281494Y-55352120D01*
X161958245Y-56214117D02*
X161850495Y-56321867D01*
X161850495Y-56321867D02*
X161769683Y-56348804D01*
X161769683Y-56348804D02*
X161715808Y-56348804D01*
X161715808Y-56348804D02*
X161581121Y-56321867D01*
X161581121Y-56321867D02*
X161446434Y-56241054D01*
X161446434Y-56241054D02*
X161230935Y-56025555D01*
X161230935Y-56025555D02*
X161203998Y-55944743D01*
X161203998Y-55944743D02*
X161203998Y-55890868D01*
X161203998Y-55890868D02*
X161230935Y-55810056D01*
X161230935Y-55810056D02*
X161338685Y-55702306D01*
X161338685Y-55702306D02*
X161419497Y-55675369D01*
X161419497Y-55675369D02*
X161473372Y-55675369D01*
X161473372Y-55675369D02*
X161554184Y-55702306D01*
X161554184Y-55702306D02*
X161688871Y-55836993D01*
X161688871Y-55836993D02*
X161715808Y-55917806D01*
X161715808Y-55917806D02*
X161715808Y-55971680D01*
X161715808Y-55971680D02*
X161688871Y-56052493D01*
X161688871Y-56052493D02*
X161581121Y-56160242D01*
X161581121Y-56160242D02*
X161500309Y-56187180D01*
X161500309Y-56187180D02*
X161446434Y-56187180D01*
X161446434Y-56187180D02*
X161365622Y-56160242D01*
X157171494Y-54913372D02*
X157198431Y-54832560D01*
X157198431Y-54832560D02*
X157279243Y-54751748D01*
X157279243Y-54751748D02*
X157386993Y-54697873D01*
X157386993Y-54697873D02*
X157494742Y-54697873D01*
X157494742Y-54697873D02*
X157575555Y-54724810D01*
X157575555Y-54724810D02*
X157710242Y-54805623D01*
X157710242Y-54805623D02*
X157791054Y-54886435D01*
X157791054Y-54886435D02*
X157871866Y-55021122D01*
X157871866Y-55021122D02*
X157898803Y-55101934D01*
X157898803Y-55101934D02*
X157898803Y-55209684D01*
X157898803Y-55209684D02*
X157844929Y-55317433D01*
X157844929Y-55317433D02*
X157791054Y-55371308D01*
X157791054Y-55371308D02*
X157683304Y-55425183D01*
X157683304Y-55425183D02*
X157629429Y-55425183D01*
X157629429Y-55425183D02*
X157440868Y-55236621D01*
X157440868Y-55236621D02*
X157548617Y-55128871D01*
X157440868Y-55721494D02*
X156875182Y-55155809D01*
X156875182Y-55155809D02*
X156659683Y-55371308D01*
X156659683Y-55371308D02*
X156632746Y-55452120D01*
X156632746Y-55452120D02*
X156632746Y-55505995D01*
X156632746Y-55505995D02*
X156659683Y-55586807D01*
X156659683Y-55586807D02*
X156740495Y-55667619D01*
X156740495Y-55667619D02*
X156821307Y-55694557D01*
X156821307Y-55694557D02*
X156875182Y-55694557D01*
X156875182Y-55694557D02*
X156955994Y-55667619D01*
X156955994Y-55667619D02*
X157171494Y-55452120D01*
X156363372Y-55667619D02*
X155986248Y-56044743D01*
X155986248Y-56044743D02*
X156794370Y-56367992D01*
X134877585Y-80253406D02*
X135254709Y-81007653D01*
X135254709Y-81007653D02*
X134500462Y-80630529D01*
X134392712Y-81277027D02*
X134338838Y-81384776D01*
X134338838Y-81384776D02*
X134338838Y-81438651D01*
X134338838Y-81438651D02*
X134365775Y-81519463D01*
X134365775Y-81519463D02*
X134446587Y-81600276D01*
X134446587Y-81600276D02*
X134527399Y-81627213D01*
X134527399Y-81627213D02*
X134581274Y-81627213D01*
X134581274Y-81627213D02*
X134662086Y-81600276D01*
X134662086Y-81600276D02*
X134877586Y-81384776D01*
X134877586Y-81384776D02*
X134311900Y-80819091D01*
X134311900Y-80819091D02*
X134123338Y-81007653D01*
X134123338Y-81007653D02*
X134096401Y-81088465D01*
X134096401Y-81088465D02*
X134096401Y-81142340D01*
X134096401Y-81142340D02*
X134123338Y-81223152D01*
X134123338Y-81223152D02*
X134177213Y-81277027D01*
X134177213Y-81277027D02*
X134258025Y-81303964D01*
X134258025Y-81303964D02*
X134311900Y-81303964D01*
X134311900Y-81303964D02*
X134392712Y-81277027D01*
X134392712Y-81277027D02*
X134581274Y-81088465D01*
X133746215Y-81384776D02*
X134204151Y-81842712D01*
X134204151Y-81842712D02*
X134231088Y-81923524D01*
X134231088Y-81923524D02*
X134231088Y-81977399D01*
X134231088Y-81977399D02*
X134204151Y-82058211D01*
X134204151Y-82058211D02*
X134096401Y-82165961D01*
X134096401Y-82165961D02*
X134015589Y-82192898D01*
X134015589Y-82192898D02*
X133961714Y-82192898D01*
X133961714Y-82192898D02*
X133880902Y-82165961D01*
X133880902Y-82165961D02*
X133422966Y-81708025D01*
X133719277Y-82489210D02*
X133665403Y-82596959D01*
X133665403Y-82596959D02*
X133530716Y-82731646D01*
X133530716Y-82731646D02*
X133449903Y-82758584D01*
X133449903Y-82758584D02*
X133396029Y-82758584D01*
X133396029Y-82758584D02*
X133315216Y-82731646D01*
X133315216Y-82731646D02*
X133261342Y-82677771D01*
X133261342Y-82677771D02*
X133234404Y-82596959D01*
X133234404Y-82596959D02*
X133234404Y-82543084D01*
X133234404Y-82543084D02*
X133261342Y-82462272D01*
X133261342Y-82462272D02*
X133342154Y-82327585D01*
X133342154Y-82327585D02*
X133369091Y-82246773D01*
X133369091Y-82246773D02*
X133369091Y-82192898D01*
X133369091Y-82192898D02*
X133342154Y-82112086D01*
X133342154Y-82112086D02*
X133288279Y-82058211D01*
X133288279Y-82058211D02*
X133207467Y-82031274D01*
X133207467Y-82031274D02*
X133153592Y-82031274D01*
X133153592Y-82031274D02*
X133072780Y-82058211D01*
X133072780Y-82058211D02*
X132938093Y-82192898D01*
X132938093Y-82192898D02*
X132884218Y-82300648D01*
X184874200Y-60790475D02*
X184912295Y-60904761D01*
X184912295Y-60904761D02*
X184912295Y-61095237D01*
X184912295Y-61095237D02*
X184874200Y-61171428D01*
X184874200Y-61171428D02*
X184836104Y-61209523D01*
X184836104Y-61209523D02*
X184759914Y-61247618D01*
X184759914Y-61247618D02*
X184683723Y-61247618D01*
X184683723Y-61247618D02*
X184607533Y-61209523D01*
X184607533Y-61209523D02*
X184569438Y-61171428D01*
X184569438Y-61171428D02*
X184531342Y-61095237D01*
X184531342Y-61095237D02*
X184493247Y-60942856D01*
X184493247Y-60942856D02*
X184455152Y-60866666D01*
X184455152Y-60866666D02*
X184417057Y-60828571D01*
X184417057Y-60828571D02*
X184340866Y-60790475D01*
X184340866Y-60790475D02*
X184264676Y-60790475D01*
X184264676Y-60790475D02*
X184188485Y-60828571D01*
X184188485Y-60828571D02*
X184150390Y-60866666D01*
X184150390Y-60866666D02*
X184112295Y-60942856D01*
X184112295Y-60942856D02*
X184112295Y-61133333D01*
X184112295Y-61133333D02*
X184150390Y-61247618D01*
X184112295Y-61514285D02*
X184912295Y-61704761D01*
X184912295Y-61704761D02*
X184340866Y-61857142D01*
X184340866Y-61857142D02*
X184912295Y-62009523D01*
X184912295Y-62009523D02*
X184112295Y-62200000D01*
X184836104Y-62961905D02*
X184874200Y-62923809D01*
X184874200Y-62923809D02*
X184912295Y-62809524D01*
X184912295Y-62809524D02*
X184912295Y-62733333D01*
X184912295Y-62733333D02*
X184874200Y-62619047D01*
X184874200Y-62619047D02*
X184798009Y-62542857D01*
X184798009Y-62542857D02*
X184721819Y-62504762D01*
X184721819Y-62504762D02*
X184569438Y-62466666D01*
X184569438Y-62466666D02*
X184455152Y-62466666D01*
X184455152Y-62466666D02*
X184302771Y-62504762D01*
X184302771Y-62504762D02*
X184226580Y-62542857D01*
X184226580Y-62542857D02*
X184150390Y-62619047D01*
X184150390Y-62619047D02*
X184112295Y-62733333D01*
X184112295Y-62733333D02*
X184112295Y-62809524D01*
X184112295Y-62809524D02*
X184150390Y-62923809D01*
X184150390Y-62923809D02*
X184188485Y-62961905D01*
X184912295Y-63685714D02*
X184912295Y-63304762D01*
X184912295Y-63304762D02*
X184112295Y-63304762D01*
X184912295Y-63952381D02*
X184112295Y-63952381D01*
X184912295Y-64409524D02*
X184455152Y-64066666D01*
X184112295Y-64409524D02*
X184569438Y-63952381D01*
X167640868Y-80397998D02*
X167667805Y-80317185D01*
X167667805Y-80317185D02*
X167748618Y-80236373D01*
X167748618Y-80236373D02*
X167856367Y-80182498D01*
X167856367Y-80182498D02*
X167964117Y-80182498D01*
X167964117Y-80182498D02*
X168044929Y-80209436D01*
X168044929Y-80209436D02*
X168179616Y-80290248D01*
X168179616Y-80290248D02*
X168260428Y-80371060D01*
X168260428Y-80371060D02*
X168341241Y-80505747D01*
X168341241Y-80505747D02*
X168368178Y-80586560D01*
X168368178Y-80586560D02*
X168368178Y-80694309D01*
X168368178Y-80694309D02*
X168314303Y-80802059D01*
X168314303Y-80802059D02*
X168260428Y-80855934D01*
X168260428Y-80855934D02*
X168152679Y-80909808D01*
X168152679Y-80909808D02*
X168098804Y-80909808D01*
X168098804Y-80909808D02*
X167910242Y-80721247D01*
X167910242Y-80721247D02*
X168017992Y-80613497D01*
X167910242Y-81206120D02*
X167344557Y-80640434D01*
X167344557Y-80640434D02*
X167129057Y-80855934D01*
X167129057Y-80855934D02*
X167102120Y-80936746D01*
X167102120Y-80936746D02*
X167102120Y-80990621D01*
X167102120Y-80990621D02*
X167129057Y-81071433D01*
X167129057Y-81071433D02*
X167209870Y-81152245D01*
X167209870Y-81152245D02*
X167290682Y-81179182D01*
X167290682Y-81179182D02*
X167344557Y-81179182D01*
X167344557Y-81179182D02*
X167425369Y-81152245D01*
X167425369Y-81152245D02*
X167640868Y-80936746D01*
X166859683Y-81233057D02*
X166805809Y-81233057D01*
X166805809Y-81233057D02*
X166724996Y-81259995D01*
X166724996Y-81259995D02*
X166590309Y-81394682D01*
X166590309Y-81394682D02*
X166563372Y-81475494D01*
X166563372Y-81475494D02*
X166563372Y-81529369D01*
X166563372Y-81529369D02*
X166590309Y-81610181D01*
X166590309Y-81610181D02*
X166644184Y-81664056D01*
X166644184Y-81664056D02*
X166751934Y-81717930D01*
X166751934Y-81717930D02*
X167398431Y-81717930D01*
X167398431Y-81717930D02*
X167048245Y-82068117D01*
X166509497Y-82606865D02*
X166832746Y-82283616D01*
X166671121Y-82445240D02*
X166105436Y-81879555D01*
X166105436Y-81879555D02*
X166240123Y-81906492D01*
X166240123Y-81906492D02*
X166347873Y-81906492D01*
X166347873Y-81906492D02*
X166428685Y-81879555D01*
X147041494Y-54813372D02*
X147068431Y-54732560D01*
X147068431Y-54732560D02*
X147149243Y-54651748D01*
X147149243Y-54651748D02*
X147256993Y-54597873D01*
X147256993Y-54597873D02*
X147364742Y-54597873D01*
X147364742Y-54597873D02*
X147445555Y-54624810D01*
X147445555Y-54624810D02*
X147580242Y-54705623D01*
X147580242Y-54705623D02*
X147661054Y-54786435D01*
X147661054Y-54786435D02*
X147741866Y-54921122D01*
X147741866Y-54921122D02*
X147768803Y-55001934D01*
X147768803Y-55001934D02*
X147768803Y-55109684D01*
X147768803Y-55109684D02*
X147714929Y-55217433D01*
X147714929Y-55217433D02*
X147661054Y-55271308D01*
X147661054Y-55271308D02*
X147553304Y-55325183D01*
X147553304Y-55325183D02*
X147499429Y-55325183D01*
X147499429Y-55325183D02*
X147310868Y-55136621D01*
X147310868Y-55136621D02*
X147418617Y-55028871D01*
X147310868Y-55621494D02*
X146745182Y-55055809D01*
X146745182Y-55055809D02*
X146529683Y-55271308D01*
X146529683Y-55271308D02*
X146502746Y-55352120D01*
X146502746Y-55352120D02*
X146502746Y-55405995D01*
X146502746Y-55405995D02*
X146529683Y-55486807D01*
X146529683Y-55486807D02*
X146610495Y-55567619D01*
X146610495Y-55567619D02*
X146691307Y-55594557D01*
X146691307Y-55594557D02*
X146745182Y-55594557D01*
X146745182Y-55594557D02*
X146825994Y-55567619D01*
X146825994Y-55567619D02*
X147041494Y-55352120D01*
X146125622Y-56052493D02*
X146502746Y-56429616D01*
X146044810Y-55702306D02*
X146583558Y-55971680D01*
X146583558Y-55971680D02*
X146233372Y-56321867D01*
X164848431Y-80386435D02*
X164875368Y-80305623D01*
X164875368Y-80305623D02*
X164956180Y-80224811D01*
X164956180Y-80224811D02*
X165063930Y-80170936D01*
X165063930Y-80170936D02*
X165171680Y-80170936D01*
X165171680Y-80170936D02*
X165252492Y-80197873D01*
X165252492Y-80197873D02*
X165387179Y-80278685D01*
X165387179Y-80278685D02*
X165467991Y-80359498D01*
X165467991Y-80359498D02*
X165548803Y-80494185D01*
X165548803Y-80494185D02*
X165575741Y-80574997D01*
X165575741Y-80574997D02*
X165575741Y-80682746D01*
X165575741Y-80682746D02*
X165521866Y-80790496D01*
X165521866Y-80790496D02*
X165467991Y-80844371D01*
X165467991Y-80844371D02*
X165360241Y-80898246D01*
X165360241Y-80898246D02*
X165306367Y-80898246D01*
X165306367Y-80898246D02*
X165117805Y-80709684D01*
X165117805Y-80709684D02*
X165225554Y-80601934D01*
X165117805Y-81194557D02*
X164552119Y-80628872D01*
X164552119Y-80628872D02*
X164794556Y-81517806D01*
X164794556Y-81517806D02*
X164228871Y-80952120D01*
X164525182Y-81787180D02*
X163959497Y-81221494D01*
X163959497Y-81221494D02*
X163824810Y-81356181D01*
X163824810Y-81356181D02*
X163770935Y-81463931D01*
X163770935Y-81463931D02*
X163770935Y-81571680D01*
X163770935Y-81571680D02*
X163797872Y-81652493D01*
X163797872Y-81652493D02*
X163878685Y-81787180D01*
X163878685Y-81787180D02*
X163959497Y-81867992D01*
X163959497Y-81867992D02*
X164094184Y-81948804D01*
X164094184Y-81948804D02*
X164174996Y-81975741D01*
X164174996Y-81975741D02*
X164282746Y-81975741D01*
X164282746Y-81975741D02*
X164390495Y-81921867D01*
X164390495Y-81921867D02*
X164525182Y-81787180D01*
X154940868Y-80397998D02*
X154967805Y-80317185D01*
X154967805Y-80317185D02*
X155048618Y-80236373D01*
X155048618Y-80236373D02*
X155156367Y-80182498D01*
X155156367Y-80182498D02*
X155264117Y-80182498D01*
X155264117Y-80182498D02*
X155344929Y-80209436D01*
X155344929Y-80209436D02*
X155479616Y-80290248D01*
X155479616Y-80290248D02*
X155560428Y-80371060D01*
X155560428Y-80371060D02*
X155641241Y-80505747D01*
X155641241Y-80505747D02*
X155668178Y-80586560D01*
X155668178Y-80586560D02*
X155668178Y-80694309D01*
X155668178Y-80694309D02*
X155614303Y-80802059D01*
X155614303Y-80802059D02*
X155560428Y-80855934D01*
X155560428Y-80855934D02*
X155452679Y-80909808D01*
X155452679Y-80909808D02*
X155398804Y-80909808D01*
X155398804Y-80909808D02*
X155210242Y-80721247D01*
X155210242Y-80721247D02*
X155317992Y-80613497D01*
X155210242Y-81206120D02*
X154644557Y-80640434D01*
X154644557Y-80640434D02*
X154429057Y-80855934D01*
X154429057Y-80855934D02*
X154402120Y-80936746D01*
X154402120Y-80936746D02*
X154402120Y-80990621D01*
X154402120Y-80990621D02*
X154429057Y-81071433D01*
X154429057Y-81071433D02*
X154509870Y-81152245D01*
X154509870Y-81152245D02*
X154590682Y-81179182D01*
X154590682Y-81179182D02*
X154644557Y-81179182D01*
X154644557Y-81179182D02*
X154725369Y-81152245D01*
X154725369Y-81152245D02*
X154940868Y-80936746D01*
X154159683Y-81233057D02*
X154105809Y-81233057D01*
X154105809Y-81233057D02*
X154024996Y-81259995D01*
X154024996Y-81259995D02*
X153890309Y-81394682D01*
X153890309Y-81394682D02*
X153863372Y-81475494D01*
X153863372Y-81475494D02*
X153863372Y-81529369D01*
X153863372Y-81529369D02*
X153890309Y-81610181D01*
X153890309Y-81610181D02*
X153944184Y-81664056D01*
X153944184Y-81664056D02*
X154051934Y-81717930D01*
X154051934Y-81717930D02*
X154698431Y-81717930D01*
X154698431Y-81717930D02*
X154348245Y-82068117D01*
X153593998Y-81690993D02*
X153216874Y-82068117D01*
X153216874Y-82068117D02*
X154024996Y-82391366D01*
X184874200Y-72204761D02*
X184912295Y-72319047D01*
X184912295Y-72319047D02*
X184912295Y-72509523D01*
X184912295Y-72509523D02*
X184874200Y-72585714D01*
X184874200Y-72585714D02*
X184836104Y-72623809D01*
X184836104Y-72623809D02*
X184759914Y-72661904D01*
X184759914Y-72661904D02*
X184683723Y-72661904D01*
X184683723Y-72661904D02*
X184607533Y-72623809D01*
X184607533Y-72623809D02*
X184569438Y-72585714D01*
X184569438Y-72585714D02*
X184531342Y-72509523D01*
X184531342Y-72509523D02*
X184493247Y-72357142D01*
X184493247Y-72357142D02*
X184455152Y-72280952D01*
X184455152Y-72280952D02*
X184417057Y-72242857D01*
X184417057Y-72242857D02*
X184340866Y-72204761D01*
X184340866Y-72204761D02*
X184264676Y-72204761D01*
X184264676Y-72204761D02*
X184188485Y-72242857D01*
X184188485Y-72242857D02*
X184150390Y-72280952D01*
X184150390Y-72280952D02*
X184112295Y-72357142D01*
X184112295Y-72357142D02*
X184112295Y-72547619D01*
X184112295Y-72547619D02*
X184150390Y-72661904D01*
X184112295Y-72928571D02*
X184912295Y-73119047D01*
X184912295Y-73119047D02*
X184340866Y-73271428D01*
X184340866Y-73271428D02*
X184912295Y-73423809D01*
X184912295Y-73423809D02*
X184112295Y-73614286D01*
X184912295Y-73919048D02*
X184112295Y-73919048D01*
X184112295Y-73919048D02*
X184112295Y-74109524D01*
X184112295Y-74109524D02*
X184150390Y-74223810D01*
X184150390Y-74223810D02*
X184226580Y-74300000D01*
X184226580Y-74300000D02*
X184302771Y-74338095D01*
X184302771Y-74338095D02*
X184455152Y-74376191D01*
X184455152Y-74376191D02*
X184569438Y-74376191D01*
X184569438Y-74376191D02*
X184721819Y-74338095D01*
X184721819Y-74338095D02*
X184798009Y-74300000D01*
X184798009Y-74300000D02*
X184874200Y-74223810D01*
X184874200Y-74223810D02*
X184912295Y-74109524D01*
X184912295Y-74109524D02*
X184912295Y-73919048D01*
X184912295Y-74719048D02*
X184112295Y-74719048D01*
X184112295Y-75252381D02*
X184112295Y-75404762D01*
X184112295Y-75404762D02*
X184150390Y-75480952D01*
X184150390Y-75480952D02*
X184226580Y-75557143D01*
X184226580Y-75557143D02*
X184378961Y-75595238D01*
X184378961Y-75595238D02*
X184645628Y-75595238D01*
X184645628Y-75595238D02*
X184798009Y-75557143D01*
X184798009Y-75557143D02*
X184874200Y-75480952D01*
X184874200Y-75480952D02*
X184912295Y-75404762D01*
X184912295Y-75404762D02*
X184912295Y-75252381D01*
X184912295Y-75252381D02*
X184874200Y-75176190D01*
X184874200Y-75176190D02*
X184798009Y-75100000D01*
X184798009Y-75100000D02*
X184645628Y-75061904D01*
X184645628Y-75061904D02*
X184378961Y-75061904D01*
X184378961Y-75061904D02*
X184226580Y-75100000D01*
X184226580Y-75100000D02*
X184150390Y-75176190D01*
X184150390Y-75176190D02*
X184112295Y-75252381D01*
X170170868Y-54143998D02*
X170197805Y-54063185D01*
X170197805Y-54063185D02*
X170278618Y-53982373D01*
X170278618Y-53982373D02*
X170386367Y-53928498D01*
X170386367Y-53928498D02*
X170494117Y-53928498D01*
X170494117Y-53928498D02*
X170574929Y-53955436D01*
X170574929Y-53955436D02*
X170709616Y-54036248D01*
X170709616Y-54036248D02*
X170790428Y-54117060D01*
X170790428Y-54117060D02*
X170871241Y-54251747D01*
X170871241Y-54251747D02*
X170898178Y-54332560D01*
X170898178Y-54332560D02*
X170898178Y-54440309D01*
X170898178Y-54440309D02*
X170844303Y-54548059D01*
X170844303Y-54548059D02*
X170790428Y-54601934D01*
X170790428Y-54601934D02*
X170682679Y-54655808D01*
X170682679Y-54655808D02*
X170628804Y-54655808D01*
X170628804Y-54655808D02*
X170440242Y-54467247D01*
X170440242Y-54467247D02*
X170547992Y-54359497D01*
X170440242Y-54952120D02*
X169874557Y-54386434D01*
X169874557Y-54386434D02*
X169659057Y-54601934D01*
X169659057Y-54601934D02*
X169632120Y-54682746D01*
X169632120Y-54682746D02*
X169632120Y-54736621D01*
X169632120Y-54736621D02*
X169659057Y-54817433D01*
X169659057Y-54817433D02*
X169739870Y-54898245D01*
X169739870Y-54898245D02*
X169820682Y-54925182D01*
X169820682Y-54925182D02*
X169874557Y-54925182D01*
X169874557Y-54925182D02*
X169955369Y-54898245D01*
X169955369Y-54898245D02*
X170170868Y-54682746D01*
X169578245Y-55814117D02*
X169901494Y-55490868D01*
X169739870Y-55652492D02*
X169174184Y-55086807D01*
X169174184Y-55086807D02*
X169308871Y-55113744D01*
X169308871Y-55113744D02*
X169416621Y-55113744D01*
X169416621Y-55113744D02*
X169497433Y-55086807D01*
X169039497Y-56352865D02*
X169362746Y-56029616D01*
X169201121Y-56191240D02*
X168635436Y-55625555D01*
X168635436Y-55625555D02*
X168770123Y-55652492D01*
X168770123Y-55652492D02*
X168877873Y-55652492D01*
X168877873Y-55652492D02*
X168958685Y-55625555D01*
X141961494Y-54713372D02*
X141988431Y-54632560D01*
X141988431Y-54632560D02*
X142069243Y-54551748D01*
X142069243Y-54551748D02*
X142176993Y-54497873D01*
X142176993Y-54497873D02*
X142284742Y-54497873D01*
X142284742Y-54497873D02*
X142365555Y-54524810D01*
X142365555Y-54524810D02*
X142500242Y-54605623D01*
X142500242Y-54605623D02*
X142581054Y-54686435D01*
X142581054Y-54686435D02*
X142661866Y-54821122D01*
X142661866Y-54821122D02*
X142688803Y-54901934D01*
X142688803Y-54901934D02*
X142688803Y-55009684D01*
X142688803Y-55009684D02*
X142634929Y-55117433D01*
X142634929Y-55117433D02*
X142581054Y-55171308D01*
X142581054Y-55171308D02*
X142473304Y-55225183D01*
X142473304Y-55225183D02*
X142419429Y-55225183D01*
X142419429Y-55225183D02*
X142230868Y-55036621D01*
X142230868Y-55036621D02*
X142338617Y-54928871D01*
X142230868Y-55521494D02*
X141665182Y-54955809D01*
X141665182Y-54955809D02*
X141449683Y-55171308D01*
X141449683Y-55171308D02*
X141422746Y-55252120D01*
X141422746Y-55252120D02*
X141422746Y-55305995D01*
X141422746Y-55305995D02*
X141449683Y-55386807D01*
X141449683Y-55386807D02*
X141530495Y-55467619D01*
X141530495Y-55467619D02*
X141611307Y-55494557D01*
X141611307Y-55494557D02*
X141665182Y-55494557D01*
X141665182Y-55494557D02*
X141745994Y-55467619D01*
X141745994Y-55467619D02*
X141961494Y-55252120D01*
X141180309Y-55548432D02*
X141126434Y-55548432D01*
X141126434Y-55548432D02*
X141045622Y-55575369D01*
X141045622Y-55575369D02*
X140910935Y-55710056D01*
X140910935Y-55710056D02*
X140883998Y-55790868D01*
X140883998Y-55790868D02*
X140883998Y-55844743D01*
X140883998Y-55844743D02*
X140910935Y-55925555D01*
X140910935Y-55925555D02*
X140964810Y-55979430D01*
X140964810Y-55979430D02*
X141072559Y-56033305D01*
X141072559Y-56033305D02*
X141719057Y-56033305D01*
X141719057Y-56033305D02*
X141368871Y-56383491D01*
X136871494Y-54713372D02*
X136898431Y-54632560D01*
X136898431Y-54632560D02*
X136979243Y-54551748D01*
X136979243Y-54551748D02*
X137086993Y-54497873D01*
X137086993Y-54497873D02*
X137194742Y-54497873D01*
X137194742Y-54497873D02*
X137275555Y-54524810D01*
X137275555Y-54524810D02*
X137410242Y-54605623D01*
X137410242Y-54605623D02*
X137491054Y-54686435D01*
X137491054Y-54686435D02*
X137571866Y-54821122D01*
X137571866Y-54821122D02*
X137598803Y-54901934D01*
X137598803Y-54901934D02*
X137598803Y-55009684D01*
X137598803Y-55009684D02*
X137544929Y-55117433D01*
X137544929Y-55117433D02*
X137491054Y-55171308D01*
X137491054Y-55171308D02*
X137383304Y-55225183D01*
X137383304Y-55225183D02*
X137329429Y-55225183D01*
X137329429Y-55225183D02*
X137140868Y-55036621D01*
X137140868Y-55036621D02*
X137248617Y-54928871D01*
X137140868Y-55521494D02*
X136575182Y-54955809D01*
X136575182Y-54955809D02*
X136359683Y-55171308D01*
X136359683Y-55171308D02*
X136332746Y-55252120D01*
X136332746Y-55252120D02*
X136332746Y-55305995D01*
X136332746Y-55305995D02*
X136359683Y-55386807D01*
X136359683Y-55386807D02*
X136440495Y-55467619D01*
X136440495Y-55467619D02*
X136521307Y-55494557D01*
X136521307Y-55494557D02*
X136575182Y-55494557D01*
X136575182Y-55494557D02*
X136655994Y-55467619D01*
X136655994Y-55467619D02*
X136871494Y-55252120D01*
X136278871Y-56383491D02*
X136602120Y-56060242D01*
X136440495Y-56221867D02*
X135874810Y-55656181D01*
X135874810Y-55656181D02*
X136009497Y-55683119D01*
X136009497Y-55683119D02*
X136117246Y-55683119D01*
X136117246Y-55683119D02*
X136198059Y-55656181D01*
D12*
%TO.C,U1*%
X132850000Y-60807000D02*
X135517000Y-60807000D01*
X132850000Y-78800000D02*
X132850000Y-57800000D01*
X133150000Y-57800000D02*
X132850000Y-57800000D01*
X133150000Y-78800000D02*
X132850000Y-78800000D01*
X135517000Y-60807000D02*
X135517000Y-57800000D01*
X135650000Y-57800000D02*
X135250000Y-57800000D01*
X135650000Y-78800000D02*
X135250000Y-78800000D01*
X138250000Y-57800000D02*
X137850000Y-57800000D01*
X138250000Y-78800000D02*
X137850000Y-78800000D01*
X140750000Y-57800000D02*
X140350000Y-57800000D01*
X140750000Y-78800000D02*
X140350000Y-78800000D01*
X143350000Y-57800000D02*
X142950000Y-57800000D01*
X143350000Y-78800000D02*
X142950000Y-78800000D01*
X145850000Y-57800000D02*
X145450000Y-57800000D01*
X145850000Y-78800000D02*
X145450000Y-78800000D01*
X148350000Y-57800000D02*
X147950000Y-57800000D01*
X148350000Y-78800000D02*
X147950000Y-78800000D01*
X150950000Y-57800000D02*
X150550000Y-57800000D01*
X150950000Y-78800000D02*
X150550000Y-78800000D01*
X153450000Y-57800000D02*
X153050000Y-57800000D01*
X153450000Y-78800000D02*
X153050000Y-78800000D01*
X156050000Y-57800000D02*
X155650000Y-57800000D01*
X156050000Y-78800000D02*
X155650000Y-78800000D01*
X158550000Y-57800000D02*
X158150000Y-57800000D01*
X158550000Y-78800000D02*
X158150000Y-78800000D01*
X161050000Y-57800000D02*
X160650000Y-57800000D01*
X161050000Y-78800000D02*
X160650000Y-78800000D01*
X163650000Y-57800000D02*
X163250000Y-57800000D01*
X163650000Y-78800000D02*
X163250000Y-78800000D01*
X166150000Y-57800000D02*
X165750000Y-57800000D01*
X166150000Y-78800000D02*
X165750000Y-78800000D01*
X168750000Y-57800000D02*
X168350000Y-57800000D01*
X168750000Y-78800000D02*
X168350000Y-78800000D01*
X171250000Y-57800000D02*
X170850000Y-57800000D01*
X171250000Y-78800000D02*
X170850000Y-78800000D01*
X173850000Y-57800000D02*
X173450000Y-57800000D01*
X173850000Y-78800000D02*
X173450000Y-78800000D01*
X176350000Y-57800000D02*
X175950000Y-57800000D01*
X176350000Y-78800000D02*
X175950000Y-78800000D01*
X178850000Y-57800000D02*
X178450000Y-57800000D01*
X178850000Y-78800000D02*
X178450000Y-78800000D01*
X181450000Y-57800000D02*
X181050000Y-57800000D01*
X181450000Y-78800000D02*
X181050000Y-78800000D01*
X183850000Y-57800000D02*
X183850000Y-64600000D01*
X183850000Y-67200000D02*
X183850000Y-66800000D01*
X183850000Y-69800000D02*
X183850000Y-69400000D01*
X183850000Y-72000000D02*
X183850000Y-78800000D01*
%TD*%
%LPC*%
D13*
%TO.C,H2*%
X136590991Y-136590997D03*
%TD*%
%TO.C,H3*%
X319030991Y-136590997D03*
%TD*%
%TO.C,H6*%
X273530991Y-91090997D03*
%TD*%
%TO.C,H4*%
X319030991Y-45590997D03*
%TD*%
%TO.C,H1*%
X136590991Y-45590997D03*
%TD*%
%TO.C,H5*%
X182090991Y-91090997D03*
%TD*%
D14*
%TO.C,U1*%
X134220000Y-58510000D03*
X136760000Y-58510000D03*
X139300000Y-58510000D03*
X141840000Y-58510000D03*
X144380000Y-58510000D03*
X146920000Y-58510000D03*
X149460000Y-58510000D03*
X152000000Y-58510000D03*
X154540000Y-58510000D03*
X157080000Y-58510000D03*
X159620000Y-58510000D03*
X162160000Y-58510000D03*
X164700000Y-58510000D03*
X167240000Y-58510000D03*
X169780000Y-58510000D03*
X172320000Y-58510000D03*
X174860000Y-58510000D03*
X177400000Y-58510000D03*
X179940000Y-58510000D03*
X182480000Y-58510000D03*
X182480000Y-78090000D03*
X179940000Y-78090000D03*
X177400000Y-78090000D03*
X174860000Y-78090000D03*
X172320000Y-78090000D03*
X169780000Y-78090000D03*
X167240000Y-78090000D03*
X164700000Y-78090000D03*
X162160000Y-78090000D03*
X159620000Y-78090000D03*
X157080000Y-78090000D03*
X154540000Y-78090000D03*
X152000000Y-78090000D03*
X149460000Y-78090000D03*
X146920000Y-78090000D03*
X144380000Y-78090000D03*
X141840000Y-78090000D03*
X139300000Y-78090000D03*
X136760000Y-78090000D03*
X134220000Y-78090000D03*
D15*
X183150000Y-65760000D03*
X183150000Y-68300000D03*
X183150000Y-70840000D03*
%TD*%
%LPD*%
M02*
