%TF.GenerationSoftware,KiCad,Pcbnew,8.0.8+dfsg-1*%
%TF.CreationDate,2026-10-06T14:05:39+02:00*%
%TF.ProjectId,butns,6275746e-732e-46b6-9963-61645f706362,rev?*%
%TF.SameCoordinates,Original*%
%TF.FileFunction,Soldermask,Bot*%
%TF.FilePolarity,Negative*%
%FSLAX46Y46*%
G04 Gerber Fmt 4.6, Leading zero omitted, Abs format (unit mm)*
G04 Created by KiCad (PCBNEW 8.0.8+dfsg-1) date 2026-10-06 14:05:39*
%MOMM*%
%LPD*%
G01*
G04 APERTURE LIST*
%ADD10C,2.700000*%
%ADD11R,1.700000X3.500000*%
%ADD12R,3.500000X1.700000*%
G04 APERTURE END LIST*
D10*
%TO.C,H2*%
X136590991Y-136590997D03*
%TD*%
%TO.C,H3*%
X319030991Y-136590997D03*
%TD*%
%TO.C,H6*%
X273530991Y-91090997D03*
%TD*%
%TO.C,H4*%
X319030991Y-45590997D03*
%TD*%
%TO.C,H1*%
X136590991Y-45590997D03*
%TD*%
%TO.C,H5*%
X182090991Y-91090997D03*
%TD*%
D11*
%TO.C,U1*%
X134220000Y-58510000D03*
X136760000Y-58510000D03*
X139300000Y-58510000D03*
X141840000Y-58510000D03*
X144380000Y-58510000D03*
X146920000Y-58510000D03*
X149460000Y-58510000D03*
X152000000Y-58510000D03*
X154540000Y-58510000D03*
X157080000Y-58510000D03*
X159620000Y-58510000D03*
X162160000Y-58510000D03*
X164700000Y-58510000D03*
X167240000Y-58510000D03*
X169780000Y-58510000D03*
X172320000Y-58510000D03*
X174860000Y-58510000D03*
X177400000Y-58510000D03*
X179940000Y-58510000D03*
X182480000Y-58510000D03*
X182480000Y-78090000D03*
X179940000Y-78090000D03*
X177400000Y-78090000D03*
X174860000Y-78090000D03*
X172320000Y-78090000D03*
X169780000Y-78090000D03*
X167240000Y-78090000D03*
X164700000Y-78090000D03*
X162160000Y-78090000D03*
X159620000Y-78090000D03*
X157080000Y-78090000D03*
X154540000Y-78090000D03*
X152000000Y-78090000D03*
X149460000Y-78090000D03*
X146920000Y-78090000D03*
X144380000Y-78090000D03*
X141840000Y-78090000D03*
X139300000Y-78090000D03*
X136760000Y-78090000D03*
X134220000Y-78090000D03*
D12*
X183150000Y-65760000D03*
X183150000Y-68300000D03*
X183150000Y-70840000D03*
%TD*%
M02*
