%TF.GenerationSoftware,KiCad,Pcbnew,8.0.8+dfsg-1*%
%TF.CreationDate,2026-10-06T14:05:39+02:00*%
%TF.ProjectId,butns,6275746e-732e-46b6-9963-61645f706362,rev?*%
%TF.SameCoordinates,Original*%
%TF.FileFunction,Paste,Top*%
%TF.FilePolarity,Positive*%
%FSLAX46Y46*%
G04 Gerber Fmt 4.6, Leading zero omitted, Abs format (unit mm)*
G04 Created by KiCad (PCBNEW 8.0.8+dfsg-1) date 2026-10-06 14:05:39*
%MOMM*%
%LPD*%
G01*
G04 APERTURE LIST*
G04 Aperture macros list*
%AMRoundRect*
0 Rectangle with rounded corners*
0 $1 Rounding radius*
0 $2 $3 $4 $5 $6 $7 $8 $9 X,Y pos of 4 corners*
0 Add a 4 corners polygon primitive as box body*
4,1,4,$2,$3,$4,$5,$6,$7,$8,$9,$2,$3,0*
0 Add four circle primitives for the rounded corners*
1,1,$1+$1,$2,$3*
1,1,$1+$1,$4,$5*
1,1,$1+$1,$6,$7*
1,1,$1+$1,$8,$9*
0 Add four rect primitives between the rounded corners*
20,1,$1+$1,$2,$3,$4,$5,0*
20,1,$1+$1,$4,$5,$6,$7,0*
20,1,$1+$1,$6,$7,$8,$9,0*
20,1,$1+$1,$8,$9,$2,$3,0*%
G04 Aperture macros list end*
%ADD10R,0.700000X0.800000*%
%ADD11RoundRect,0.225000X0.225000X0.250000X-0.225000X0.250000X-0.225000X-0.250000X0.225000X-0.250000X0*%
%ADD12R,0.750000X1.000000*%
%ADD13RoundRect,0.112500X0.112500X-0.187500X0.112500X0.187500X-0.112500X0.187500X-0.112500X-0.187500X0*%
%ADD14RoundRect,0.225000X0.250000X-0.225000X0.250000X0.225000X-0.250000X0.225000X-0.250000X-0.225000X0*%
%ADD15RoundRect,0.162500X0.162500X-0.617500X0.162500X0.617500X-0.162500X0.617500X-0.162500X-0.617500X0*%
G04 APERTURE END LIST*
D10*
%TO.C,D105*%
X146850000Y-107450000D03*
X145650000Y-107450000D03*
X145650000Y-108750000D03*
X146850000Y-108750000D03*
%TD*%
D11*
%TO.C,C109*%
X261575000Y-106000000D03*
X260025000Y-106000000D03*
%TD*%
D12*
%TO.C,SW123*%
X243080991Y-134095996D03*
X243080991Y-128095996D03*
X246830991Y-134095996D03*
X246830991Y-128095996D03*
%TD*%
%TO.C,SW86*%
X277370991Y-76950000D03*
X277370991Y-70950000D03*
X281120991Y-76950000D03*
X281120991Y-70950000D03*
%TD*%
%TO.C,SW78*%
X277370991Y-65500000D03*
X277370991Y-59500000D03*
X281120991Y-65500000D03*
X281120991Y-59500000D03*
%TD*%
%TO.C,SW118*%
X277370991Y-122665996D03*
X277370991Y-116665996D03*
X281120991Y-122665996D03*
X281120991Y-116665996D03*
%TD*%
D11*
%TO.C,C37*%
X192995000Y-94600000D03*
X191445000Y-94600000D03*
%TD*%
D10*
%TO.C,D92*%
X181140000Y-84650000D03*
X179940000Y-84650000D03*
X179940000Y-85950000D03*
X181140000Y-85950000D03*
%TD*%
%TO.C,D217*%
X226860000Y-84650000D03*
X225660000Y-84650000D03*
X225660000Y-85950000D03*
X226860000Y-85950000D03*
%TD*%
D11*
%TO.C,C16*%
X318725000Y-60400000D03*
X317175000Y-60400000D03*
%TD*%
%TO.C,C21*%
X192995000Y-71800000D03*
X191445000Y-71800000D03*
%TD*%
D13*
%TO.C,D177*%
X218260000Y-120550000D03*
X218260000Y-118450000D03*
%TD*%
D12*
%TO.C,SW64*%
X311660991Y-134095996D03*
X311660991Y-128095996D03*
X315410991Y-134095996D03*
X315410991Y-128095996D03*
%TD*%
D14*
%TO.C,C65*%
X134620000Y-53353000D03*
X134620000Y-51803000D03*
%TD*%
D11*
%TO.C,C15*%
X215855000Y-60400000D03*
X214305000Y-60400000D03*
%TD*%
%TO.C,C98*%
X227285000Y-94600000D03*
X225735000Y-94600000D03*
%TD*%
%TO.C,C76*%
X250145000Y-60400000D03*
X248595000Y-60400000D03*
%TD*%
D13*
%TO.C,D41*%
X309700000Y-97750000D03*
X309700000Y-95650000D03*
%TD*%
D10*
%TO.C,D216*%
X306870000Y-73250000D03*
X305670000Y-73250000D03*
X305670000Y-74550000D03*
X306870000Y-74550000D03*
%TD*%
D13*
%TO.C,D49*%
X309700000Y-109150000D03*
X309700000Y-107050000D03*
%TD*%
D10*
%TO.C,D231*%
X295439999Y-96050000D03*
X294239999Y-96050000D03*
X294239999Y-97350000D03*
X295439999Y-97350000D03*
%TD*%
D12*
%TO.C,SW66*%
X231650991Y-54100000D03*
X231650991Y-48100000D03*
X235400991Y-54100000D03*
X235400991Y-48100000D03*
%TD*%
%TO.C,SW125*%
X265940991Y-134095996D03*
X265940991Y-128095996D03*
X269690991Y-134095996D03*
X269690991Y-128095996D03*
%TD*%
D10*
%TO.C,D212*%
X261150000Y-73250000D03*
X259950000Y-73250000D03*
X259950000Y-74550000D03*
X261150000Y-74550000D03*
%TD*%
%TO.C,D243*%
X249720000Y-118850000D03*
X248520000Y-118850000D03*
X248520000Y-120150000D03*
X249720000Y-120150000D03*
%TD*%
D12*
%TO.C,SW41*%
X140210991Y-111235996D03*
X140210991Y-105235996D03*
X143960991Y-111235996D03*
X143960991Y-105235996D03*
%TD*%
D11*
%TO.C,C73*%
X307295000Y-49000000D03*
X305745000Y-49000000D03*
%TD*%
D12*
%TO.C,SW99*%
X243080991Y-99805996D03*
X243080991Y-93805996D03*
X246830991Y-99805996D03*
X246830991Y-93805996D03*
%TD*%
D10*
%TO.C,D79*%
X215430000Y-61850000D03*
X214230000Y-61850000D03*
X214230000Y-63150000D03*
X215430000Y-63150000D03*
%TD*%
D13*
%TO.C,D9*%
X309700000Y-52150000D03*
X309700000Y-50050000D03*
%TD*%
D12*
%TO.C,SW49*%
X140210991Y-122665996D03*
X140210991Y-116665996D03*
X143960991Y-122665996D03*
X143960991Y-116665996D03*
%TD*%
D10*
%TO.C,D120*%
X318300000Y-118850000D03*
X317100000Y-118850000D03*
X317100000Y-120150000D03*
X318300000Y-120150000D03*
%TD*%
%TO.C,D227*%
X249720000Y-96050000D03*
X248520000Y-96050000D03*
X248520000Y-97350000D03*
X249720000Y-97350000D03*
%TD*%
%TO.C,D91*%
X169710000Y-84650000D03*
X168510000Y-84650000D03*
X168510000Y-85950000D03*
X169710000Y-85950000D03*
%TD*%
D12*
%TO.C,SW65*%
X220220991Y-54100000D03*
X220220991Y-48100000D03*
X223970991Y-54100000D03*
X223970991Y-48100000D03*
%TD*%
D11*
%TO.C,C72*%
X295864999Y-49000000D03*
X294314999Y-49000000D03*
%TD*%
D12*
%TO.C,SW4*%
X174500991Y-54100000D03*
X174500991Y-48100000D03*
X178250991Y-54100000D03*
X178250991Y-48100000D03*
%TD*%
D13*
%TO.C,D136*%
X298270000Y-52150000D03*
X298270000Y-50050000D03*
%TD*%
D12*
%TO.C,SW28*%
X174500991Y-88375997D03*
X174500991Y-82375997D03*
X178250991Y-88375997D03*
X178250991Y-82375997D03*
%TD*%
%TO.C,SW37*%
X185930991Y-99805996D03*
X185930991Y-93805996D03*
X189680991Y-99805996D03*
X189680991Y-93805996D03*
%TD*%
D10*
%TO.C,D199*%
X295439999Y-50450000D03*
X294239999Y-50450000D03*
X294239999Y-51750000D03*
X295439999Y-51750000D03*
%TD*%
D12*
%TO.C,SW8*%
X311660991Y-54100000D03*
X311660991Y-48100000D03*
X315410991Y-54100000D03*
X315410991Y-48100000D03*
%TD*%
%TO.C,SW72*%
X300230991Y-54100000D03*
X300230991Y-48100000D03*
X303980991Y-54100000D03*
X303980991Y-48100000D03*
%TD*%
D10*
%TO.C,D198*%
X284010000Y-50450000D03*
X282810000Y-50450000D03*
X282810000Y-51750000D03*
X284010000Y-51750000D03*
%TD*%
D12*
%TO.C,SW23*%
X208790991Y-76950000D03*
X208790991Y-70950000D03*
X212540991Y-76950000D03*
X212540991Y-70950000D03*
%TD*%
D13*
%TO.C,D26*%
X138250000Y-86350000D03*
X138250000Y-84250000D03*
%TD*%
D10*
%TO.C,D221*%
X272580000Y-84650000D03*
X271380000Y-84650000D03*
X271380000Y-85950000D03*
X272580000Y-85950000D03*
%TD*%
D11*
%TO.C,C24*%
X318725000Y-71800000D03*
X317175000Y-71800000D03*
%TD*%
D12*
%TO.C,SW54*%
X197360991Y-122665996D03*
X197360991Y-116665996D03*
X201110991Y-122665996D03*
X201110991Y-116665996D03*
%TD*%
D10*
%TO.C,D219*%
X249720000Y-84650000D03*
X248520000Y-84650000D03*
X248520000Y-85950000D03*
X249720000Y-85950000D03*
%TD*%
D12*
%TO.C,SW96*%
X300230991Y-88350000D03*
X300230991Y-82350000D03*
X303980991Y-88350000D03*
X303980991Y-82350000D03*
%TD*%
D13*
%TO.C,D175*%
X286839999Y-109150000D03*
X286839999Y-107050000D03*
%TD*%
D11*
%TO.C,C66*%
X227285000Y-49000000D03*
X225735000Y-49000000D03*
%TD*%
%TO.C,C3*%
X170135000Y-49000000D03*
X168585000Y-49000000D03*
%TD*%
D13*
%TO.C,D33*%
X309700000Y-86350000D03*
X309700000Y-84250000D03*
%TD*%
D10*
%TO.C,D114*%
X158280000Y-118850000D03*
X157080000Y-118850000D03*
X157080000Y-120150000D03*
X158280000Y-120150000D03*
%TD*%
%TO.C,D113*%
X146850000Y-118850000D03*
X145650000Y-118850000D03*
X145650000Y-120150000D03*
X146850000Y-120150000D03*
%TD*%
D13*
%TO.C,D28*%
X161110000Y-86350000D03*
X161110000Y-84250000D03*
%TD*%
D11*
%TO.C,C107*%
X238715000Y-106000000D03*
X237165000Y-106000000D03*
%TD*%
%TO.C,C102*%
X273005000Y-94600000D03*
X271455000Y-94600000D03*
%TD*%
D13*
%TO.C,D130*%
X229690000Y-52150000D03*
X229690000Y-50050000D03*
%TD*%
D12*
%TO.C,SW88*%
X300230991Y-76950000D03*
X300230991Y-70950000D03*
X303980991Y-76950000D03*
X303980991Y-70950000D03*
%TD*%
D10*
%TO.C,D115*%
X169710000Y-118850000D03*
X168510000Y-118850000D03*
X168510000Y-120150000D03*
X169710000Y-120150000D03*
%TD*%
D12*
%TO.C,SW13*%
X185930991Y-65500000D03*
X185930991Y-59500000D03*
X189680991Y-65500000D03*
X189680991Y-59500000D03*
%TD*%
D11*
%TO.C,C47*%
X215855000Y-106000000D03*
X214305000Y-106000000D03*
%TD*%
D12*
%TO.C,SW82*%
X231650991Y-76950000D03*
X231650991Y-70950000D03*
X235400991Y-76950000D03*
X235400991Y-70950000D03*
%TD*%
D10*
%TO.C,D223*%
X295439999Y-84650000D03*
X294239999Y-84650000D03*
X294239999Y-85950000D03*
X295439999Y-85950000D03*
%TD*%
%TO.C,D213*%
X272580000Y-73250000D03*
X271380000Y-73250000D03*
X271380000Y-74550000D03*
X272580000Y-74550000D03*
%TD*%
D11*
%TO.C,C78*%
X273005000Y-60400000D03*
X271455000Y-60400000D03*
%TD*%
D12*
%TO.C,SW103*%
X288800990Y-99805996D03*
X288800990Y-93805996D03*
X292550990Y-99805996D03*
X292550990Y-93805996D03*
%TD*%
D11*
%TO.C,C14*%
X204425000Y-60400000D03*
X202875000Y-60400000D03*
%TD*%
%TO.C,C101*%
X261575000Y-94600000D03*
X260025000Y-94600000D03*
%TD*%
D13*
%TO.C,D36*%
X161110000Y-97750000D03*
X161110000Y-95650000D03*
%TD*%
D12*
%TO.C,SW17*%
X140210991Y-76950000D03*
X140210991Y-70950000D03*
X143960991Y-76950000D03*
X143960991Y-70950000D03*
%TD*%
%TO.C,SW42*%
X151640991Y-111235996D03*
X151640991Y-105235996D03*
X155390991Y-111235996D03*
X155390991Y-105235996D03*
%TD*%
D13*
%TO.C,D20*%
X161110000Y-74950000D03*
X161110000Y-72850000D03*
%TD*%
D12*
%TO.C,SW1*%
X140210991Y-54100000D03*
X140210991Y-48100000D03*
X143960991Y-54100000D03*
X143960991Y-48100000D03*
%TD*%
D10*
%TO.C,D82*%
X158280000Y-73250000D03*
X157080000Y-73250000D03*
X157080000Y-74550000D03*
X158280000Y-74550000D03*
%TD*%
D11*
%TO.C,C13*%
X192995000Y-60400000D03*
X191445000Y-60400000D03*
%TD*%
D13*
%TO.C,D34*%
X138250000Y-97750000D03*
X138250000Y-95650000D03*
%TD*%
%TO.C,D153*%
X218260000Y-86350000D03*
X218260000Y-84250000D03*
%TD*%
D10*
%TO.C,D70*%
X204000000Y-50450000D03*
X202800000Y-50450000D03*
X202800000Y-51750000D03*
X204000000Y-51750000D03*
%TD*%
D13*
%TO.C,D170*%
X229690000Y-109150000D03*
X229690000Y-107050000D03*
%TD*%
%TO.C,D168*%
X298270000Y-97750000D03*
X298270000Y-95650000D03*
%TD*%
D12*
%TO.C,SW76*%
X254510991Y-65500000D03*
X254510991Y-59500000D03*
X258260991Y-65500000D03*
X258260991Y-59500000D03*
%TD*%
D11*
%TO.C,C96*%
X295864999Y-83200000D03*
X294314999Y-83200000D03*
%TD*%
D12*
%TO.C,SW19*%
X163070991Y-76950000D03*
X163070991Y-70950000D03*
X166820991Y-76950000D03*
X166820991Y-70950000D03*
%TD*%
D11*
%TO.C,C6*%
X204425000Y-49000000D03*
X202875000Y-49000000D03*
%TD*%
D12*
%TO.C,SW87*%
X288800990Y-76950000D03*
X288800990Y-70950000D03*
X292550990Y-76950000D03*
X292550990Y-70950000D03*
%TD*%
D11*
%TO.C,C100*%
X250145000Y-94600000D03*
X248595000Y-94600000D03*
%TD*%
%TO.C,C67*%
X238715000Y-49000000D03*
X237165000Y-49000000D03*
%TD*%
%TO.C,C89*%
X307295000Y-71800000D03*
X305745000Y-71800000D03*
%TD*%
D13*
%TO.C,D191*%
X286839999Y-131950000D03*
X286839999Y-129850000D03*
%TD*%
D11*
%TO.C,C62*%
X204425000Y-128800000D03*
X202875000Y-128800000D03*
%TD*%
D12*
%TO.C,SW48*%
X311660991Y-111235996D03*
X311660991Y-105235996D03*
X315410991Y-111235996D03*
X315410991Y-105235996D03*
%TD*%
D10*
%TO.C,D239*%
X295439999Y-107450000D03*
X294239999Y-107450000D03*
X294239999Y-108750000D03*
X295439999Y-108750000D03*
%TD*%
D13*
%TO.C,D154*%
X229690000Y-86350000D03*
X229690000Y-84250000D03*
%TD*%
D10*
%TO.C,D225*%
X226860000Y-96050000D03*
X225660000Y-96050000D03*
X225660000Y-97350000D03*
X226860000Y-97350000D03*
%TD*%
%TO.C,D122*%
X158280000Y-130250000D03*
X157080000Y-130250000D03*
X157080000Y-131550000D03*
X158280000Y-131550000D03*
%TD*%
D13*
%TO.C,D161*%
X218260000Y-97750000D03*
X218260000Y-95650000D03*
%TD*%
D12*
%TO.C,SW55*%
X208790991Y-122665996D03*
X208790991Y-116665996D03*
X212540991Y-122665996D03*
X212540991Y-116665996D03*
%TD*%
%TO.C,SW70*%
X277370991Y-54100000D03*
X277370991Y-48100000D03*
X281120991Y-54100000D03*
X281120991Y-48100000D03*
%TD*%
D10*
%TO.C,D232*%
X306870000Y-96050000D03*
X305670000Y-96050000D03*
X305670000Y-97350000D03*
X306870000Y-97350000D03*
%TD*%
%TO.C,D97*%
X146850000Y-96050000D03*
X145650000Y-96050000D03*
X145650000Y-97350000D03*
X146850000Y-97350000D03*
%TD*%
D11*
%TO.C,C77*%
X261575000Y-60400000D03*
X260025000Y-60400000D03*
%TD*%
D10*
%TO.C,D241*%
X226860000Y-118850000D03*
X225660000Y-118850000D03*
X225660000Y-120150000D03*
X226860000Y-120150000D03*
%TD*%
D11*
%TO.C,C106*%
X227285000Y-106000000D03*
X225735000Y-106000000D03*
%TD*%
%TO.C,C12*%
X181565000Y-60400000D03*
X180015000Y-60400000D03*
%TD*%
D10*
%TO.C,D90*%
X158280000Y-84650000D03*
X157080000Y-84650000D03*
X157080000Y-85950000D03*
X158280000Y-85950000D03*
%TD*%
D11*
%TO.C,C105*%
X307295000Y-94600000D03*
X305745000Y-94600000D03*
%TD*%
D13*
%TO.C,D63*%
X195400000Y-131950000D03*
X195400000Y-129850000D03*
%TD*%
D12*
%TO.C,SW114*%
X231650991Y-122665996D03*
X231650991Y-116665996D03*
X235400991Y-122665996D03*
X235400991Y-116665996D03*
%TD*%
D10*
%TO.C,D228*%
X261150000Y-96050000D03*
X259950000Y-96050000D03*
X259950000Y-97350000D03*
X261150000Y-97350000D03*
%TD*%
D11*
%TO.C,C68*%
X250145000Y-49000000D03*
X248595000Y-49000000D03*
%TD*%
D10*
%TO.C,D84*%
X181140000Y-73250000D03*
X179940000Y-73250000D03*
X179940000Y-74550000D03*
X181140000Y-74550000D03*
%TD*%
D11*
%TO.C,C59*%
X170135000Y-128800000D03*
X168585000Y-128800000D03*
%TD*%
%TO.C,C116*%
X250145000Y-117400000D03*
X248595000Y-117400000D03*
%TD*%
D13*
%TO.C,D2*%
X138250000Y-52150000D03*
X138250000Y-50050000D03*
%TD*%
D10*
%TO.C,D118*%
X204000000Y-118850000D03*
X202800000Y-118850000D03*
X202800000Y-120150000D03*
X204000000Y-120150000D03*
%TD*%
D11*
%TO.C,C81*%
X307295000Y-60400000D03*
X305745000Y-60400000D03*
%TD*%
D10*
%TO.C,D240*%
X306870000Y-107450000D03*
X305670000Y-107450000D03*
X305670000Y-108750000D03*
X306870000Y-108750000D03*
%TD*%
D12*
%TO.C,SW106*%
X231650991Y-111235996D03*
X231650991Y-105235996D03*
X235400991Y-111235996D03*
X235400991Y-105235996D03*
%TD*%
D11*
%TO.C,C103*%
X284435000Y-94600000D03*
X282885000Y-94600000D03*
%TD*%
D12*
%TO.C,SW9*%
X140210991Y-65500000D03*
X140210991Y-59500000D03*
X143960991Y-65500000D03*
X143960991Y-59500000D03*
%TD*%
%TO.C,SW105*%
X220220991Y-111235996D03*
X220220991Y-105235996D03*
X223970991Y-111235996D03*
X223970991Y-105235996D03*
%TD*%
D10*
%TO.C,D112*%
X318300000Y-107450000D03*
X317100000Y-107450000D03*
X317100000Y-108750000D03*
X318300000Y-108750000D03*
%TD*%
D13*
%TO.C,D22*%
X183970000Y-74950000D03*
X183970000Y-72850000D03*
%TD*%
D10*
%TO.C,D67*%
X169710000Y-50450000D03*
X168510000Y-50450000D03*
X168510000Y-51750000D03*
X169710000Y-51750000D03*
%TD*%
D11*
%TO.C,C70*%
X273005000Y-49000000D03*
X271455000Y-49000000D03*
%TD*%
D10*
%TO.C,D72*%
X318300000Y-50450000D03*
X317100000Y-50450000D03*
X317100000Y-51750000D03*
X318300000Y-51750000D03*
%TD*%
D13*
%TO.C,D7*%
X195400000Y-52150000D03*
X195400000Y-50050000D03*
%TD*%
%TO.C,D5*%
X172540000Y-52150000D03*
X172540000Y-50050000D03*
%TD*%
D10*
%TO.C,D94*%
X204000000Y-84650000D03*
X202800000Y-84650000D03*
X202800000Y-85950000D03*
X204000000Y-85950000D03*
%TD*%
D12*
%TO.C,SW7*%
X208790991Y-54100000D03*
X208790991Y-48100000D03*
X212540991Y-54100000D03*
X212540991Y-48100000D03*
%TD*%
D13*
%TO.C,D23*%
X195400000Y-74950000D03*
X195400000Y-72850000D03*
%TD*%
D11*
%TO.C,C86*%
X273005000Y-71800000D03*
X271455000Y-71800000D03*
%TD*%
%TO.C,C129*%
X307295000Y-128800000D03*
X305745000Y-128800000D03*
%TD*%
D12*
%TO.C,SW36*%
X174500991Y-99805996D03*
X174500991Y-93805996D03*
X178250991Y-99805996D03*
X178250991Y-93805996D03*
%TD*%
D10*
%TO.C,D215*%
X295439999Y-73250000D03*
X294239999Y-73250000D03*
X294239999Y-74550000D03*
X295439999Y-74550000D03*
%TD*%
D13*
%TO.C,D3*%
X149680000Y-52150000D03*
X149680000Y-50050000D03*
%TD*%
D11*
%TO.C,C39*%
X215855000Y-94600000D03*
X214305000Y-94600000D03*
%TD*%
D10*
%TO.C,D81*%
X146850000Y-73250000D03*
X145650000Y-73250000D03*
X145650000Y-74550000D03*
X146850000Y-74550000D03*
%TD*%
D12*
%TO.C,SW10*%
X151640991Y-65500000D03*
X151640991Y-59500000D03*
X155390991Y-65500000D03*
X155390991Y-59500000D03*
%TD*%
D10*
%TO.C,D124*%
X181140000Y-130250000D03*
X179940000Y-130250000D03*
X179940000Y-131550000D03*
X181140000Y-131550000D03*
%TD*%
%TO.C,D76*%
X181140000Y-61850000D03*
X179940000Y-61850000D03*
X179940000Y-63150000D03*
X181140000Y-63150000D03*
%TD*%
D11*
%TO.C,C57*%
X147275000Y-128800000D03*
X145725000Y-128800000D03*
%TD*%
%TO.C,C22*%
X204425000Y-71800000D03*
X202875000Y-71800000D03*
%TD*%
D13*
%TO.C,D32*%
X206830000Y-86350000D03*
X206830000Y-84250000D03*
%TD*%
D11*
%TO.C,C87*%
X284435000Y-71800000D03*
X282885000Y-71800000D03*
%TD*%
D10*
%TO.C,D109*%
X192570000Y-107450000D03*
X191370000Y-107450000D03*
X191370000Y-108750000D03*
X192570000Y-108750000D03*
%TD*%
D13*
%TO.C,D184*%
X298270000Y-120550000D03*
X298270000Y-118450000D03*
%TD*%
D11*
%TO.C,C56*%
X318725000Y-117400000D03*
X317175000Y-117400000D03*
%TD*%
D10*
%TO.C,D244*%
X261150000Y-118850000D03*
X259950000Y-118850000D03*
X259950000Y-120150000D03*
X261150000Y-120150000D03*
%TD*%
D12*
%TO.C,SW51*%
X163070991Y-122665996D03*
X163070991Y-116665996D03*
X166820991Y-122665996D03*
X166820991Y-116665996D03*
%TD*%
%TO.C,SW128*%
X300230991Y-134095996D03*
X300230991Y-128095996D03*
X303980991Y-134095996D03*
X303980991Y-128095996D03*
%TD*%
D11*
%TO.C,C51*%
X170135000Y-117400000D03*
X168585000Y-117400000D03*
%TD*%
D10*
%TO.C,D236*%
X261150000Y-107450000D03*
X259950000Y-107450000D03*
X259950000Y-108750000D03*
X261150000Y-108750000D03*
%TD*%
D12*
%TO.C,SW69*%
X265940991Y-54100000D03*
X265940991Y-48100000D03*
X269690991Y-54100000D03*
X269690991Y-48100000D03*
%TD*%
D11*
%TO.C,C121*%
X307295000Y-117400000D03*
X305745000Y-117400000D03*
%TD*%
D13*
%TO.C,D19*%
X149680000Y-74950000D03*
X149680000Y-72850000D03*
%TD*%
D11*
%TO.C,C126*%
X273005000Y-128800000D03*
X271455000Y-128800000D03*
%TD*%
D13*
%TO.C,D40*%
X206830000Y-97750000D03*
X206830000Y-95650000D03*
%TD*%
D10*
%TO.C,D104*%
X318300000Y-96050000D03*
X317100000Y-96050000D03*
X317100000Y-97350000D03*
X318300000Y-97350000D03*
%TD*%
D11*
%TO.C,C33*%
X147275000Y-94600000D03*
X145725000Y-94600000D03*
%TD*%
D10*
%TO.C,D197*%
X272580000Y-50450000D03*
X271380000Y-50450000D03*
X271380000Y-51750000D03*
X272580000Y-51750000D03*
%TD*%
%TO.C,D248*%
X306870000Y-118850000D03*
X305670000Y-118850000D03*
X305670000Y-120150000D03*
X306870000Y-120150000D03*
%TD*%
D13*
%TO.C,D57*%
X309700000Y-120550000D03*
X309700000Y-118450000D03*
%TD*%
D11*
%TO.C,C74*%
X227285000Y-60400000D03*
X225735000Y-60400000D03*
%TD*%
D10*
%TO.C,D220*%
X261150000Y-84650000D03*
X259950000Y-84650000D03*
X259950000Y-85950000D03*
X261150000Y-85950000D03*
%TD*%
D11*
%TO.C,C64*%
X318725000Y-128800000D03*
X317175000Y-128800000D03*
%TD*%
D12*
%TO.C,SW101*%
X265940991Y-99805996D03*
X265940991Y-93805996D03*
X269690991Y-99805996D03*
X269690991Y-93805996D03*
%TD*%
D10*
%TO.C,D119*%
X215430000Y-118850000D03*
X214230000Y-118850000D03*
X214230000Y-120150000D03*
X215430000Y-120150000D03*
%TD*%
D12*
%TO.C,SW24*%
X311660991Y-76950000D03*
X311660991Y-70950000D03*
X315410991Y-76950000D03*
X315410991Y-70950000D03*
%TD*%
D13*
%TO.C,D44*%
X161110000Y-109150000D03*
X161110000Y-107050000D03*
%TD*%
D11*
%TO.C,C63*%
X215855000Y-128800000D03*
X214305000Y-128800000D03*
%TD*%
D12*
%TO.C,SW104*%
X300230991Y-99805996D03*
X300230991Y-93805996D03*
X303980991Y-99805996D03*
X303980991Y-93805996D03*
%TD*%
%TO.C,SW94*%
X277370991Y-88350000D03*
X277370991Y-82350000D03*
X281120991Y-88350000D03*
X281120991Y-82350000D03*
%TD*%
D13*
%TO.C,D38*%
X183970000Y-97750000D03*
X183970000Y-95650000D03*
%TD*%
D11*
%TO.C,C20*%
X181565000Y-71800000D03*
X180015000Y-71800000D03*
%TD*%
D10*
%TO.C,D218*%
X238290000Y-84650000D03*
X237090000Y-84650000D03*
X237090000Y-85950000D03*
X238290000Y-85950000D03*
%TD*%
D12*
%TO.C,SW91*%
X243080991Y-88350000D03*
X243080991Y-82350000D03*
X246830991Y-88350000D03*
X246830991Y-82350000D03*
%TD*%
%TO.C,SW74*%
X231650991Y-65500000D03*
X231650991Y-59500000D03*
X235400991Y-65500000D03*
X235400991Y-59500000D03*
%TD*%
D11*
%TO.C,C69*%
X261575000Y-49000000D03*
X260025000Y-49000000D03*
%TD*%
D10*
%TO.C,D207*%
X295439999Y-61850000D03*
X294239999Y-61850000D03*
X294239999Y-63150000D03*
X295439999Y-63150000D03*
%TD*%
D13*
%TO.C,D17*%
X309700000Y-63550000D03*
X309700000Y-61450000D03*
%TD*%
D12*
%TO.C,SW5*%
X185930991Y-54100000D03*
X185930991Y-48100000D03*
X189680991Y-54100000D03*
X189680991Y-48100000D03*
%TD*%
%TO.C,SW11*%
X163070991Y-65500000D03*
X163070991Y-59500000D03*
X166820991Y-65500000D03*
X166820991Y-59500000D03*
%TD*%
%TO.C,SW115*%
X243080991Y-122665996D03*
X243080991Y-116665996D03*
X246830991Y-122665996D03*
X246830991Y-116665996D03*
%TD*%
D13*
%TO.C,D188*%
X252550000Y-131950000D03*
X252550000Y-129850000D03*
%TD*%
D12*
%TO.C,SW120*%
X300230991Y-122665996D03*
X300230991Y-116665996D03*
X303980991Y-122665996D03*
X303980991Y-116665996D03*
%TD*%
D10*
%TO.C,D193*%
X226860000Y-50450000D03*
X225660000Y-50450000D03*
X225660000Y-51750000D03*
X226860000Y-51750000D03*
%TD*%
D11*
%TO.C,C44*%
X181565000Y-106000000D03*
X180015000Y-106000000D03*
%TD*%
%TO.C,C111*%
X284435000Y-106000000D03*
X282885000Y-106000000D03*
%TD*%
D10*
%TO.C,D103*%
X215430000Y-96050000D03*
X214230000Y-96050000D03*
X214230000Y-97350000D03*
X215430000Y-97350000D03*
%TD*%
D11*
%TO.C,C40*%
X318725000Y-94600000D03*
X317175000Y-94600000D03*
%TD*%
D12*
%TO.C,SW90*%
X231650991Y-88350000D03*
X231650991Y-82350000D03*
X235400991Y-88350000D03*
X235400991Y-82350000D03*
%TD*%
D10*
%TO.C,D256*%
X306870000Y-130250000D03*
X305670000Y-130250000D03*
X305670000Y-131550000D03*
X306870000Y-131550000D03*
%TD*%
D12*
%TO.C,SW67*%
X243080991Y-54100000D03*
X243080991Y-48100000D03*
X246830991Y-54100000D03*
X246830991Y-48100000D03*
%TD*%
D10*
%TO.C,D96*%
X318300000Y-84650000D03*
X317100000Y-84650000D03*
X317100000Y-85950000D03*
X318300000Y-85950000D03*
%TD*%
D13*
%TO.C,D15*%
X195400000Y-63550000D03*
X195400000Y-61450000D03*
%TD*%
D10*
%TO.C,D208*%
X306870000Y-61850000D03*
X305670000Y-61850000D03*
X305670000Y-63150000D03*
X306870000Y-63150000D03*
%TD*%
D13*
%TO.C,D186*%
X229690000Y-131950000D03*
X229690000Y-129850000D03*
%TD*%
D11*
%TO.C,C34*%
X158705000Y-94600000D03*
X157155000Y-94600000D03*
%TD*%
D12*
%TO.C,SW47*%
X208790991Y-111235996D03*
X208790991Y-105235996D03*
X212540991Y-111235996D03*
X212540991Y-105235996D03*
%TD*%
D11*
%TO.C,C122*%
X227285000Y-128800000D03*
X225735000Y-128800000D03*
%TD*%
D10*
%TO.C,D237*%
X272580000Y-107450000D03*
X271380000Y-107450000D03*
X271380000Y-108750000D03*
X272580000Y-108750000D03*
%TD*%
D12*
%TO.C,SW15*%
X208790991Y-65500000D03*
X208790991Y-59500000D03*
X212540991Y-65500000D03*
X212540991Y-59500000D03*
%TD*%
%TO.C,SW97*%
X220220991Y-99805996D03*
X220220991Y-93805996D03*
X223970991Y-99805996D03*
X223970991Y-93805996D03*
%TD*%
D10*
%TO.C,D195*%
X249720000Y-50450000D03*
X248520000Y-50450000D03*
X248520000Y-51750000D03*
X249720000Y-51750000D03*
%TD*%
D12*
%TO.C,SW33*%
X140210991Y-99805996D03*
X140210991Y-93805996D03*
X143960991Y-99805996D03*
X143960991Y-93805996D03*
%TD*%
D13*
%TO.C,D53*%
X172540000Y-120550000D03*
X172540000Y-118450000D03*
%TD*%
D10*
%TO.C,D206*%
X284010000Y-61850000D03*
X282810000Y-61850000D03*
X282810000Y-63150000D03*
X284010000Y-63150000D03*
%TD*%
D13*
%TO.C,D135*%
X286839999Y-52150000D03*
X286839999Y-50050000D03*
%TD*%
%TO.C,D178*%
X229690000Y-120550000D03*
X229690000Y-118450000D03*
%TD*%
D12*
%TO.C,SW18*%
X151640991Y-76950000D03*
X151640991Y-70950000D03*
X155390991Y-76950000D03*
X155390991Y-70950000D03*
%TD*%
D13*
%TO.C,D149*%
X263980000Y-74950000D03*
X263980000Y-72850000D03*
%TD*%
D12*
%TO.C,SW32*%
X311660991Y-88350000D03*
X311660991Y-82350000D03*
X315410991Y-88350000D03*
X315410991Y-82350000D03*
%TD*%
D11*
%TO.C,C84*%
X250145000Y-71800000D03*
X248595000Y-71800000D03*
%TD*%
D12*
%TO.C,SW83*%
X243080991Y-76950000D03*
X243080991Y-70950000D03*
X246830991Y-76950000D03*
X246830991Y-70950000D03*
%TD*%
D10*
%TO.C,D101*%
X192570000Y-96050000D03*
X191370000Y-96050000D03*
X191370000Y-97350000D03*
X192570000Y-97350000D03*
%TD*%
D11*
%TO.C,C9*%
X147275000Y-60400000D03*
X145725000Y-60400000D03*
%TD*%
D13*
%TO.C,D37*%
X172540000Y-97750000D03*
X172540000Y-95650000D03*
%TD*%
%TO.C,D55*%
X195400000Y-120550000D03*
X195400000Y-118450000D03*
%TD*%
%TO.C,D185*%
X218260000Y-131950000D03*
X218260000Y-129850000D03*
%TD*%
%TO.C,D65*%
X309700000Y-131950000D03*
X309700000Y-129850000D03*
%TD*%
D11*
%TO.C,C75*%
X238715000Y-60400000D03*
X237165000Y-60400000D03*
%TD*%
%TO.C,C2*%
X158705000Y-49000000D03*
X157155000Y-49000000D03*
%TD*%
D12*
%TO.C,SW80*%
X300230991Y-65500000D03*
X300230991Y-59500000D03*
X303980991Y-65500000D03*
X303980991Y-59500000D03*
%TD*%
%TO.C,SW57*%
X140210991Y-134095996D03*
X140210991Y-128095996D03*
X143960991Y-134095996D03*
X143960991Y-128095996D03*
%TD*%
%TO.C,SW110*%
X277370991Y-111235996D03*
X277370991Y-105235996D03*
X281120991Y-111235996D03*
X281120991Y-105235996D03*
%TD*%
D13*
%TO.C,D169*%
X218260000Y-109150000D03*
X218260000Y-107050000D03*
%TD*%
D10*
%TO.C,D108*%
X181140000Y-107450000D03*
X179940000Y-107450000D03*
X179940000Y-108750000D03*
X181140000Y-108750000D03*
%TD*%
D13*
%TO.C,D134*%
X275410000Y-52150000D03*
X275410000Y-50050000D03*
%TD*%
D11*
%TO.C,C61*%
X192995000Y-128800000D03*
X191445000Y-128800000D03*
%TD*%
%TO.C,C94*%
X273005000Y-83200000D03*
X271455000Y-83200000D03*
%TD*%
D12*
%TO.C,SW84*%
X254510991Y-76950000D03*
X254510991Y-70950000D03*
X258260991Y-76950000D03*
X258260991Y-70950000D03*
%TD*%
%TO.C,SW100*%
X254510991Y-99805996D03*
X254510991Y-93805996D03*
X258260991Y-99805996D03*
X258260991Y-93805996D03*
%TD*%
D11*
%TO.C,C60*%
X181565000Y-128800000D03*
X180015000Y-128800000D03*
%TD*%
%TO.C,C124*%
X250145000Y-128800000D03*
X248595000Y-128800000D03*
%TD*%
%TO.C,C30*%
X204425000Y-83200000D03*
X202875000Y-83200000D03*
%TD*%
D10*
%TO.C,D73*%
X146850000Y-61850000D03*
X145650000Y-61850000D03*
X145650000Y-63150000D03*
X146850000Y-63150000D03*
%TD*%
D11*
%TO.C,C35*%
X170135000Y-94600000D03*
X168585000Y-94600000D03*
%TD*%
D13*
%TO.C,D62*%
X183970000Y-131950000D03*
X183970000Y-129850000D03*
%TD*%
D11*
%TO.C,C25*%
X147275000Y-83200000D03*
X145725000Y-83200000D03*
%TD*%
D13*
%TO.C,D12*%
X161110000Y-63550000D03*
X161110000Y-61450000D03*
%TD*%
D10*
%TO.C,D251*%
X249720000Y-130250000D03*
X248520000Y-130250000D03*
X248520000Y-131550000D03*
X249720000Y-131550000D03*
%TD*%
D12*
%TO.C,SW85*%
X265940991Y-76950000D03*
X265940991Y-70950000D03*
X269690991Y-76950000D03*
X269690991Y-70950000D03*
%TD*%
D10*
%TO.C,D69*%
X192570000Y-50450000D03*
X191370000Y-50450000D03*
X191370000Y-51750000D03*
X192570000Y-51750000D03*
%TD*%
D11*
%TO.C,C52*%
X181565000Y-117400000D03*
X180015000Y-117400000D03*
%TD*%
D13*
%TO.C,D24*%
X206830000Y-74950000D03*
X206830000Y-72850000D03*
%TD*%
%TO.C,D176*%
X298270000Y-109150000D03*
X298270000Y-107050000D03*
%TD*%
D11*
%TO.C,C26*%
X158705000Y-83200000D03*
X157155000Y-83200000D03*
%TD*%
D13*
%TO.C,D45*%
X172540000Y-109150000D03*
X172540000Y-107050000D03*
%TD*%
D11*
%TO.C,C7*%
X215855000Y-49000000D03*
X214305000Y-49000000D03*
%TD*%
%TO.C,C1*%
X147275000Y-49000000D03*
X145725000Y-49000000D03*
%TD*%
D10*
%TO.C,D255*%
X295439999Y-130250000D03*
X294239999Y-130250000D03*
X294239999Y-131550000D03*
X295439999Y-131550000D03*
%TD*%
D13*
%TO.C,D42*%
X138250000Y-109150000D03*
X138250000Y-107050000D03*
%TD*%
D12*
%TO.C,SW116*%
X254510991Y-122665996D03*
X254510991Y-116665996D03*
X258260991Y-122665996D03*
X258260991Y-116665996D03*
%TD*%
D10*
%TO.C,D201*%
X226860000Y-61850000D03*
X225660000Y-61850000D03*
X225660000Y-63150000D03*
X226860000Y-63150000D03*
%TD*%
D13*
%TO.C,D16*%
X206830000Y-63550000D03*
X206830000Y-61450000D03*
%TD*%
%TO.C,D46*%
X183970000Y-109150000D03*
X183970000Y-107050000D03*
%TD*%
D12*
%TO.C,SW112*%
X300230991Y-111235996D03*
X300230991Y-105235996D03*
X303980991Y-111235996D03*
X303980991Y-105235996D03*
%TD*%
%TO.C,SW39*%
X208790991Y-99805996D03*
X208790991Y-93805996D03*
X212540991Y-99805996D03*
X212540991Y-93805996D03*
%TD*%
D13*
%TO.C,D157*%
X263980000Y-86350000D03*
X263980000Y-84250000D03*
%TD*%
D10*
%TO.C,D245*%
X272580000Y-118850000D03*
X271380000Y-118850000D03*
X271380000Y-120150000D03*
X272580000Y-120150000D03*
%TD*%
D13*
%TO.C,D158*%
X275410000Y-86350000D03*
X275410000Y-84250000D03*
%TD*%
%TO.C,D56*%
X206830000Y-120550000D03*
X206830000Y-118450000D03*
%TD*%
%TO.C,D27*%
X149680000Y-86350000D03*
X149680000Y-84250000D03*
%TD*%
%TO.C,D129*%
X218260000Y-52150000D03*
X218260000Y-50050000D03*
%TD*%
D12*
%TO.C,SW56*%
X311660991Y-122665996D03*
X311660991Y-116665996D03*
X315410991Y-122665996D03*
X315410991Y-116665996D03*
%TD*%
D11*
%TO.C,C32*%
X318725000Y-83200000D03*
X317175000Y-83200000D03*
%TD*%
D10*
%TO.C,D98*%
X158280000Y-96050000D03*
X157080000Y-96050000D03*
X157080000Y-97350000D03*
X158280000Y-97350000D03*
%TD*%
D11*
%TO.C,C31*%
X215855000Y-83200000D03*
X214305000Y-83200000D03*
%TD*%
D13*
%TO.C,D173*%
X263980000Y-109150000D03*
X263980000Y-107050000D03*
%TD*%
D11*
%TO.C,C41*%
X147275000Y-106000000D03*
X145725000Y-106000000D03*
%TD*%
D12*
%TO.C,SW26*%
X151640991Y-88375997D03*
X151640991Y-82375997D03*
X155390991Y-88375997D03*
X155390991Y-82375997D03*
%TD*%
D13*
%TO.C,D174*%
X275410000Y-109150000D03*
X275410000Y-107050000D03*
%TD*%
D11*
%TO.C,C36*%
X181565000Y-94600000D03*
X180015000Y-94600000D03*
%TD*%
D13*
%TO.C,D163*%
X241120000Y-97750000D03*
X241120000Y-95650000D03*
%TD*%
%TO.C,D51*%
X149680000Y-120550000D03*
X149680000Y-118450000D03*
%TD*%
D10*
%TO.C,D99*%
X169710000Y-96050000D03*
X168510000Y-96050000D03*
X168510000Y-97350000D03*
X169710000Y-97350000D03*
%TD*%
D13*
%TO.C,D25*%
X309700000Y-74950000D03*
X309700000Y-72850000D03*
%TD*%
D12*
%TO.C,SW92*%
X254510991Y-88350000D03*
X254510991Y-82350000D03*
X258260991Y-88350000D03*
X258260991Y-82350000D03*
%TD*%
%TO.C,SW35*%
X163070991Y-99805996D03*
X163070991Y-93805996D03*
X166820991Y-99805996D03*
X166820991Y-93805996D03*
%TD*%
%TO.C,SW81*%
X220220991Y-76950000D03*
X220220991Y-70950000D03*
X223970991Y-76950000D03*
X223970991Y-70950000D03*
%TD*%
D13*
%TO.C,D30*%
X183970000Y-86350000D03*
X183970000Y-84250000D03*
%TD*%
D12*
%TO.C,SW62*%
X197360991Y-134095996D03*
X197360991Y-128095996D03*
X201110991Y-134095996D03*
X201110991Y-128095996D03*
%TD*%
D10*
%TO.C,D128*%
X318300000Y-130250000D03*
X317100000Y-130250000D03*
X317100000Y-131550000D03*
X318300000Y-131550000D03*
%TD*%
D12*
%TO.C,SW40*%
X311660991Y-99805996D03*
X311660991Y-93805996D03*
X315410991Y-99805996D03*
X315410991Y-93805996D03*
%TD*%
D13*
%TO.C,D59*%
X149680000Y-131950000D03*
X149680000Y-129850000D03*
%TD*%
D12*
%TO.C,SW6*%
X197360991Y-54100000D03*
X197360991Y-48100000D03*
X201110991Y-54100000D03*
X201110991Y-48100000D03*
%TD*%
D11*
%TO.C,C104*%
X295864999Y-94600000D03*
X294314999Y-94600000D03*
%TD*%
D13*
%TO.C,D18*%
X138250000Y-74950000D03*
X138250000Y-72850000D03*
%TD*%
D10*
%TO.C,D77*%
X192570000Y-61850000D03*
X191370000Y-61850000D03*
X191370000Y-63150000D03*
X192570000Y-63150000D03*
%TD*%
D12*
%TO.C,SW16*%
X311660991Y-65500000D03*
X311660991Y-59500000D03*
X315410991Y-65500000D03*
X315410991Y-59500000D03*
%TD*%
D15*
%TO.C,U2*%
X134752000Y-57818000D03*
X135702000Y-57818000D03*
X136652000Y-57818000D03*
X136652000Y-55118000D03*
X134752000Y-55118000D03*
%TD*%
D10*
%TO.C,D246*%
X284010000Y-118850000D03*
X282810000Y-118850000D03*
X282810000Y-120150000D03*
X284010000Y-120150000D03*
%TD*%
%TO.C,D117*%
X192570000Y-118850000D03*
X191370000Y-118850000D03*
X191370000Y-120150000D03*
X192570000Y-120150000D03*
%TD*%
D12*
%TO.C,SW22*%
X197360991Y-76950000D03*
X197360991Y-70950000D03*
X201110991Y-76950000D03*
X201110991Y-70950000D03*
%TD*%
D10*
%TO.C,D202*%
X238290000Y-61850000D03*
X237090000Y-61850000D03*
X237090000Y-63150000D03*
X238290000Y-63150000D03*
%TD*%
D13*
%TO.C,D39*%
X195400000Y-97750000D03*
X195400000Y-95650000D03*
%TD*%
D12*
%TO.C,SW79*%
X288800990Y-65500000D03*
X288800990Y-59500000D03*
X292550990Y-65500000D03*
X292550990Y-59500000D03*
%TD*%
%TO.C,SW68*%
X254510991Y-54100000D03*
X254510991Y-48100000D03*
X258260991Y-54100000D03*
X258260991Y-48100000D03*
%TD*%
D13*
%TO.C,D144*%
X298270000Y-63550000D03*
X298270000Y-61450000D03*
%TD*%
D11*
%TO.C,C92*%
X250145000Y-83200000D03*
X248595000Y-83200000D03*
%TD*%
D13*
%TO.C,D50*%
X138250000Y-120550000D03*
X138250000Y-118450000D03*
%TD*%
D10*
%TO.C,D233*%
X226860000Y-107450000D03*
X225660000Y-107450000D03*
X225660000Y-108750000D03*
X226860000Y-108750000D03*
%TD*%
D11*
%TO.C,C79*%
X284435000Y-60400000D03*
X282885000Y-60400000D03*
%TD*%
D12*
%TO.C,SW121*%
X220220991Y-134095996D03*
X220220991Y-128095996D03*
X223970991Y-134095996D03*
X223970991Y-128095996D03*
%TD*%
D10*
%TO.C,D125*%
X192570000Y-130250000D03*
X191370000Y-130250000D03*
X191370000Y-131550000D03*
X192570000Y-131550000D03*
%TD*%
D12*
%TO.C,SW122*%
X231650991Y-134095996D03*
X231650991Y-128095996D03*
X235400991Y-134095996D03*
X235400991Y-128095996D03*
%TD*%
%TO.C,SW14*%
X197360991Y-65500000D03*
X197360991Y-59500000D03*
X201110991Y-65500000D03*
X201110991Y-59500000D03*
%TD*%
%TO.C,SW12*%
X174500991Y-65500000D03*
X174500991Y-59500000D03*
X178250991Y-65500000D03*
X178250991Y-59500000D03*
%TD*%
D10*
%TO.C,D211*%
X249720000Y-73250000D03*
X248520000Y-73250000D03*
X248520000Y-74550000D03*
X249720000Y-74550000D03*
%TD*%
D11*
%TO.C,C114*%
X227285000Y-117400000D03*
X225735000Y-117400000D03*
%TD*%
D10*
%TO.C,D111*%
X215430000Y-107450000D03*
X214230000Y-107450000D03*
X214230000Y-108750000D03*
X215430000Y-108750000D03*
%TD*%
D11*
%TO.C,C88*%
X295864999Y-71800000D03*
X294314999Y-71800000D03*
%TD*%
D10*
%TO.C,D250*%
X238290000Y-130250000D03*
X237090000Y-130250000D03*
X237090000Y-131550000D03*
X238290000Y-131550000D03*
%TD*%
D11*
%TO.C,C45*%
X192995000Y-106000000D03*
X191445000Y-106000000D03*
%TD*%
%TO.C,C85*%
X261575000Y-71800000D03*
X260025000Y-71800000D03*
%TD*%
D12*
%TO.C,SW20*%
X174500991Y-76950000D03*
X174500991Y-70950000D03*
X178250991Y-76950000D03*
X178250991Y-70950000D03*
%TD*%
D13*
%TO.C,D189*%
X263980000Y-131950000D03*
X263980000Y-129850000D03*
%TD*%
D10*
%TO.C,D194*%
X238290000Y-50450000D03*
X237090000Y-50450000D03*
X237090000Y-51750000D03*
X238290000Y-51750000D03*
%TD*%
D11*
%TO.C,C28*%
X181565000Y-83200000D03*
X180015000Y-83200000D03*
%TD*%
D10*
%TO.C,D234*%
X238290000Y-107450000D03*
X237090000Y-107450000D03*
X237090000Y-108750000D03*
X238290000Y-108750000D03*
%TD*%
D11*
%TO.C,C108*%
X250145000Y-106000000D03*
X248595000Y-106000000D03*
%TD*%
D10*
%TO.C,D1*%
X146850000Y-50450000D03*
X145650000Y-50450000D03*
X145650000Y-51750000D03*
X146850000Y-51750000D03*
%TD*%
%TO.C,D80*%
X318300000Y-61850000D03*
X317100000Y-61850000D03*
X317100000Y-63150000D03*
X318300000Y-63150000D03*
%TD*%
D11*
%TO.C,C58*%
X158705000Y-128800000D03*
X157155000Y-128800000D03*
%TD*%
D12*
%TO.C,SW63*%
X208790991Y-134095996D03*
X208790991Y-128095996D03*
X212540991Y-134095996D03*
X212540991Y-128095996D03*
%TD*%
D11*
%TO.C,C29*%
X192995000Y-83200000D03*
X191445000Y-83200000D03*
%TD*%
D13*
%TO.C,D43*%
X149680000Y-109150000D03*
X149680000Y-107050000D03*
%TD*%
D12*
%TO.C,SW29*%
X185930991Y-88375997D03*
X185930991Y-82375997D03*
X189680991Y-88375997D03*
X189680991Y-82375997D03*
%TD*%
D10*
%TO.C,D87*%
X215430000Y-73250000D03*
X214230000Y-73250000D03*
X214230000Y-74550000D03*
X215430000Y-74550000D03*
%TD*%
D12*
%TO.C,SW58*%
X151640991Y-134095996D03*
X151640991Y-128095996D03*
X155390991Y-134095996D03*
X155390991Y-128095996D03*
%TD*%
%TO.C,SW102*%
X277370991Y-99805996D03*
X277370991Y-93805996D03*
X281120991Y-99805996D03*
X281120991Y-93805996D03*
%TD*%
D13*
%TO.C,D156*%
X252550000Y-86350000D03*
X252550000Y-84250000D03*
%TD*%
%TO.C,D192*%
X298270000Y-131950000D03*
X298270000Y-129850000D03*
%TD*%
%TO.C,D180*%
X252550000Y-120550000D03*
X252550000Y-118450000D03*
%TD*%
%TO.C,D172*%
X252550000Y-109150000D03*
X252550000Y-107050000D03*
%TD*%
D10*
%TO.C,D93*%
X192570000Y-84650000D03*
X191370000Y-84650000D03*
X191370000Y-85950000D03*
X192570000Y-85950000D03*
%TD*%
D13*
%TO.C,D182*%
X275410000Y-120550000D03*
X275410000Y-118450000D03*
%TD*%
D10*
%TO.C,D68*%
X181140000Y-50450000D03*
X179940000Y-50450000D03*
X179940000Y-51750000D03*
X181140000Y-51750000D03*
%TD*%
D13*
%TO.C,D48*%
X206830000Y-109150000D03*
X206830000Y-107050000D03*
%TD*%
D11*
%TO.C,C118*%
X273005000Y-117400000D03*
X271455000Y-117400000D03*
%TD*%
D13*
%TO.C,D167*%
X286839999Y-97750000D03*
X286839999Y-95650000D03*
%TD*%
D10*
%TO.C,D222*%
X284010000Y-84650000D03*
X282810000Y-84650000D03*
X282810000Y-85950000D03*
X284010000Y-85950000D03*
%TD*%
%TO.C,D229*%
X272580000Y-96050000D03*
X271380000Y-96050000D03*
X271380000Y-97350000D03*
X272580000Y-97350000D03*
%TD*%
D11*
%TO.C,C97*%
X307295000Y-83200000D03*
X305745000Y-83200000D03*
%TD*%
%TO.C,C23*%
X215855000Y-71800000D03*
X214305000Y-71800000D03*
%TD*%
D12*
%TO.C,SW31*%
X208790991Y-88350000D03*
X208790991Y-82350000D03*
X212540991Y-88350000D03*
X212540991Y-82350000D03*
%TD*%
D11*
%TO.C,C46*%
X204425000Y-106000000D03*
X202875000Y-106000000D03*
%TD*%
D13*
%TO.C,D8*%
X206830000Y-52150000D03*
X206830000Y-50050000D03*
%TD*%
D12*
%TO.C,SW2*%
X151640991Y-54100000D03*
X151640991Y-48100000D03*
X155390991Y-54100000D03*
X155390991Y-48100000D03*
%TD*%
D10*
%TO.C,D235*%
X249720000Y-107450000D03*
X248520000Y-107450000D03*
X248520000Y-108750000D03*
X249720000Y-108750000D03*
%TD*%
D13*
%TO.C,D13*%
X172540000Y-63550000D03*
X172540000Y-61450000D03*
%TD*%
D11*
%TO.C,C82*%
X227285000Y-71800000D03*
X225735000Y-71800000D03*
%TD*%
%TO.C,C53*%
X192995000Y-117400000D03*
X191445000Y-117400000D03*
%TD*%
%TO.C,C18*%
X158705000Y-71800000D03*
X157155000Y-71800000D03*
%TD*%
%TO.C,C19*%
X170135000Y-71800000D03*
X168585000Y-71800000D03*
%TD*%
D10*
%TO.C,D253*%
X272580000Y-130250000D03*
X271380000Y-130250000D03*
X271380000Y-131550000D03*
X272580000Y-131550000D03*
%TD*%
D13*
%TO.C,D139*%
X241120000Y-63550000D03*
X241120000Y-61450000D03*
%TD*%
D11*
%TO.C,C54*%
X204425000Y-117400000D03*
X202875000Y-117400000D03*
%TD*%
D10*
%TO.C,D204*%
X261150000Y-61850000D03*
X259950000Y-61850000D03*
X259950000Y-63150000D03*
X261150000Y-63150000D03*
%TD*%
D13*
%TO.C,D183*%
X286839999Y-120550000D03*
X286839999Y-118450000D03*
%TD*%
D12*
%TO.C,SW61*%
X185930991Y-134095996D03*
X185930991Y-128095996D03*
X189680991Y-134095996D03*
X189680991Y-128095996D03*
%TD*%
D13*
%TO.C,D140*%
X252550000Y-63550000D03*
X252550000Y-61450000D03*
%TD*%
D10*
%TO.C,D116*%
X181140000Y-118850000D03*
X179940000Y-118850000D03*
X179940000Y-120150000D03*
X181140000Y-120150000D03*
%TD*%
D13*
%TO.C,D150*%
X275410000Y-74950000D03*
X275410000Y-72850000D03*
%TD*%
D10*
%TO.C,D200*%
X306870000Y-50450000D03*
X305670000Y-50450000D03*
X305670000Y-51750000D03*
X306870000Y-51750000D03*
%TD*%
D12*
%TO.C,SW98*%
X231650991Y-99805996D03*
X231650991Y-93805996D03*
X235400991Y-99805996D03*
X235400991Y-93805996D03*
%TD*%
D13*
%TO.C,D159*%
X286839999Y-86350000D03*
X286839999Y-84250000D03*
%TD*%
D11*
%TO.C,C125*%
X261575000Y-128800000D03*
X260025000Y-128800000D03*
%TD*%
D13*
%TO.C,D133*%
X263980000Y-52150000D03*
X263980000Y-50050000D03*
%TD*%
D10*
%TO.C,D247*%
X295439999Y-118850000D03*
X294239999Y-118850000D03*
X294239999Y-120150000D03*
X295439999Y-120150000D03*
%TD*%
D12*
%TO.C,SW111*%
X288800990Y-111235996D03*
X288800990Y-105235996D03*
X292550990Y-111235996D03*
X292550990Y-105235996D03*
%TD*%
D11*
%TO.C,C4*%
X181565000Y-49000000D03*
X180015000Y-49000000D03*
%TD*%
D13*
%TO.C,D132*%
X252550000Y-52150000D03*
X252550000Y-50050000D03*
%TD*%
%TO.C,D152*%
X298270000Y-74950000D03*
X298270000Y-72850000D03*
%TD*%
%TO.C,D137*%
X218260000Y-63550000D03*
X218260000Y-61450000D03*
%TD*%
D11*
%TO.C,C5*%
X192995000Y-49000000D03*
X191445000Y-49000000D03*
%TD*%
D13*
%TO.C,D181*%
X263980000Y-120550000D03*
X263980000Y-118450000D03*
%TD*%
%TO.C,D61*%
X172540000Y-131950000D03*
X172540000Y-129850000D03*
%TD*%
D10*
%TO.C,D71*%
X215430000Y-50450000D03*
X214230000Y-50450000D03*
X214230000Y-51750000D03*
X215430000Y-51750000D03*
%TD*%
D12*
%TO.C,SW38*%
X197360991Y-99805996D03*
X197360991Y-93805996D03*
X201110991Y-99805996D03*
X201110991Y-93805996D03*
%TD*%
D11*
%TO.C,C110*%
X273005000Y-106000000D03*
X271455000Y-106000000D03*
%TD*%
D10*
%TO.C,D123*%
X169710000Y-130250000D03*
X168510000Y-130250000D03*
X168510000Y-131550000D03*
X169710000Y-131550000D03*
%TD*%
D12*
%TO.C,SW113*%
X220220991Y-122665996D03*
X220220991Y-116665996D03*
X223970991Y-122665996D03*
X223970991Y-116665996D03*
%TD*%
D11*
%TO.C,C50*%
X158705000Y-117400000D03*
X157155000Y-117400000D03*
%TD*%
D12*
%TO.C,SW119*%
X288800990Y-122665996D03*
X288800990Y-116665996D03*
X292550990Y-122665996D03*
X292550990Y-116665996D03*
%TD*%
%TO.C,SW25*%
X140210991Y-88375997D03*
X140210991Y-82375997D03*
X143960991Y-88375997D03*
X143960991Y-82375997D03*
%TD*%
%TO.C,SW30*%
X197360991Y-88375997D03*
X197360991Y-82375997D03*
X201110991Y-88375997D03*
X201110991Y-82375997D03*
%TD*%
%TO.C,SW43*%
X163070991Y-111235996D03*
X163070991Y-105235996D03*
X166820991Y-111235996D03*
X166820991Y-105235996D03*
%TD*%
D13*
%TO.C,D6*%
X183970000Y-52150000D03*
X183970000Y-50050000D03*
%TD*%
D11*
%TO.C,C112*%
X295864999Y-106000000D03*
X294314999Y-106000000D03*
%TD*%
%TO.C,C95*%
X284435000Y-83200000D03*
X282885000Y-83200000D03*
%TD*%
%TO.C,C127*%
X284435000Y-128800000D03*
X282885000Y-128800000D03*
%TD*%
D10*
%TO.C,D100*%
X181140000Y-96050000D03*
X179940000Y-96050000D03*
X179940000Y-97350000D03*
X181140000Y-97350000D03*
%TD*%
%TO.C,D210*%
X238290000Y-73250000D03*
X237090000Y-73250000D03*
X237090000Y-74550000D03*
X238290000Y-74550000D03*
%TD*%
%TO.C,D224*%
X306870000Y-84650000D03*
X305670000Y-84650000D03*
X305670000Y-85950000D03*
X306870000Y-85950000D03*
%TD*%
%TO.C,D252*%
X261150000Y-130250000D03*
X259950000Y-130250000D03*
X259950000Y-131550000D03*
X261150000Y-131550000D03*
%TD*%
%TO.C,D203*%
X249720000Y-61850000D03*
X248520000Y-61850000D03*
X248520000Y-63150000D03*
X249720000Y-63150000D03*
%TD*%
D11*
%TO.C,C119*%
X284435000Y-117400000D03*
X282885000Y-117400000D03*
%TD*%
D10*
%TO.C,D75*%
X169710000Y-61850000D03*
X168510000Y-61850000D03*
X168510000Y-63150000D03*
X169710000Y-63150000D03*
%TD*%
D12*
%TO.C,SW89*%
X220220991Y-88350000D03*
X220220991Y-82350000D03*
X223970991Y-88350000D03*
X223970991Y-82350000D03*
%TD*%
D13*
%TO.C,D64*%
X206830000Y-131950000D03*
X206830000Y-129850000D03*
%TD*%
D12*
%TO.C,SW21*%
X185930991Y-76950000D03*
X185930991Y-70950000D03*
X189680991Y-76950000D03*
X189680991Y-70950000D03*
%TD*%
D13*
%TO.C,D58*%
X138250000Y-131950000D03*
X138250000Y-129850000D03*
%TD*%
D12*
%TO.C,SW93*%
X265940991Y-88350000D03*
X265940991Y-82350000D03*
X269690991Y-88350000D03*
X269690991Y-82350000D03*
%TD*%
D10*
%TO.C,D205*%
X272580000Y-61850000D03*
X271380000Y-61850000D03*
X271380000Y-63150000D03*
X272580000Y-63150000D03*
%TD*%
D11*
%TO.C,C38*%
X204425000Y-94600000D03*
X202875000Y-94600000D03*
%TD*%
D10*
%TO.C,D78*%
X204000000Y-61850000D03*
X202800000Y-61850000D03*
X202800000Y-63150000D03*
X204000000Y-63150000D03*
%TD*%
D12*
%TO.C,SW27*%
X163070991Y-88375997D03*
X163070991Y-82375997D03*
X166820991Y-88375997D03*
X166820991Y-82375997D03*
%TD*%
D11*
%TO.C,C27*%
X170135000Y-83200000D03*
X168585000Y-83200000D03*
%TD*%
D13*
%TO.C,D164*%
X252550000Y-97750000D03*
X252550000Y-95650000D03*
%TD*%
D11*
%TO.C,C48*%
X318725000Y-106000000D03*
X317175000Y-106000000D03*
%TD*%
%TO.C,C83*%
X238715000Y-71800000D03*
X237165000Y-71800000D03*
%TD*%
%TO.C,C115*%
X238715000Y-117400000D03*
X237165000Y-117400000D03*
%TD*%
D12*
%TO.C,SW108*%
X254510991Y-111235996D03*
X254510991Y-105235996D03*
X258260991Y-111235996D03*
X258260991Y-105235996D03*
%TD*%
D11*
%TO.C,C55*%
X215855000Y-117400000D03*
X214305000Y-117400000D03*
%TD*%
D10*
%TO.C,D85*%
X192570000Y-73250000D03*
X191370000Y-73250000D03*
X191370000Y-74550000D03*
X192570000Y-74550000D03*
%TD*%
%TO.C,D209*%
X226860000Y-73250000D03*
X225660000Y-73250000D03*
X225660000Y-74550000D03*
X226860000Y-74550000D03*
%TD*%
%TO.C,D121*%
X146850000Y-130250000D03*
X145650000Y-130250000D03*
X145650000Y-131550000D03*
X146850000Y-131550000D03*
%TD*%
D12*
%TO.C,SW53*%
X185930991Y-122665996D03*
X185930991Y-116665996D03*
X189680991Y-122665996D03*
X189680991Y-116665996D03*
%TD*%
D13*
%TO.C,D151*%
X286839999Y-74950000D03*
X286839999Y-72850000D03*
%TD*%
%TO.C,D165*%
X263980000Y-97750000D03*
X263980000Y-95650000D03*
%TD*%
%TO.C,D21*%
X172540000Y-74950000D03*
X172540000Y-72850000D03*
%TD*%
D11*
%TO.C,C113*%
X307295000Y-106000000D03*
X305745000Y-106000000D03*
%TD*%
%TO.C,C11*%
X170135000Y-60400000D03*
X168585000Y-60400000D03*
%TD*%
D10*
%TO.C,D214*%
X284010000Y-73250000D03*
X282810000Y-73250000D03*
X282810000Y-74550000D03*
X284010000Y-74550000D03*
%TD*%
D13*
%TO.C,D155*%
X241120000Y-86350000D03*
X241120000Y-84250000D03*
%TD*%
%TO.C,D142*%
X275410000Y-63550000D03*
X275410000Y-61450000D03*
%TD*%
D11*
%TO.C,C80*%
X295864999Y-60400000D03*
X294314999Y-60400000D03*
%TD*%
D12*
%TO.C,SW127*%
X288800990Y-134095996D03*
X288800990Y-128095996D03*
X292550990Y-134095996D03*
X292550990Y-128095996D03*
%TD*%
%TO.C,SW44*%
X174500991Y-111235996D03*
X174500991Y-105235996D03*
X178250991Y-111235996D03*
X178250991Y-105235996D03*
%TD*%
D11*
%TO.C,C10*%
X158705000Y-60400000D03*
X157155000Y-60400000D03*
%TD*%
D10*
%TO.C,D83*%
X169710000Y-73250000D03*
X168510000Y-73250000D03*
X168510000Y-74550000D03*
X169710000Y-74550000D03*
%TD*%
D11*
%TO.C,C8*%
X318725000Y-49000000D03*
X317175000Y-49000000D03*
%TD*%
%TO.C,C128*%
X295864999Y-128800000D03*
X294314999Y-128800000D03*
%TD*%
D12*
%TO.C,SW59*%
X163070991Y-134095996D03*
X163070991Y-128095996D03*
X166820991Y-134095996D03*
X166820991Y-128095996D03*
%TD*%
D10*
%TO.C,D74*%
X158280000Y-61850000D03*
X157080000Y-61850000D03*
X157080000Y-63150000D03*
X158280000Y-63150000D03*
%TD*%
D12*
%TO.C,SW124*%
X254510991Y-134095996D03*
X254510991Y-128095996D03*
X258260991Y-134095996D03*
X258260991Y-128095996D03*
%TD*%
D10*
%TO.C,D89*%
X146850000Y-84650000D03*
X145650000Y-84650000D03*
X145650000Y-85950000D03*
X146850000Y-85950000D03*
%TD*%
D11*
%TO.C,C49*%
X147275000Y-117400000D03*
X145725000Y-117400000D03*
%TD*%
D12*
%TO.C,SW60*%
X174500991Y-134095996D03*
X174500991Y-128095996D03*
X178250991Y-134095996D03*
X178250991Y-128095996D03*
%TD*%
D11*
%TO.C,C42*%
X158705000Y-106000000D03*
X157155000Y-106000000D03*
%TD*%
%TO.C,C123*%
X238715000Y-128800000D03*
X237165000Y-128800000D03*
%TD*%
D10*
%TO.C,D95*%
X215430000Y-84650000D03*
X214230000Y-84650000D03*
X214230000Y-85950000D03*
X215430000Y-85950000D03*
%TD*%
D13*
%TO.C,D29*%
X172540000Y-86350000D03*
X172540000Y-84250000D03*
%TD*%
%TO.C,D148*%
X252550000Y-74950000D03*
X252550000Y-72850000D03*
%TD*%
%TO.C,D47*%
X195400000Y-109150000D03*
X195400000Y-107050000D03*
%TD*%
D12*
%TO.C,SW117*%
X265940991Y-122665996D03*
X265940991Y-116665996D03*
X269690991Y-122665996D03*
X269690991Y-116665996D03*
%TD*%
%TO.C,SW52*%
X174500991Y-122665996D03*
X174500991Y-116665996D03*
X178250991Y-122665996D03*
X178250991Y-116665996D03*
%TD*%
D11*
%TO.C,C117*%
X261575000Y-117400000D03*
X260025000Y-117400000D03*
%TD*%
D13*
%TO.C,D171*%
X241120000Y-109150000D03*
X241120000Y-107050000D03*
%TD*%
D10*
%TO.C,D226*%
X238290000Y-96050000D03*
X237090000Y-96050000D03*
X237090000Y-97350000D03*
X238290000Y-97350000D03*
%TD*%
%TO.C,D254*%
X284010000Y-130250000D03*
X282810000Y-130250000D03*
X282810000Y-131550000D03*
X284010000Y-131550000D03*
%TD*%
D12*
%TO.C,SW75*%
X243080991Y-65500000D03*
X243080991Y-59500000D03*
X246830991Y-65500000D03*
X246830991Y-59500000D03*
%TD*%
D10*
%TO.C,D196*%
X261150000Y-50450000D03*
X259950000Y-50450000D03*
X259950000Y-51750000D03*
X261150000Y-51750000D03*
%TD*%
D11*
%TO.C,C120*%
X295864999Y-117400000D03*
X294314999Y-117400000D03*
%TD*%
D12*
%TO.C,SW126*%
X277370991Y-134095996D03*
X277370991Y-128095996D03*
X281120991Y-134095996D03*
X281120991Y-128095996D03*
%TD*%
D13*
%TO.C,D52*%
X161110000Y-120550000D03*
X161110000Y-118450000D03*
%TD*%
D12*
%TO.C,SW50*%
X151640991Y-122665996D03*
X151640991Y-116665996D03*
X155390991Y-122665996D03*
X155390991Y-116665996D03*
%TD*%
D13*
%TO.C,D60*%
X161110000Y-131950000D03*
X161110000Y-129850000D03*
%TD*%
D11*
%TO.C,C71*%
X284435000Y-49000000D03*
X282885000Y-49000000D03*
%TD*%
D12*
%TO.C,SW109*%
X265940991Y-111235996D03*
X265940991Y-105235996D03*
X269690991Y-111235996D03*
X269690991Y-105235996D03*
%TD*%
D13*
%TO.C,D141*%
X263980000Y-63550000D03*
X263980000Y-61450000D03*
%TD*%
D11*
%TO.C,C17*%
X147275000Y-71800000D03*
X145725000Y-71800000D03*
%TD*%
D13*
%TO.C,D146*%
X229690000Y-74950000D03*
X229690000Y-72850000D03*
%TD*%
D10*
%TO.C,D107*%
X169710000Y-107450000D03*
X168510000Y-107450000D03*
X168510000Y-108750000D03*
X169710000Y-108750000D03*
%TD*%
D13*
%TO.C,D179*%
X241120000Y-120550000D03*
X241120000Y-118450000D03*
%TD*%
D10*
%TO.C,D230*%
X284010000Y-96050000D03*
X282810000Y-96050000D03*
X282810000Y-97350000D03*
X284010000Y-97350000D03*
%TD*%
D13*
%TO.C,D190*%
X275410000Y-131950000D03*
X275410000Y-129850000D03*
%TD*%
%TO.C,D138*%
X229690000Y-63550000D03*
X229690000Y-61450000D03*
%TD*%
D10*
%TO.C,D86*%
X204000000Y-73250000D03*
X202800000Y-73250000D03*
X202800000Y-74550000D03*
X204000000Y-74550000D03*
%TD*%
D13*
%TO.C,D31*%
X195400000Y-86350000D03*
X195400000Y-84250000D03*
%TD*%
%TO.C,D4*%
X161110000Y-52150000D03*
X161110000Y-50050000D03*
%TD*%
D10*
%TO.C,D126*%
X204000000Y-130250000D03*
X202800000Y-130250000D03*
X202800000Y-131550000D03*
X204000000Y-131550000D03*
%TD*%
D12*
%TO.C,SW46*%
X197360991Y-111235996D03*
X197360991Y-105235996D03*
X201110991Y-111235996D03*
X201110991Y-105235996D03*
%TD*%
D13*
%TO.C,D54*%
X183970000Y-120550000D03*
X183970000Y-118450000D03*
%TD*%
%TO.C,D35*%
X149680000Y-97750000D03*
X149680000Y-95650000D03*
%TD*%
%TO.C,D14*%
X183970000Y-63550000D03*
X183970000Y-61450000D03*
%TD*%
D12*
%TO.C,SW3*%
X163070991Y-54100000D03*
X163070991Y-48100000D03*
X166820991Y-54100000D03*
X166820991Y-48100000D03*
%TD*%
D13*
%TO.C,D131*%
X241120000Y-52150000D03*
X241120000Y-50050000D03*
%TD*%
D11*
%TO.C,C93*%
X261575000Y-83200000D03*
X260025000Y-83200000D03*
%TD*%
D13*
%TO.C,D10*%
X138250000Y-63550000D03*
X138250000Y-61450000D03*
%TD*%
D11*
%TO.C,C90*%
X227285000Y-83200000D03*
X225735000Y-83200000D03*
%TD*%
D10*
%TO.C,D66*%
X158280000Y-50450000D03*
X157080000Y-50450000D03*
X157080000Y-51750000D03*
X158280000Y-51750000D03*
%TD*%
%TO.C,D249*%
X226860000Y-130250000D03*
X225660000Y-130250000D03*
X225660000Y-131550000D03*
X226860000Y-131550000D03*
%TD*%
D12*
%TO.C,SW107*%
X243080991Y-111235996D03*
X243080991Y-105235996D03*
X246830991Y-111235996D03*
X246830991Y-105235996D03*
%TD*%
%TO.C,SW73*%
X220220991Y-65500000D03*
X220220991Y-59500000D03*
X223970991Y-65500000D03*
X223970991Y-59500000D03*
%TD*%
%TO.C,SW34*%
X151640991Y-99805996D03*
X151640991Y-93805996D03*
X155390991Y-99805996D03*
X155390991Y-93805996D03*
%TD*%
D13*
%TO.C,D11*%
X149680000Y-63550000D03*
X149680000Y-61450000D03*
%TD*%
%TO.C,D166*%
X275410000Y-97750000D03*
X275410000Y-95650000D03*
%TD*%
D12*
%TO.C,SW71*%
X288800990Y-54100000D03*
X288800990Y-48100000D03*
X292550990Y-54100000D03*
X292550990Y-48100000D03*
%TD*%
%TO.C,SW77*%
X265940991Y-65500000D03*
X265940991Y-59500000D03*
X269690991Y-65500000D03*
X269690991Y-59500000D03*
%TD*%
D13*
%TO.C,D160*%
X298270000Y-86350000D03*
X298270000Y-84250000D03*
%TD*%
%TO.C,D143*%
X286839999Y-63550000D03*
X286839999Y-61450000D03*
%TD*%
D10*
%TO.C,D88*%
X318300000Y-73250000D03*
X317100000Y-73250000D03*
X317100000Y-74550000D03*
X318300000Y-74550000D03*
%TD*%
%TO.C,D102*%
X204000000Y-96050000D03*
X202800000Y-96050000D03*
X202800000Y-97350000D03*
X204000000Y-97350000D03*
%TD*%
D11*
%TO.C,C91*%
X238715000Y-83200000D03*
X237165000Y-83200000D03*
%TD*%
D12*
%TO.C,SW95*%
X288800990Y-88350000D03*
X288800990Y-82350000D03*
X292550990Y-88350000D03*
X292550990Y-82350000D03*
%TD*%
D11*
%TO.C,C99*%
X238715000Y-94600000D03*
X237165000Y-94600000D03*
%TD*%
D13*
%TO.C,D162*%
X229690000Y-97750000D03*
X229690000Y-95650000D03*
%TD*%
D10*
%TO.C,D106*%
X158280000Y-107450000D03*
X157080000Y-107450000D03*
X157080000Y-108750000D03*
X158280000Y-108750000D03*
%TD*%
%TO.C,D242*%
X238290000Y-118850000D03*
X237090000Y-118850000D03*
X237090000Y-120150000D03*
X238290000Y-120150000D03*
%TD*%
%TO.C,D110*%
X204000000Y-107450000D03*
X202800000Y-107450000D03*
X202800000Y-108750000D03*
X204000000Y-108750000D03*
%TD*%
D13*
%TO.C,D145*%
X218260000Y-74950000D03*
X218260000Y-72850000D03*
%TD*%
D10*
%TO.C,D238*%
X284010000Y-107450000D03*
X282810000Y-107450000D03*
X282810000Y-108750000D03*
X284010000Y-108750000D03*
%TD*%
D11*
%TO.C,C43*%
X170135000Y-106000000D03*
X168585000Y-106000000D03*
%TD*%
D12*
%TO.C,SW45*%
X185930991Y-111235996D03*
X185930991Y-105235996D03*
X189680991Y-111235996D03*
X189680991Y-105235996D03*
%TD*%
D13*
%TO.C,D187*%
X241120000Y-131950000D03*
X241120000Y-129850000D03*
%TD*%
D10*
%TO.C,D127*%
X215430000Y-130250000D03*
X214230000Y-130250000D03*
X214230000Y-131550000D03*
X215430000Y-131550000D03*
%TD*%
D13*
%TO.C,D147*%
X241120000Y-74950000D03*
X241120000Y-72850000D03*
%TD*%
M02*
